<?xml version="1.0" encoding="utf-8"?>
<!-- Generator: Adobe Illustrator 25.4.1, SVG Export Plug-In . SVG Version: 6.00 Build 0)  -->
<svg version="1.1" id="Layer_1" xmlns="http://www.w3.org/2000/svg" xmlns:xlink="http://www.w3.org/1999/xlink" x="0px" y="0px"
	 viewBox="0 0 230 48" style="enable-background:new 0 0 230 48;" xml:space="preserve">
<style type="text/css">
	.st0{fill:url(#SVGID_1_);}
	.st1{fill:url(#SVGID_00000082344899716402518770000003955832235584521890_);}
	.st2{fill:url(#SVGID_00000033366780044605898920000014684884306313507733_);}
	.st3{fill:url(#SVGID_00000170971582917432851190000003171547721926802312_);}
	.st4{fill:url(#SVGID_00000014606545610835495430000002347881844643590538_);}
	.st5{fill:url(#SVGID_00000048483868608373558940000009188886315593981086_);}
	.st6{fill:url(#SVGID_00000172431643673515489960000010984259079727313797_);}
	.st7{fill:url(#SVGID_00000048503610198245618470000008416875218198936499_);}
	.st8{fill:url(#SVGID_00000062160143249431204890000017140556154140152981_);}
	.st9{fill:url(#SVGID_00000096761502367357290690000003580897900788587405_);}
	.st10{fill:url(#SVGID_00000049207232557940301980000015165680912307713965_);}
	.st11{fill:url(#SVGID_00000083073229789884159180000005541523535681175462_);}
	.st12{fill:url(#SVGID_00000043424090247106408960000014962773775680376242_);}
	.st13{fill:url(#SVGID_00000131358790868043707340000007183051459271749005_);}
	.st14{fill:url(#SVGID_00000161589564550867502520000014647660789036806558_);}
	.st15{fill:url(#SVGID_00000041272844414344732840000000220981258879781511_);}
	.st16{fill:url(#SVGID_00000026868925091143760720000003434262111932920224_);}
	.st17{fill:url(#SVGID_00000016054673720955675670000012612536328350700460_);}
	.st18{fill:url(#SVGID_00000010306912545388590580000013063929346155858620_);}
	.st19{fill:url(#SVGID_00000040552946832838191790000015690422705466501303_);}
	.st20{fill:url(#SVGID_00000111159780785792321330000008321137602688840836_);}
	.st21{fill:url(#SVGID_00000020384834890101099500000003403725609838231466_);}
	.st22{fill:url(#SVGID_00000099646169823407647580000006708603493747807903_);}
	.st23{fill:url(#SVGID_00000131341424613055932250000006346439803474427539_);}
	.st24{fill:url(#SVGID_00000125573618470958314700000007749984397214841489_);}
	.st25{fill:url(#SVGID_00000010312161481500586820000012019315311438236855_);}
	.st26{fill:url(#SVGID_00000003801224824581314160000001188231691881916549_);}
	.st27{fill:url(#SVGID_00000113347549120455808290000000367565646165064876_);}
	.st28{fill:url(#SVGID_00000062910914607827225390000007618504273496479875_);}
	.st29{fill:url(#SVGID_00000173135157462420577050000001298798836220718266_);}
	.st30{fill:url(#SVGID_00000073723571282021420340000001060753516437390505_);}
	.st31{fill:url(#SVGID_00000019675086796519103120000005538320387908056706_);}
	.st32{fill:url(#SVGID_00000080926753804536199980000002731483876897440951_);}
	.st33{fill:url(#SVGID_00000057131595770102947260000009682935578341757601_);}
	.st34{fill:url(#SVGID_00000020361559546375161980000005710475517540366734_);}
	.st35{fill:url(#SVGID_00000013915861255283768510000007151154665660382617_);}
	.st36{fill:url(#SVGID_00000003084526113793033230000017098538657768367506_);}
	.st37{fill:url(#SVGID_00000129891603451245169850000014349722411805798811_);}
	.st38{fill:url(#SVGID_00000152986913669748779880000015156692169091302060_);}
	.st39{fill:url(#SVGID_00000129190820902831678740000008172206828380450736_);}
	.st40{fill:url(#SVGID_00000109028850393516106320000016913836642191563962_);}
	.st41{fill:url(#SVGID_00000152243306833026224190000018374063355361216672_);}
	.st42{fill:url(#SVGID_00000122691260125942280410000005269447420396683965_);}
	.st43{fill:url(#SVGID_00000023988828386138146400000008903966618376702900_);}
	.st44{fill:url(#SVGID_00000044174226925960586740000005690980302381370267_);}
	.st45{fill:url(#SVGID_00000150822659629970967730000017427526318035777198_);}
	.st46{fill:url(#SVGID_00000044148946002293178680000015666811222534698137_);}
	.st47{fill:url(#SVGID_00000031896757051240566650000013381204212354932360_);}
	.st48{fill:url(#SVGID_00000002352712803412817280000014134232685957317291_);}
	.st49{fill:url(#SVGID_00000057147871845763606830000009442142727188400056_);}
	.st50{fill:url(#SVGID_00000163772430532472594930000007205614526751310470_);}
	.st51{fill:url(#SVGID_00000113341726158705936850000007585428122891931527_);}
	.st52{fill:url(#SVGID_00000080900225098780267880000012982594818739119011_);}
	.st53{fill:url(#SVGID_00000098216749573635858940000013889951071251925916_);}
	.st54{fill:url(#SVGID_00000060004431099707162270000004176144455008166315_);}
	.st55{fill:url(#SVGID_00000102518311376817738280000002015956297054002319_);}
	.st56{fill:url(#SVGID_00000101064481603460675860000006755757276738716091_);}
	.st57{fill:url(#SVGID_00000176753387342072379900000009650786010600542655_);}
	.st58{fill:url(#SVGID_00000056399507864696099660000007410400108369609114_);}
	.st59{fill:url(#SVGID_00000072959914187171711050000008849339354077145015_);}
	.st60{fill:url(#SVGID_00000052102122655852853160000008186277163298138279_);}
	.st61{fill:url(#SVGID_00000013899524499880541980000003527098476179271095_);}
	.st62{fill:url(#SVGID_00000154410858071821549860000013100246382190740359_);}
	.st63{fill:url(#SVGID_00000160187265492798620040000001777322143749270691_);}
	.st64{fill:url(#SVGID_00000016782731422049395840000016973426238006296753_);}
	.st65{fill:url(#SVGID_00000041981403067967176730000003565896500137621946_);}
	.st66{fill:url(#SVGID_00000041269806978349379500000011890470784584468368_);}
	.st67{fill:url(#SVGID_00000025420419462780137570000000340619292754539685_);}
	.st68{fill:url(#SVGID_00000005969646519650264780000012003809844433760925_);}
	.st69{fill:url(#SVGID_00000053515016383165809850000018037225695264242049_);}
	.st70{fill:url(#SVGID_00000104668119488370488270000011274715348630593169_);}
	.st71{fill:url(#SVGID_00000099621151571678541050000002499287916146861704_);}
	.st72{fill:url(#SVGID_00000118376306652557518410000006412354960174186669_);}
	.st73{fill:url(#SVGID_00000173855117109602194940000004122149558945039020_);}
	.st74{fill:url(#SVGID_00000145753097570074020050000012630508332243238563_);}
	.st75{fill:url(#SVGID_00000139999389814811300710000006527833093275426451_);}
	.st76{fill:url(#SVGID_00000156576991867438484060000007657090658011319985_);}
	.st77{fill:url(#SVGID_00000134945206383248959740000000695572463402837922_);}
	.st78{fill:url(#SVGID_00000062156961829636306830000010227175244741022359_);}
	.st79{fill:url(#SVGID_00000022541574473098115120000014921176744457561517_);}
	.st80{fill:url(#SVGID_00000144336036709994523100000014115854111357498047_);}
	.st81{fill:url(#SVGID_00000034057478756947441220000004130241579885585542_);}
</style>
<g>
	<g>
		<linearGradient id="SVGID_1_" gradientUnits="userSpaceOnUse" x1="2.3926" y1="23.8681" x2="42.6435" y2="23.8681">
			<stop  offset="0" style="stop-color:#FFFFFF"/>
			<stop  offset="1" style="stop-color:#A8A8A8"/>
		</linearGradient>
		<path class="st0" d="M18.5,21.6c0.3,0,0.2-0.3,0.2-0.5c0-2.1,0-4.2,0-6.2c0-0.2,0-0.3,0-0.5c0.2-0.6,0.1-0.9-0.3-0.9
			c-2.2,0-4.5-0.1-6.7,0.1c-1.5,0.1-2.1,1.2-1.8,2.2c0.1,1,0.6,1.5,1.8,1.7c0.2,0,0.3,0,0.5,0.1c0,0.3-0.2,0.3-0.4,0.4
			c-1.3,0.4-3.1-0.2-4-1.3c-0.2-0.2-0.3-0.5-0.5-0.7c-0.7-2.3,0.9-4,3.4-4.4c1.2-0.2,2.4-0.2,3.6-0.1c0.3,0,0.5,0,0.8,0
			c2.7,0,5.5,0,8.2,0c0.5,0,0.9,0.1,1.4,0.1c-0.2-0.2-0.4-0.4-0.6-0.5c-0.5-0.3-1-0.6-1.5-0.9c-1.2-0.9-1.9-1.9-1.7-3.4
			c0-0.1,0-0.2,0-0.3c0.1-0.5,0.4-0.8,0.8-1.2c0.1,0.5,0.2,0.9,0.4,1.3c0.4,0.8,1.1,1.3,1.8,1.8c2.2,1.4,4.6,2.4,7.2,3
			c0.5,0.1,1,0.1,1.5,0.1c2.1,0,4.2,0,6.3,0c0.6,0,1.1-0.1,1.6-0.3c0.6-0.2,1.1-0.5,1.4-1.1c0.1-0.3,0.3-0.2,0.4,0
			c0.4,0.6,0.6,1.2,0.4,1.9c-0.3,0.4-0.5,0.8-1,1.1c-0.7,0.4-1.5,0.6-2.3,0.6c-1.4,0-2.8,0-4.2-0.1c-0.2,0-0.4,0-0.5,0.2
			c-0.1,0.2,0.1,0.3,0.2,0.4c0.1,0.1,0.2,0.1,0.4,0.2c0.9,1,1.7,2.1,2,3.4c0.1,0.6,0.2,1.1,0,1.7c-0.1,0.3-0.1,0.5-0.2,0.8
			c-0.8,2.1-3.2,3.7-5.8,3.7c-2,0-4,0-6,0c-0.5,0-0.6,0.1-0.6,0.6c0,1.6,0,3.2,0,4.7c0,1.1-0.1,2.2-0.2,3.3
			c-0.3,1.6-0.7,3.2-1.5,4.8c-0.7,1.5-1.6,2.9-3.1,3.8c-2.1,1.3-4.3,2.1-6.8,1c-0.9-0.9-0.5-2.2,0.3-2.6c0.3-0.2,0.7-0.3,1.1-0.2
			c1.8,0.3,3.2-0.4,4.2-1.7c0.7-0.8,1.2-1.7,1.5-2.7c0.3-0.5,0.4-1.1,0.5-1.8c-0.3,0.2-0.4,0.3-0.6,0.4c-0.5,0.4-1,0.7-1.6,0.9
			c-2.8,1-5.6,1.1-8.5,0.4c-2.6-0.6-4.9-1.9-6.4-4c-0.1-0.1-0.1-0.2-0.3-0.2c-2.3-3.8,0-8,4.1-8.7c0.5-0.1,1.1,0,1.6-0.1
			c0.1,0.1,0.2,0.1,0.3,0.1c2.9,0,5.8,0,8.8,0C18.3,21.6,18.4,21.6,18.5,21.6z M33.7,17.8c0.1-0.1,0-0.2,0-0.4
			c-0.3-1.7-2.7-4.1-5.3-3.9c-2,0.2-3.9,0.1-5.9,0c-0.6,0-0.7,0.1-0.7,0.6c0,2.3,0,4.6,0,6.9c0,0.1-0.1,0.3,0.1,0.4
			c0.1,0.2,0.2,0.2,0.4,0.2c2.4,0,4.9,0,7.3,0c0.8,0,1.6-0.2,2.3-0.5C33.2,20.3,33.8,19.2,33.7,17.8z M21.5,26.4
			c0.1-0.1,0.1-0.2,0.1-0.3c0-0.6,0-1.2,0-1.8c0-0.4-0.1-0.5-0.5-0.5c-3.4,0-6.7,0-10.1,0c-0.5,0-1.1,0-1.6,0.1
			C7.1,24.1,5.7,26,6.3,28c0.3,1.2,1,2.2,2.1,2.9c2.9,1.8,6.1,2.1,9.4,1c1.8-0.6,2.9-1.8,3.4-3.4C21.4,27.8,21.4,27.1,21.5,26.4z"/>
		
			<linearGradient id="SVGID_00000065792282699253298440000009525111481669593505_" gradientUnits="userSpaceOnUse" x1="9.0674" y1="21.6165" x2="18.5208" y2="21.6165">
			<stop  offset="0" style="stop-color:#FFFFFF"/>
			<stop  offset="1" style="stop-color:#A8A8A8"/>
		</linearGradient>
		<path style="fill:url(#SVGID_00000065792282699253298440000009525111481669593505_);" d="M18.5,21.6c-0.1,0-0.2,0-0.4,0
			c-2.9,0-5.8,0-8.8,0c-0.1,0-0.2,0-0.3-0.1C12.2,21.6,15.4,21.6,18.5,21.6z"/>
		<g>
			
				<linearGradient id="SVGID_00000048499892959867713570000008595370682136188311_" gradientUnits="userSpaceOnUse" x1="13.4541" y1="31.6413" x2="37.5669" y2="31.6413">
				<stop  offset="0" style="stop-color:#FFFFFF"/>
				<stop  offset="1" style="stop-color:#A8A8A8"/>
			</linearGradient>
			<path style="fill:url(#SVGID_00000048499892959867713570000008595370682136188311_);" d="M13.5,42.3c2.5,1.2,4.7,0.4,6.8-1
				c1.5-1,2.4-2.3,3.1-3.8c0.7-1.5,1.2-3.1,1.5-4.8c0.2-1.1,0.2-2.2,0.2-3.3c0-1.6,0-3.2,0-4.7c0-0.5,0.1-0.6,0.6-0.6c2,0,4,0,6,0
				c2.6,0,5-1.6,5.8-3.7c0.1-0.2,0.1-0.5,0.2-0.8c0.1,1.9-0.8,3.4-2.6,4.3c-1.3,0.7-2.7,0.9-4.2,0.9c-1.2,0-2.3,0-3.5-0.1
				c-0.5,0-1,0-1.5,0.1c-0.4,0-0.4,0.2-0.4,0.5c0,1.5,0,2.9,0,4.4c-0.1,2.6-0.2,5.2-1.2,7.7c-0.9,2.2-2.3,4-4.6,5.2
				c-1.5,0.8-3.1,1-4.8,0.6C14.1,43.2,13.6,42.9,13.5,42.3z"/>
			
				<linearGradient id="SVGID_00000023999078076218158340000008800346148589010318_" gradientUnits="userSpaceOnUse" x1="3.6941" y1="33.5264" x2="21.0205" y2="33.5264">
				<stop  offset="0" style="stop-color:#FFFFFF"/>
				<stop  offset="1" style="stop-color:#A8A8A8"/>
			</linearGradient>
			<path style="fill:url(#SVGID_00000023999078076218158340000008800346148589010318_);" d="M3.7,30.8c0.1,0,0.2,0.1,0.3,0.2
				c1.5,2.1,3.8,3.3,6.4,4c2.9,0.7,5.7,0.7,8.5-0.4c0.6-0.2,1.1-0.6,1.6-0.9c0.2-0.1,0.3-0.3,0.6-0.4c-0.1,0.7-0.2,1.3-0.5,1.8
				c-0.1-0.3-0.3-0.2-0.5-0.1c-1.7,0.9-3.6,1.2-5.6,1.2c-3.3,0-6.2-0.8-8.7-2.8C4.8,32.7,4.1,31.9,3.7,30.8z"/>
			
				<linearGradient id="SVGID_00000163777178214635066070000016602450406974863253_" gradientUnits="userSpaceOnUse" x1="10.1537" y1="15.0459" x2="19.2275" y2="15.0459">
				<stop  offset="0" style="stop-color:#FFFFFF"/>
				<stop  offset="1" style="stop-color:#A8A8A8"/>
			</linearGradient>
			<path style="fill:url(#SVGID_00000163777178214635066070000016602450406974863253_);" d="M10.2,16.2c-0.3-1,0.4-2.1,1.8-2.2
				c2.2-0.1,4.5-0.1,6.7-0.1c0.5,0,0.6,0.3,0.3,0.9c-0.1-0.2-0.3-0.2-0.4-0.2c-2,0-4,0-6,0c-1.1,0-2,0.4-2.3,1.4
				C10.3,16.1,10.3,16.1,10.2,16.2z"/>
			
				<linearGradient id="SVGID_00000173141817486729330570000003904807183017316251_" gradientUnits="userSpaceOnUse" x1="34.9408" y1="13.5242" x2="42.9485" y2="13.5242">
				<stop  offset="0" style="stop-color:#FFFFFF"/>
				<stop  offset="1" style="stop-color:#A8A8A8"/>
			</linearGradient>
			<path style="fill:url(#SVGID_00000173141817486729330570000003904807183017316251_);" d="M35.6,14.7c-0.1-0.1-0.2-0.1-0.4-0.2
				c-0.1-0.1-0.3-0.2-0.2-0.4c0.1-0.2,0.3-0.2,0.5-0.2c1.4,0.1,2.8,0.1,4.2,0.1c0.8,0,1.6-0.1,2.3-0.6c0.5-0.3,0.7-0.7,1-1.1
				c0.1,1.1-0.5,1.9-1.8,2.2c-1.2,0.3-2.4,0.2-3.7,0.1C36.9,14.6,36.2,14.5,35.6,14.7z"/>
			
				<linearGradient id="SVGID_00000165232586884190847630000009917771549169886868_" gradientUnits="userSpaceOnUse" x1="7.544" y1="17.7543" x2="12.8049" y2="17.7543">
				<stop  offset="0" style="stop-color:#FFFFFF"/>
				<stop  offset="1" style="stop-color:#A8A8A8"/>
			</linearGradient>
			<path style="fill:url(#SVGID_00000165232586884190847630000009917771549169886868_);" d="M7.5,16.3c0.2,0.2,0.3,0.5,0.5,0.7
				c0.9,1.1,2.7,1.7,4,1.3c0.2-0.1,0.4-0.1,0.4-0.4c0.5,0.4,0.5,0.8-0.1,1c-1.1,0.5-2.7,0.1-3.7-0.9C8.1,17.6,7.5,17.1,7.5,16.3z"/>
			
				<linearGradient id="SVGID_00000117656012152356016330000011684765451325522573_" gradientUnits="userSpaceOnUse" x1="20.8755" y1="9.3547" x2="24.9118" y2="9.3547">
				<stop  offset="0" style="stop-color:#FFFFFF"/>
				<stop  offset="1" style="stop-color:#A8A8A8"/>
			</linearGradient>
			<path style="fill:url(#SVGID_00000117656012152356016330000011684765451325522573_);" d="M21.1,6.8c0,0.1,0,0.2,0,0.3
				c-0.2,1.5,0.5,2.5,1.7,3.4c0.5,0.3,1,0.6,1.5,0.9c0.2,0.1,0.4,0.3,0.6,0.5c-0.5,0-0.9-0.1-1.4-0.1c0.1-0.3-0.2-0.4-0.3-0.5
				c-1.1-0.8-2-1.7-2.2-3C20.9,7.8,20.8,7.3,21.1,6.8z"/>
			
				<linearGradient id="SVGID_00000129890757756041771040000018000067742571533492_" gradientUnits="userSpaceOnUse" x1="6.522" y1="26.2608" x2="21.9158" y2="26.2608">
				<stop  offset="0" style="stop-color:#FFFFFF"/>
				<stop  offset="1" style="stop-color:#A8A8A8"/>
			</linearGradient>
			<path style="fill:url(#SVGID_00000129890757756041771040000018000067742571533492_);" d="M16.7,25c-0.5-0.2-1-0.1-1.6-0.1
				c-1.5,0-3.1-0.1-4.6,0c-2.5,0.2-3.6,1.2-3.8,3.4c-0.6-1.9,0.8-3.9,3.1-4.1c0.5,0,1.1-0.1,1.6-0.1c3.4,0,6.7,0,10.1,0
				c0.4,0,0.5,0.1,0.5,0.5c0,0.6,0,1.2,0,1.8c0,0.1,0,0.2-0.1,0.3c0-0.5,0-0.9,0-1.4c0-0.2-0.1-0.4-0.4-0.4c-0.9,0-1.9,0-2.8,0.1
				c0,0-0.1,0-0.1,0.1C17.9,24.9,17.3,24.9,16.7,25z"/>
			
				<linearGradient id="SVGID_00000114766091527893801550000003238351647210007737_" gradientUnits="userSpaceOnUse" x1="22.1704" y1="17.8338" x2="34.0944" y2="17.8338">
				<stop  offset="0" style="stop-color:#FFFFFF"/>
				<stop  offset="1" style="stop-color:#A8A8A8"/>
			</linearGradient>
			<path style="fill:url(#SVGID_00000114766091527893801550000003238351647210007737_);" d="M34.1,18.2c-0.5-1.4-1.5-2.5-2.9-3.3
				c-0.4-0.2-0.7-0.3-1.2-0.3c-2.4,0.1-4.8,0.1-7.2,0c-0.4,0-0.5,0.1-0.5,0.4c0,2.1,0,4.2,0,6.2c0,0.2,0,0.3,0,0.5
				c-0.1-0.1-0.1-0.3-0.1-0.4c0-2.3,0-4.6,0-6.9c0-0.5,0.1-0.7,0.7-0.6c2,0.1,3.9,0.1,5.9,0c2.7-0.2,5.1,2.3,5.3,3.9
				C34.1,18,34.1,18.1,34.1,18.2z"/>
		</g>
		
			<linearGradient id="SVGID_00000130641912910681316430000005304600706185797278_" gradientUnits="userSpaceOnUse" x1="15.0675" y1="26.2073" x2="19.4229" y2="26.2073">
			<stop  offset="0" style="stop-color:#FFFFFF"/>
			<stop  offset="1" style="stop-color:#A8A8A8"/>
		</linearGradient>
		<path style="fill:url(#SVGID_00000130641912910681316430000005304600706185797278_);" d="M16.3,24.7c0.6-0.1,1.2-0.1,1.8,0
			c0.3,0.3,0.7,0.4,1,0.8c0.3,0.4,0.4,0.9,0.2,1.4c-0.1,0.1-0.1,0.1-0.2,0.2c-0.6,0.7-1.4,0.9-2.3,0.8c-0.7-0.1-1.2-0.5-1.7-0.9
			C14.9,25.8,15.1,25.5,16.3,24.7z"/>
		
			<linearGradient id="SVGID_00000153701970818828520490000017101637966976614036_" gradientUnits="userSpaceOnUse" x1="15.1789" y1="27.6329" x2="19.3917" y2="27.6329">
			<stop  offset="0" style="stop-color:#FFFFFF"/>
			<stop  offset="1" style="stop-color:#A8A8A8"/>
		</linearGradient>
		<path style="fill:url(#SVGID_00000153701970818828520490000017101637966976614036_);" d="M15.2,26.9c0.4,0.5,0.9,0.9,1.7,0.9
			c0.9,0.1,1.7-0.1,2.3-0.8c0.1-0.1,0.1-0.1,0.2-0.2c0.2,0.4,0,0.8-0.3,1.1c-0.9,0.8-2.7,0.7-3.5-0.2C15.3,27.5,15.2,27.2,15.2,26.9
			z"/>
	</g>
</g>
<g>
	<g>
		<g>
			
				<linearGradient id="SVGID_00000025424669315116692700000005031440720833174937_" gradientUnits="userSpaceOnUse" x1="186.4696" y1="33.0598" x2="215.8979" y2="33.0598">
				<stop  offset="0" style="stop-color:#FFFFFF"/>
				<stop  offset="1" style="stop-color:#A8A8A8"/>
			</linearGradient>
			<path style="fill:url(#SVGID_00000025424669315116692700000005031440720833174937_);" d="M215.8,38.6c0.4,1.2-0.1,2.1-0.6,3.1
				c-3.6,0-7.2,0-10.8,0c-3.7-2.8-5.8-6.7-7.3-11c-0.3-0.9-0.5-2-1.8-2c-2.3-0.1-2.5,0.2-2.4,2.5c0.1,1.2,0.1,2.5,0.9,3.6
				c0.6,0.8,0.1,1.1-0.7,1.2c-1.9,0.1-3.8,0.1-5.7,0.1c-0.3,0-0.7-0.1-0.9-0.3c-0.2-0.3,0.1-0.6,0.3-0.8c1.1-1.1,1.3-2.6,1.3-4.1
				c0-2.2,0.1-4.4,0.1-6.6c0.5,0.7,0.1,1.6,0.3,2.2c2.6-0.5,5.2-0.4,7.8-0.1c0.7,0.1,1.4,0.5,1.5,1.4c0.1,0.7,0.5,0.8,1.2,0.5
				c0.4-0.2,0.8-0.2,1.2-0.3c0,0,0,0,0,0c0.1,0.2,0.2,0.4,0.3,0.6c0,0,0,0,0,0c0.1,0.3,0.3,0.5,0.6,0.6c0.2,0.2,0.4,0.4,0.3,0.7
				c-0.2,0-0.6,0-0.6,0.3c0.1,0.4,0.5,0.2,0.8,0.3c1.2,3,2.4,6,5,8.2c1.7,1.5,3.7,2.2,6,1.7c0.8-0.2,1.8-0.4,1.2-1.7
				C214.5,38.7,215,38,215.8,38.6z"/>
			
				<linearGradient id="SVGID_00000047028720185234132670000000180597236092437172_" gradientUnits="userSpaceOnUse" x1="47.5672" y1="32.8759" x2="66.5707" y2="32.8759">
				<stop  offset="0" style="stop-color:#FFFFFF"/>
				<stop  offset="1" style="stop-color:#A8A8A8"/>
			</linearGradient>
			<path style="fill:url(#SVGID_00000047028720185234132670000000180597236092437172_);" d="M55.2,41.8c-1.2-1.8-3.1-2-5-1.7
				c-0.2,0-0.4,0.1-0.6,0.1c-0.7,0-1.6,0.5-2-0.2c-0.3-0.7,0.8-0.8,1.2-1.2c1.4-1.3,2.1-3,2.3-4.8c0.2-2.2,0.2-4.5,0.3-6.8
				c1.1-2.3,3.1-1.9,5.1-1.6c1.6,0.3,3.2,0,4.8-0.8C63,24,64.8,24,66.6,24c-1.1,2.4-3.5,3-5.6,3.9c-1.1,0.4-2.4,0.5-3.6,0.7
				c-0.9,0.1-1.2,0.5-1.2,1.4c0,2.9-0.1,5.9,0,8.8c0,1,0.6,2,0.9,3C56.5,41.8,55.8,41.8,55.2,41.8z"/>
			
				<linearGradient id="SVGID_00000022551638974324650590000011700987973162968752_" gradientUnits="userSpaceOnUse" x1="87.5989" y1="23.0351" x2="108.5202" y2="23.0351">
				<stop  offset="0" style="stop-color:#FFFFFF"/>
				<stop  offset="1" style="stop-color:#A8A8A8"/>
			</linearGradient>
			<path style="fill:url(#SVGID_00000022551638974324650590000011700987973162968752_);" d="M90.2,19c-0.4-2.9-0.7-3.7-2.6-6.1
				c4.4,0.3,8.6-0.5,12.7,0.6c6.4,1.8,9.2,7.7,8,14.1c-0.1,0.7-0.6,1.3-1,1.9c-0.3-0.8-0.5-1.6-0.8-2.6c-0.7,1.4-2,1.9-2.8,3
				c-1.6,2.3-3.9,3-6.5,3.3c-0.6,0.1-1.3,0.2-1.4-0.8c2.1-0.3,4.2-0.5,5.7-2.3c2.5-2.9,2.3-6.6,0.2-10.1c-1.2-2-2.8-2.8-5.1-2.9
				c-1.4-0.1-1.7,0.4-1.6,1.7c0.1,3.3,0,6.6,0,10c-0.7-0.9-0.3-2.2-1-3.1c-0.5,0.5,0,1.6-0.8,1.7c-2.2,0.3-2.9,1.5-2.7,3.5
				c0,0.5-0.2,0.5-0.5,0.2c0-0.4,0-0.8,0.1-1.2C90.5,26.2,90.5,22.6,90.2,19z"/>
			
				<linearGradient id="SVGID_00000048465705853560191640000002975333472832501142_" gradientUnits="userSpaceOnUse" x1="186.8882" y1="20.6158" x2="203.5851" y2="20.6158">
				<stop  offset="0" style="stop-color:#FFFFFF"/>
				<stop  offset="1" style="stop-color:#A8A8A8"/>
			</linearGradient>
			<path style="fill:url(#SVGID_00000048465705853560191640000002975333472832501142_);" d="M200.3,28.2c-0.4,0.1-0.8,0.1-1.2,0.3
				c-0.6,0.3-1.1,0.1-1.2-0.5c-0.1-0.9-0.8-1.4-1.5-1.4c-2.6-0.3-5.2-0.4-7.8,0.1c-0.2-0.6,0.1-1.5-0.3-2.2c0-1.9,0-3.8,0-5.7
				c0-1.6,0-3.2-1-4.6c-0.2-0.3-0.4-0.8-0.2-1.2c0.3-0.4,0.7-0.1,1.1,0c1.7,0.3,3.5,0,5.2,0.1c2.8,0.1,5.5,0.3,7.8,2.4
				c3.3,3.1,3.4,7.1-0.2,9.9c-0.8,0.6-1.2,1.1-0.6,2C200.3,27.6,200.3,27.9,200.3,28.2z M194.7,17.1c-1.6,0-1.6,0-1.6,0.9
				c0,2,0,4,0,6c0,0.3,0,0.6,0.4,0.8c1.3,0.5,4.3-0.7,5-1.9C200.2,19.7,197.8,16.9,194.7,17.1z M190.2,15.2c2.4,0.1,4.7,0.8,7.1,0.3
				C195,15.1,192.6,15.3,190.2,15.2z"/>
			
				<linearGradient id="SVGID_00000038383707322512189110000011168357432913911965_" gradientUnits="userSpaceOnUse" x1="111.8752" y1="21.1888" x2="128.2208" y2="21.1888">
				<stop  offset="0" style="stop-color:#FFFFFF"/>
				<stop  offset="1" style="stop-color:#A8A8A8"/>
			</linearGradient>
			<path style="fill:url(#SVGID_00000038383707322512189110000011168357432913911965_);" d="M111.9,29.7l0.8-2.6
				c0.9-3.3,2.5-6.4,3.2-9.8c0.3-1.7,0.3-3.3-1.6-4.6c4-0.2,7.7,0.5,11.5,0c-2.2,1.6-1.6,3.6-0.9,5.5c1.1,3.4,2.3,6.9,3.5,10.3
				c-0.3,0.5-0.5,0.3-0.6-0.1c-0.2-0.6-0.4-1.3-0.6-2c-0.6-1.9-1.9-2.9-3.8-2.2c-2.2,0.8-4.3,0.6-6.5,0.2c-1-0.2-1.5,0.1-1.8,1
				c-0.2,0.5-0.2,1-0.5,1.5C114,28.2,113.8,29.8,111.9,29.7 M119.2,18.3c-0.7,1.7-1.3,3.2-1.7,4.7c-0.1,0.6-0.1,1,0.5,1
				c0.8,0,1.6,0,2.4,0c0.4,0,0.8-0.3,0.6-0.7C120.5,21.8,120.4,20,119.2,18.3z"/>
			
				<linearGradient id="SVGID_00000160905600535602621500000010879173454047669401_" gradientUnits="userSpaceOnUse" x1="163.9979" y1="20.2764" x2="184.4319" y2="20.2764">
				<stop  offset="0" style="stop-color:#FFFFFF"/>
				<stop  offset="1" style="stop-color:#A8A8A8"/>
			</linearGradient>
			<path style="fill:url(#SVGID_00000160905600535602621500000010879173454047669401_);" d="M171.9,27.8c0-3.1-0.1-6.1-0.1-9.2
				c0-0.8-0.1-1.3-1.1-1.2c-1.9,0.1-3.8,0.8-5.2,2.4c-0.3-2.4-0.5-4.6-1.4-6.7c-0.2-0.5,0.1-0.8,0.7-0.5c0.9,0.5,1.8,0.4,2.8,0.4
				c4.7,0,9.5-0.1,14.2,0c0.9,0,2-0.9,2.6-0.1c0.3,0.5-0.4,1.6-0.7,2.5c0,0.1,0,0.2-0.1,0.3c-0.7,0.8,0.1,2-0.8,2.6
				c-1.1,0.7-1.5-0.8-2.5-0.9c-0.2,0-0.4-0.1-0.6-0.1c-2.9-0.4-3-0.3-3,2.5c0,2.7,0,5.5,0.1,8.2c-1-0.6-0.4-1.6-0.6-2.5
				c-0.1-0.3,0-0.7-0.4-0.7c-0.3,0-0.4,0.3-0.5,0.5c-0.2,0.7-0.8,1.1-1.4,1.1C172.9,26.5,172.4,27.1,171.9,27.8z"/>
			
				<linearGradient id="SVGID_00000168808409856427456370000016916964973810803644_" gradientUnits="userSpaceOnUse" x1="64.2198" y1="30.18" x2="87.3378" y2="30.18">
				<stop  offset="0" style="stop-color:#FFFFFF"/>
				<stop  offset="1" style="stop-color:#A8A8A8"/>
			</linearGradient>
			<path style="fill:url(#SVGID_00000168808409856427456370000016916964973810803644_);" d="M83.7,25.8c1.3,3,1.8,6.2,3.4,9.1
				c0.5,0.8-0.1,1.2-0.8,1.2c-2.1,0-4.2,0-6.3,0c-0.8,0-0.8-0.5-0.5-1c1.3-2.6-0.4-4.8-0.8-7.2c-0.1-0.4-0.4-0.4-0.8-0.4
				c-1.6,0-3.3,0.1-4.9,0.2c-0.7,0-1,0.5-1.1,1.1c-0.6,2.2-1.4,4.3-0.2,6.5c0.2,0.5,0.1,0.8-0.5,0.8c-2.3,0-4.6,0-6.9-0.2
				c1.9-1.7,2.4-4.1,3.4-6.2c0.7-0.2,0.8-1,1.2-1.4c1.3-1.5,2.5-3.1,4.8-3.4c1.5-0.2,3.1-0.1,4.6-0.3C80.2,24.2,82.3,23.6,83.7,25.8
				z"/>
			
				<linearGradient id="SVGID_00000031181206770565612340000001582514607458202244_" gradientUnits="userSpaceOnUse" x1="129.8909" y1="22.4402" x2="149.3317" y2="22.4402">
				<stop  offset="0" style="stop-color:#FFFFFF"/>
				<stop  offset="1" style="stop-color:#A8A8A8"/>
			</linearGradient>
			<path style="fill:url(#SVGID_00000031181206770565612340000001582514607458202244_);" d="M141.6,26.3c0,0.3,0,0.6-0.1,0.8
				c-0.5-0.1-0.4-0.7-0.8-0.9c-0.5,0.9-1.7,1.8-2.3,1.5c-1.7-0.8-1.1,0.5-1.1,1c-0.1,1.2,0,2.4,0,3.6c-0.3-1.6-0.3-3.1-0.3-4.7
				c0-0.6,0.2-1.3-0.6-1.6c0-0.1,0-0.2,0.1-0.4c0.3-0.5,0.2-0.8-0.3-0.9c-1.1-3-2.9-5.7-4.6-8.4c-0.5-0.9-0.9-1.9-1.5-2.9
				c-0.3-0.5,0-0.8,0.5-0.7c2.2,0.4,4.4,0.2,7.1-0.1c-2.3,2.2-0.8,3.9,0,5.6c0.6,1.3,1.4,2.6,2.3,4.1c0.8-3.3,4.1-5.7,2.2-9.6
				c2.5,0.3,4.8,0.6,7.2-0.1c-2.3,3.1-3.8,6.4-5.9,9.5c-0.2,0.1-0.3,0.3-0.4,0.5l-0.1-0.1c0,0,0.1,0.1,0.1,0.1
				c-0.8,0.2-0.9,0.9-1.1,1.5c0.1,0.6-0.1,1.2-0.4,1.7C141.6,26,141.6,26.2,141.6,26.3z"/>
			
				<linearGradient id="SVGID_00000110429238379041759250000015655108587706986403_" gradientUnits="userSpaceOnUse" x1="51.3041" y1="19.9613" x2="67.4128" y2="19.9613">
				<stop  offset="0" style="stop-color:#FFFFFF"/>
				<stop  offset="1" style="stop-color:#A8A8A8"/>
			</linearGradient>
			<path style="fill:url(#SVGID_00000110429238379041759250000015655108587706986403_);" d="M66.6,24c-1.8,0-3.6,0-5.2,0.8
				c-1.6,0.8-3.2,1-4.8,0.8c-2-0.3-4-0.7-5.1,1.6c0-4.5-0.1-9-0.1-13.6c0-0.9,0.2-0.9,1.1-0.8c1.2,0.2,2.4,0.4,3.6,0.3
				c3.3-0.2,6.8-0.3,9.5,2.6C67.5,17.9,68,21.4,66.6,24z M56.4,20.9C56.4,20.9,56.4,20.9,56.4,20.9c0,0.4,0,0.7,0,1.1
				c0,3,0.2,3.1,3.2,2.4c1.4-0.3,2.5-1.1,2.9-2.6c0.4-1.5-0.2-2.8-1.3-3.8c-1.3-1.1-3-1.3-4.5-0.8c-1,0.3-0.2,1.8-0.3,2.7
				C56.4,20.3,56.4,20.6,56.4,20.9z M61.1,15.8c0-0.1,0-0.3,0.1-0.4c-2.7-1.4-5.6-0.5-8.4-0.7c-0.3,0-0.5,0.2-0.5,0.5
				c0.1,0.5,0.5,0.7,0.9,0.6c0.9-0.2,1.8,0,2.6,0C57.6,15.8,59.4,15.8,61.1,15.8z"/>
			
				<linearGradient id="SVGID_00000069386971392397597990000007343416866107227567_" gradientUnits="userSpaceOnUse" x1="205.3625" y1="29.9752" x2="227.673" y2="29.9752">
				<stop  offset="0" style="stop-color:#FFFFFF"/>
				<stop  offset="1" style="stop-color:#A8A8A8"/>
			</linearGradient>
			<path style="fill:url(#SVGID_00000069386971392397597990000007343416866107227567_);" d="M222.8,23.7c0.5,0.3,0.7,0.8,0.8,1.3
				c1.2,3.6,2.2,7.3,4.1,11c-2.6,0.2-5.1,0.3-7.5,0.1c-0.8,0-0.6-0.6-0.3-1c1.7-2.6,0.4-5.2-0.8-7.2c-0.9-1.4-3.4-0.3-5.2-0.3
				c-0.9,0-0.9,0.7-1.2,1.4c-1.1,2.4-1.2,4.7,0.5,7.1c-2.5,0.2-4.7,0.2-6.9,0c-1-0.1-1.1-0.4-0.4-1.1c0.3-0.3,0.5-0.8,0.8-1.1
				c0.9,0.1,0.9-0.7,1-1.1c0.5-1.4,1.3-2.6,2.5-3.5c0.8-0.6,1.4-1.4,1-2.6c-0.2-0.7,0.3-1.2,0.9-1.5c0.9-0.4,1.8-0.8,2.8-0.8
				c2.6,0.1,5.2,0,7.8,0c0,0,0.1,0.1,0.1,0.1l-0.1-0.1C222.8,24.2,222.8,23.9,222.8,23.7z"/>
			
				<linearGradient id="SVGID_00000068639090048932770550000016575856596996196772_" gradientUnits="userSpaceOnUse" x1="109.1626" y1="30.0998" x2="131.2008" y2="30.0998">
				<stop  offset="0" style="stop-color:#FFFFFF"/>
				<stop  offset="1" style="stop-color:#A8A8A8"/>
			</linearGradient>
			<path style="fill:url(#SVGID_00000068639090048932770550000016575856596996196772_);" d="M111.9,29.7c1.9,0.1,2.1-1.5,2.7-2.7
				c0.2-0.5,0.3-1,0.5-1.5c0.3-0.9,0.8-1.2,1.8-1c2.2,0.4,4.3,0.6,6.5-0.2c1.9-0.7,3.2,0.2,3.8,2.2c0.2,0.6,0.4,1.3,0.6,2
				c0.1,0.3,0.3,0.6,0.6,0.1c1,2.2,1.6,4.5,2.8,6.6c0.4,0.8-0.1,0.9-0.7,0.9c-2.2,0.1-4.4,0.1-6.6,0.1c-0.7,0-1-0.3-0.4-0.9
				c1-1,0.9-2.2,0.7-3.4c-0.2-1.3-1-2.4-1.1-3.7c0-0.7-0.6-0.7-1.2-0.7c-1.1,0-2.2,0.1-3.3,0c-1.7-0.2-2.4,0.7-2.7,2.1
				c-0.4,1.8-0.9,3.6,0,5.4c0.4,0.7,0.2,1.2-0.8,1.2c-1.6-0.1-3.2-0.1-4.7-0.1c-0.8,0-1.2-0.2-0.7-1.1
				C110.5,33.3,111,31.4,111.9,29.7z"/>
			
				<linearGradient id="SVGID_00000044882981417691452000000003794293568798550179_" gradientUnits="userSpaceOnUse" x1="146.0432" y1="23.6854" x2="163.3727" y2="23.6854">
				<stop  offset="0" style="stop-color:#FFFFFF"/>
				<stop  offset="1" style="stop-color:#A8A8A8"/>
			</linearGradient>
			<path style="fill:url(#SVGID_00000044882981417691452000000003794293568798550179_);" d="M146,34.8c2.4-4.4,3.5-9.4,5.4-14
				c0.2-0.6,0.4-1.1,0.7-1.7c0.9-2.2,1-4.3-0.7-6.3c3.5,0.2,6.8,0.3,10.2-0.2c0.1,0.5-0.1,0.8-0.4,1.1c-0.7,0.8-0.8,1.6-0.4,2.6
				c0.9,2.6,1.7,5.2,2.6,7.8c-0.8,0.5-1.7,0.7-2.7,0.6c-2-0.1-4.1-0.1-6.1,0c-2.4,0.1-2.8,0.5-3.5,2.8c-0.2,0.8-0.4,1.7-1.2,2.1
				c-0.8,0.3-1,0.9-1.3,1.6C148,32.6,147.7,34.2,146,34.8z M158,23.8c-0.9-1.9-0.9-3.8-1.9-5.6c-0.7,1.8-1.3,3.4-2,4.9
				c-0.3,0.6-0.1,0.8,0.5,0.7C155.7,23.8,156.8,23.8,158,23.8z"/>
			
				<linearGradient id="SVGID_00000012460014296920761930000014372755116850140861_" gradientUnits="userSpaceOnUse" x1="145.8543" y1="30.0818" x2="167.6392" y2="30.0818">
				<stop  offset="0" style="stop-color:#FFFFFF"/>
				<stop  offset="1" style="stop-color:#A8A8A8"/>
			</linearGradient>
			<path style="fill:url(#SVGID_00000012460014296920761930000014372755116850140861_);" d="M146,34.8c1.7-0.6,1.9-2.2,2.5-3.6
				c0.3-0.7,0.5-1.3,1.3-1.6c0.8-0.3,1-1.3,1.2-2.1c0.7-2.3,1.1-2.7,3.5-2.8c2-0.1,4.1-0.1,6.1,0c1,0,1.9-0.2,2.7-0.6
				c1.3,2.5,1.7,5.3,2.8,7.8c0.4,1,0.9,2,1.3,3c0.3,0.7,0.1,1.1-0.7,1.1c-1.9,0-3.8,0-5.7,0.1c-0.7,0-0.9-0.1-0.6-0.9
				c1.1-2.6-0.1-4.9-1.1-7.2c-0.4-1-6.2-0.7-6.6,0.4c-1,2.4-1.9,4.9,0.2,7.5c-2.3,0.4-4.4,0.3-6.6,0.2C145.6,36,145.9,35.3,146,34.8
				z"/>
			
				<linearGradient id="SVGID_00000071518047081973876340000004508686188456314501_" gradientUnits="userSpaceOnUse" x1="67.6132" y1="21.1938" x2="83.7167" y2="21.1938">
				<stop  offset="0" style="stop-color:#FFFFFF"/>
				<stop  offset="1" style="stop-color:#A8A8A8"/>
			</linearGradient>
			<path style="fill:url(#SVGID_00000071518047081973876340000004508686188456314501_);" d="M83.7,25.8c-1.5-2.2-3.5-1.6-5.6-1.3
				c-1.5,0.2-3,0.1-4.6,0.3c-2.3,0.3-3.5,1.9-4.8,3.4c-0.4,0.5-0.4,1.2-1.2,1.4c1.1-3.5,2.5-6.8,3.5-10.3c0.7-2.4,1-4.6-1-6.6
				c3.9,0,7.6,0.4,11.7-0.2c-2.8,2.9-0.7,5.4,0.1,8C82.4,22.4,83.1,24.1,83.7,25.8z M75.3,18.3c-0.8,1.5-1.4,2.9-1.8,4.5
				c-0.2,0.7-0.4,1.4,0.7,1.2c1.2-0.2,2.6,0.8,3.4-0.8c0,0,0-0.1,0-0.2C76.4,21.8,76.6,19.8,75.3,18.3z"/>
			
				<linearGradient id="SVGID_00000145021579996713506330000010983233098033175458_" gradientUnits="userSpaceOnUse" x1="206.6309" y1="23.3929" x2="222.7913" y2="23.3929">
				<stop  offset="0" style="stop-color:#FFFFFF"/>
				<stop  offset="1" style="stop-color:#A8A8A8"/>
			</linearGradient>
			<path style="fill:url(#SVGID_00000145021579996713506330000010983233098033175458_);" d="M222.8,24.4c-2.6,0-5.2,0.1-7.8,0
				c-1.1,0-1.9,0.4-2.8,0.8c-0.6,0.3-1.1,0.8-0.9,1.5c0.4,1.2-0.2,1.9-1,2.6c-1.2,0.9-2,2.1-2.5,3.5c-0.2,0.4-0.2,1.2-1,1.1
				c1.8-4.7,3.7-9.4,5.2-14.3c0.3-1,0.5-2,0.8-3c0.3-1.5-0.5-2.6-1.2-3.6c3,0,6,0,8.9,0c0.6,0,0.8,0.2,0.6,0.8
				c-0.8,1.9,0.1,3.6,0.6,5.3c0.5,1.5,1.2,3,1.3,4.7C222.8,23.9,222.8,24.2,222.8,24.4L222.8,24.4z M217.6,23.7
				c-0.3-1.8-1-3.4-1.7-5.4c-1,1.8-1.5,3.6-1.9,5.4C215.2,23.7,216.3,23.7,217.6,23.7z"/>
			
				<linearGradient id="SVGID_00000095313570599337219660000015056847659719392672_" gradientUnits="userSpaceOnUse" x1="88.2891" y1="30.9017" x2="107.2611" y2="30.9017">
				<stop  offset="0" style="stop-color:#FFFFFF"/>
				<stop  offset="1" style="stop-color:#A8A8A8"/>
			</linearGradient>
			<path style="fill:url(#SVGID_00000095313570599337219660000015056847659719392672_);" d="M95.8,32.3c0,1,0.8,0.9,1.4,0.8
				c2.6-0.3,4.9-1.1,6.5-3.3c0.7-1.1,2.1-1.6,2.8-3c0.3,1,0.6,1.8,0.8,2.6c0,0,0,0,0,0c-0.1,0.1-0.2,0.2-0.3,0.4
				c-1.6,3.8-4.7,5.4-8.5,6c-3,0.5-6.1,0.4-9.2,0.3c-1,0-1.3-0.3-0.6-1.2c0.9-1.2,1.2-2.5,1.5-3.9c0.3,0.3,0.6,0.3,0.5-0.2
				c-0.2-2,0.6-3.2,2.7-3.5c0.8-0.1,0.2-1.1,0.8-1.7c0.7,1,0.3,2.2,1,3.1C95.6,29.9,94.8,31.3,95.8,32.3z"/>
			
				<linearGradient id="SVGID_00000117679056577205946100000006752550138773689272_" gradientUnits="userSpaceOnUse" x1="169.864" y1="30.5235" x2="178.4714" y2="30.5235">
				<stop  offset="0" style="stop-color:#FFFFFF"/>
				<stop  offset="1" style="stop-color:#A8A8A8"/>
			</linearGradient>
			<path style="fill:url(#SVGID_00000117679056577205946100000006752550138773689272_);" d="M171.9,27.8c0.5-0.7,1-1.3,2-1.3
				c0.6,0,1.2-0.4,1.4-1.1c0.1-0.2,0.2-0.6,0.5-0.5c0.4,0,0.4,0.4,0.4,0.7c0.2,0.8-0.4,1.8,0.6,2.5c0.1,1.5,0.3,3,0.4,4.5
				c0,0.8,0.2,1.5,0.8,2.1c0.8,0.8,0.6,1.3-0.6,1.3c-2.4,0-4.8,0.2-7.6-0.1C171.8,33.5,171.9,30.6,171.9,27.8z"/>
			
				<linearGradient id="SVGID_00000109031286353393541870000008146138571653953922_" gradientUnits="userSpaceOnUse" x1="135.0152" y1="31.0696" x2="143.108" y2="31.0696">
				<stop  offset="0" style="stop-color:#FFFFFF"/>
				<stop  offset="1" style="stop-color:#A8A8A8"/>
			</linearGradient>
			<path style="fill:url(#SVGID_00000109031286353393541870000008146138571653953922_);" d="M136.3,26c0.8,0.3,0.6,1.1,0.6,1.6
				c0,1.6,0,3.1,0.3,4.7c0-1.2-0.1-2.4,0-3.6c0-0.5-0.5-1.9,1.1-1c0.6,0.3,1.7-0.6,2.3-1.5c0.5,0.2,0.3,0.8,0.8,0.9
				c0.2,2.8-0.3,5.7,1.5,8.3c0.3,0.5-0.1,0.6-0.5,0.6c-2.3,0.2-4.5,0.1-6.8,0c-0.4,0-0.9-0.2-0.6-0.6
				C137.2,32.5,136.8,29.2,136.3,26z"/>
			
				<linearGradient id="SVGID_00000168077985846163177020000001296905308186538886_" gradientUnits="userSpaceOnUse" x1="232.383" y1="23.1182" x2="232.383" y2="23.1182">
				<stop  offset="0" style="stop-color:#FFFFFF"/>
				<stop  offset="1" style="stop-color:#A8A8A8"/>
			</linearGradient>
			<path style="fill:url(#SVGID_00000168077985846163177020000001296905308186538886_);" d="M232.4,23.1"/>
			
				<linearGradient id="SVGID_00000033351995981234487350000005657281984748440212_" gradientUnits="userSpaceOnUse" x1="90.153" y1="24.3621" x2="90.4423" y2="24.3621">
				<stop  offset="0" style="stop-color:#FFFFFF"/>
				<stop  offset="1" style="stop-color:#A8A8A8"/>
			</linearGradient>
			<path style="fill:url(#SVGID_00000033351995981234487350000005657281984748440212_);" d="M90.2,19c0.4,3.6,0.4,7.2,0,10.8
				C90.2,26.2,90.2,22.6,90.2,19z"/>
			
				<linearGradient id="SVGID_00000069361454628048835440000015039194087429566593_" gradientUnits="userSpaceOnUse" x1="213.2596" y1="38.1578" x2="215.7518" y2="38.1578">
				<stop  offset="0" style="stop-color:#FFFFFF"/>
				<stop  offset="1" style="stop-color:#A8A8A8"/>
			</linearGradient>
			<path style="fill:url(#SVGID_00000069361454628048835440000015039194087429566593_);" d="M215.8,38.6c-0.7-0.6-1.3,0-1.9,0.3
				c-0.8-0.1-0.6-1.1-0.4-1c0.7,0.1,1.4-1.1,2.1-0.1C215.7,38,215.7,38.3,215.8,38.6z"/>
			
				<linearGradient id="SVGID_00000072991946343616524130000018270434896778981011_" gradientUnits="userSpaceOnUse" x1="224.565" y1="41.0148" x2="224.565" y2="41.0148">
				<stop  offset="0" style="stop-color:#FFFFFF"/>
				<stop  offset="1" style="stop-color:#A8A8A8"/>
			</linearGradient>
			<path style="fill:url(#SVGID_00000072991946343616524130000018270434896778981011_);" d="M224.6,41"/>
			
				<linearGradient id="SVGID_00000078740874778919075540000012736264769109690499_" gradientUnits="userSpaceOnUse" x1="138.9967" y1="23.3749" x2="140.0971" y2="23.3749">
				<stop  offset="0" style="stop-color:#FFFFFF"/>
				<stop  offset="1" style="stop-color:#A8A8A8"/>
			</linearGradient>
			<path style="fill:url(#SVGID_00000078740874778919075540000012736264769109690499_);" d="M139,24.1c0.2-0.7,0.3-1.4,1.1-1.5
				C139.8,23.2,139.7,23.9,139,24.1z"/>
			
				<linearGradient id="SVGID_00000114072906264505811410000008988394047677983619_" gradientUnits="userSpaceOnUse" x1="200.952" y1="30.3899" x2="201.7235" y2="30.3899">
				<stop  offset="0" style="stop-color:#FFFFFF"/>
				<stop  offset="1" style="stop-color:#A8A8A8"/>
			</linearGradient>
			<path style="fill:url(#SVGID_00000114072906264505811410000008988394047677983619_);" d="M201.7,30.7c-0.3,0-0.7,0.1-0.8-0.3
				c-0.1-0.3,0.3-0.3,0.6-0.3C201.6,30.3,201.7,30.5,201.7,30.7z"/>
			
				<linearGradient id="SVGID_00000048483882767788760500000011812400954249079428_" gradientUnits="userSpaceOnUse" x1="133.0337" y1="25.1449" x2="133.5785" y2="25.1449">
				<stop  offset="0" style="stop-color:#FFFFFF"/>
				<stop  offset="1" style="stop-color:#A8A8A8"/>
			</linearGradient>
			<path style="fill:url(#SVGID_00000048483882767788760500000011812400954249079428_);" d="M133.1,24.7c0.5,0.2,0.7,0.5,0.3,0.9
				C133.4,25.3,132.9,25.1,133.1,24.7z"/>
			
				<linearGradient id="SVGID_00000097477995671773014730000007069094392183199665_" gradientUnits="userSpaceOnUse" x1="200.6149" y1="29.0796" x2="201.2204" y2="29.0796">
				<stop  offset="0" style="stop-color:#FFFFFF"/>
				<stop  offset="1" style="stop-color:#A8A8A8"/>
			</linearGradient>
			<path style="fill:url(#SVGID_00000097477995671773014730000007069094392183199665_);" d="M201.2,29.4c-0.3-0.1-0.5-0.2-0.6-0.6
				c0.1,0,0.3,0,0.4,0C201.1,29,201.2,29.2,201.2,29.4z"/>
			
				<linearGradient id="SVGID_00000041268571746200413550000000924475072900613808_" gradientUnits="userSpaceOnUse" x1="200.2631" y1="27.72" x2="200.6982" y2="27.72">
				<stop  offset="0" style="stop-color:#FFFFFF"/>
				<stop  offset="1" style="stop-color:#A8A8A8"/>
			</linearGradient>
			<path style="fill:url(#SVGID_00000041268571746200413550000000924475072900613808_);" d="M200.3,28.2c0-0.3,0-0.6,0-0.9
				c0.3,0.2,0.4,0.5,0.4,0.9C200.6,28.2,200.4,28.2,200.3,28.2L200.3,28.2z"/>
			
				<linearGradient id="SVGID_00000041987710414560571810000015582360381858925994_" gradientUnits="userSpaceOnUse" x1="200.6149" y1="28.5325" x2="201.026" y2="28.5325">
				<stop  offset="0" style="stop-color:#FFFFFF"/>
				<stop  offset="1" style="stop-color:#A8A8A8"/>
			</linearGradient>
			<path style="fill:url(#SVGID_00000041987710414560571810000015582360381858925994_);" d="M201,28.8c-0.1,0-0.3,0-0.4,0
				c0,0,0,0,0,0c0-0.2,0.1-0.4,0.1-0.6C200.9,28.4,201,28.6,201,28.8z"/>
			
				<linearGradient id="SVGID_00000088829762003785937150000006184086671010128297_" gradientUnits="userSpaceOnUse" x1="140.0885" y1="22.35" x2="140.4625" y2="22.35">
				<stop  offset="0" style="stop-color:#FFFFFF"/>
				<stop  offset="1" style="stop-color:#A8A8A8"/>
			</linearGradient>
			<path style="fill:url(#SVGID_00000088829762003785937150000006184086671010128297_);" d="M140.1,22.6c0-0.2,0.1-0.4,0.4-0.5
				C140.3,22.3,140.2,22.4,140.1,22.6z"/>
			
				<linearGradient id="SVGID_00000022519923728118227330000014262043793249995174_" gradientUnits="userSpaceOnUse" x1="200.2946" y1="28.4737" x2="200.7317" y2="28.4737">
				<stop  offset="0" style="stop-color:#FFFFFF"/>
				<stop  offset="1" style="stop-color:#A8A8A8"/>
			</linearGradient>
			<path style="fill:url(#SVGID_00000022519923728118227330000014262043793249995174_);" d="M200.7,28.2c0,0.2-0.1,0.4-0.1,0.6
				c-0.1-0.2-0.2-0.4-0.3-0.6C200.4,28.2,200.6,28.2,200.7,28.2C200.7,28.2,200.7,28.2,200.7,28.2z"/>
			
				<linearGradient id="SVGID_00000170250184327688891810000000666452661541603469_" gradientUnits="userSpaceOnUse" x1="106.9566" y1="29.6219" x2="107.232" y2="29.6219">
				<stop  offset="0" style="stop-color:#FFFFFF"/>
				<stop  offset="1" style="stop-color:#A8A8A8"/>
			</linearGradient>
			<path style="fill:url(#SVGID_00000170250184327688891810000000666452661541603469_);" d="M107,29.8c0.1-0.1,0.2-0.2,0.3-0.4
				C107.2,29.6,107.2,29.8,107,29.8z"/>
			
				<linearGradient id="SVGID_00000152223690503279563380000005943513253444331677_" gradientUnits="userSpaceOnUse" x1="138.5804" y1="26.0919" x2="138.6355" y2="26.0919">
				<stop  offset="0" style="stop-color:#FFFFFF"/>
				<stop  offset="1" style="stop-color:#A8A8A8"/>
			</linearGradient>
			<path style="fill:url(#SVGID_00000152223690503279563380000005943513253444331677_);" d="M138.6,26.3c0-0.1,0-0.3,0.1-0.4
				C138.6,26,138.6,26.2,138.6,26.3z"/>
			
				<linearGradient id="SVGID_00000167394814842648666840000012378170941295110070_" gradientUnits="userSpaceOnUse" x1="190.2457" y1="15.4429" x2="197.3598" y2="15.4429">
				<stop  offset="0" style="stop-color:#FFFFFF"/>
				<stop  offset="1" style="stop-color:#A8A8A8"/>
			</linearGradient>
			<path style="fill:url(#SVGID_00000167394814842648666840000012378170941295110070_);" d="M190.2,15.2c2.4,0.2,4.7-0.1,7.1,0.3
				C195,16,192.6,15.3,190.2,15.2z"/>
			
				<linearGradient id="SVGID_00000066486552204888869280000002657171579777301895_" gradientUnits="userSpaceOnUse" x1="52.2799" y1="15.1558" x2="61.1755" y2="15.1558">
				<stop  offset="0" style="stop-color:#FFFFFF"/>
				<stop  offset="1" style="stop-color:#A8A8A8"/>
			</linearGradient>
			<path style="fill:url(#SVGID_00000066486552204888869280000002657171579777301895_);" d="M61.1,15.8c-1.8,0-3.5,0.1-5.3,0
				c-0.9,0-1.7-0.3-2.6,0c-0.4,0.1-0.8-0.1-0.9-0.6c0-0.3,0.2-0.5,0.5-0.5c2.8,0.2,5.7-0.7,8.4,0.7C61.2,15.5,61.1,15.6,61.1,15.8z"
				/>
			
				<linearGradient id="SVGID_00000054952285149960842810000002062183034979297679_" gradientUnits="userSpaceOnUse" x1="222.784" y1="24.3914" x2="222.8483" y2="24.3914">
				<stop  offset="0" style="stop-color:#FFFFFF"/>
				<stop  offset="1" style="stop-color:#A8A8A8"/>
			</linearGradient>
			<polygon style="fill:url(#SVGID_00000054952285149960842810000002062183034979297679_);" points="222.8,24.4 222.8,24.4 
				222.8,24.4 			"/>
		</g>
	</g>
	<g>
		<g>
			
				<linearGradient id="SVGID_00000165215411905619742370000007197087258558778547_" gradientUnits="userSpaceOnUse" x1="184.7908" y1="32.0243" x2="214.2192" y2="32.0243">
				<stop  offset="0" style="stop-color:#FFFFFF"/>
				<stop  offset="1" style="stop-color:#A8A8A8"/>
			</linearGradient>
			<path style="fill:url(#SVGID_00000165215411905619742370000007197087258558778547_);" d="M214.1,37.6c0.4,1.2-0.1,2.1-0.6,3.1
				c-3.6,0-7.2,0-10.8,0c-3.7-2.8-5.8-6.7-7.3-11c-0.3-0.9-0.5-2-1.8-2c-2.3-0.1-2.5,0.2-2.4,2.5c0.1,1.2,0.1,2.5,0.9,3.6
				c0.6,0.8,0.1,1.1-0.7,1.2c-1.9,0.1-3.8,0.1-5.7,0.1c-0.3,0-0.7-0.1-0.9-0.3c-0.2-0.3,0.1-0.6,0.3-0.8c1.1-1.1,1.3-2.6,1.3-4.1
				c0-2.2,0.1-4.4,0.1-6.6c0.5,0.7,0.1,1.6,0.3,2.2c2.6-0.5,5.2-0.4,7.8-0.1c0.7,0.1,1.4,0.5,1.5,1.4c0.1,0.7,0.5,0.8,1.2,0.5
				c0.4-0.2,0.8-0.2,1.2-0.3c0,0,0,0,0,0c0.1,0.2,0.2,0.4,0.3,0.6c0,0,0,0,0,0c0.1,0.3,0.3,0.5,0.6,0.6c0.2,0.2,0.4,0.4,0.3,0.7
				c-0.2,0-0.6,0-0.6,0.3c0.1,0.4,0.5,0.2,0.8,0.3c1.2,3,2.4,6,5,8.2c1.7,1.5,3.7,2.2,6,1.7c0.8-0.2,1.8-0.4,1.2-1.7
				C212.8,37.6,213.3,37,214.1,37.6z"/>
			
				<linearGradient id="SVGID_00000129195450328445033500000018323899795152866965_" gradientUnits="userSpaceOnUse" x1="45.8884" y1="31.8404" x2="64.892" y2="31.8404">
				<stop  offset="0" style="stop-color:#FFFFFF"/>
				<stop  offset="1" style="stop-color:#A8A8A8"/>
			</linearGradient>
			<path style="fill:url(#SVGID_00000129195450328445033500000018323899795152866965_);" d="M53.5,40.7c-1.2-1.8-3.1-2-5-1.7
				c-0.2,0-0.4,0.1-0.6,0.1c-0.7,0-1.6,0.5-2-0.2c-0.3-0.7,0.8-0.8,1.2-1.2c1.4-1.3,2.1-3,2.3-4.8c0.2-2.2,0.2-4.5,0.3-6.8
				c1.1-2.3,3.1-1.9,5.1-1.6c1.6,0.3,3.2,0,4.8-0.8c1.5-0.7,3.4-0.8,5.2-0.8c-1.1,2.4-3.5,3-5.6,3.9c-1.1,0.4-2.4,0.5-3.6,0.7
				c-0.9,0.1-1.2,0.5-1.2,1.4c0,2.9-0.1,5.9,0,8.8c0,1,0.6,2,0.9,3C54.8,40.7,54.2,40.7,53.5,40.7z"/>
			
				<linearGradient id="SVGID_00000093151658195753795930000006476224992579159729_" gradientUnits="userSpaceOnUse" x1="85.9202" y1="21.9996" x2="106.8415" y2="21.9996">
				<stop  offset="0" style="stop-color:#FFFFFF"/>
				<stop  offset="1" style="stop-color:#A8A8A8"/>
			</linearGradient>
			<path style="fill:url(#SVGID_00000093151658195753795930000006476224992579159729_);" d="M88.5,18c-0.4-2.9-0.7-3.7-2.6-6.1
				c4.4,0.3,8.6-0.5,12.7,0.6c6.4,1.8,9.2,7.7,8,14.1c-0.1,0.7-0.6,1.3-1,1.9c-0.3-0.8-0.5-1.6-0.8-2.6c-0.7,1.4-2,1.9-2.8,3
				c-1.6,2.3-3.9,3-6.5,3.3c-0.6,0.1-1.3,0.2-1.4-0.8c2.1-0.3,4.2-0.5,5.7-2.3c2.5-2.9,2.3-6.6,0.2-10.1c-1.2-2-2.8-2.8-5.1-2.9
				c-1.4-0.1-1.7,0.4-1.6,1.7c0.1,3.3,0,6.6,0,10c-0.7-0.9-0.3-2.2-1-3.1c-0.5,0.5,0,1.6-0.8,1.7c-2.2,0.3-2.9,1.5-2.7,3.5
				c0,0.5-0.2,0.5-0.5,0.2c0-0.4,0-0.8,0.1-1.2C88.8,25.1,88.9,21.5,88.5,18z"/>
			
				<linearGradient id="SVGID_00000068656262097131919660000014243022304654503069_" gradientUnits="userSpaceOnUse" x1="185.2095" y1="19.5804" x2="201.9064" y2="19.5804">
				<stop  offset="0" style="stop-color:#FFFFFF"/>
				<stop  offset="1" style="stop-color:#A8A8A8"/>
			</linearGradient>
			<path style="fill:url(#SVGID_00000068656262097131919660000014243022304654503069_);" d="M198.6,27.1c-0.4,0.1-0.8,0.1-1.2,0.3
				c-0.6,0.3-1.1,0.1-1.2-0.5c-0.1-0.9-0.8-1.4-1.5-1.4c-2.6-0.3-5.2-0.4-7.8,0.1c-0.2-0.6,0.1-1.5-0.3-2.2c0-1.9,0-3.8,0-5.7
				c0-1.6,0-3.2-1-4.6c-0.2-0.3-0.4-0.8-0.2-1.2c0.3-0.4,0.7-0.1,1.1,0c1.7,0.3,3.5,0,5.2,0.1c2.8,0.1,5.5,0.3,7.8,2.4
				c3.3,3.1,3.4,7.1-0.2,9.9c-0.8,0.6-1.2,1.1-0.6,2C198.6,26.5,198.6,26.8,198.6,27.1z M193,16.1c-1.6,0-1.6,0-1.6,0.9c0,2,0,4,0,6
				c0,0.3,0,0.6,0.4,0.8c1.3,0.5,4.3-0.7,5-1.9C198.5,18.7,196.2,15.9,193,16.1z M188.6,14.2c2.4,0.1,4.7,0.8,7.1,0.3
				C193.3,14,190.9,14.3,188.6,14.2z"/>
			
				<linearGradient id="SVGID_00000128475993861679903090000006495336763098374326_" gradientUnits="userSpaceOnUse" x1="110.1964" y1="20.1534" x2="126.5421" y2="20.1534">
				<stop  offset="0" style="stop-color:#FFFFFF"/>
				<stop  offset="1" style="stop-color:#A8A8A8"/>
			</linearGradient>
			<path style="fill:url(#SVGID_00000128475993861679903090000006495336763098374326_);" d="M110.2,28.7l0.8-2.6
				c0.9-3.3,2.5-6.4,3.2-9.8c0.3-1.7,0.3-3.3-1.6-4.6c4-0.2,7.7,0.5,11.5,0c-2.2,1.6-1.6,3.6-0.9,5.5c1.1,3.4,2.3,6.9,3.5,10.3
				c-0.3,0.5-0.5,0.3-0.6-0.1c-0.2-0.6-0.4-1.3-0.6-2c-0.6-1.9-1.9-2.9-3.8-2.2c-2.2,0.8-4.3,0.6-6.5,0.2c-1-0.2-1.5,0.1-1.8,1
				c-0.2,0.5-0.2,1-0.5,1.5C112.3,27.1,112.1,28.8,110.2,28.7 M117.6,17.3c-0.7,1.7-1.3,3.2-1.7,4.7c-0.1,0.6-0.1,1,0.5,1
				c0.8,0,1.6,0,2.4,0c0.4,0,0.8-0.3,0.6-0.7C118.8,20.7,118.7,18.9,117.6,17.3z"/>
			
				<linearGradient id="SVGID_00000133525696506034871800000014212188062656521088_" gradientUnits="userSpaceOnUse" x1="162.3192" y1="19.2409" x2="182.7532" y2="19.2409">
				<stop  offset="0" style="stop-color:#FFFFFF"/>
				<stop  offset="1" style="stop-color:#A8A8A8"/>
			</linearGradient>
			<path style="fill:url(#SVGID_00000133525696506034871800000014212188062656521088_);" d="M170.2,26.7c0-3.1-0.1-6.1-0.1-9.2
				c0-0.8-0.1-1.3-1.1-1.2c-1.9,0.1-3.8,0.8-5.2,2.4c-0.3-2.4-0.5-4.6-1.4-6.7c-0.2-0.5,0.1-0.8,0.7-0.5c0.9,0.5,1.8,0.4,2.8,0.4
				c4.7,0,9.5-0.1,14.2,0c0.9,0,2-0.9,2.6-0.1c0.3,0.5-0.4,1.6-0.7,2.5c0,0.1,0,0.2-0.1,0.3c-0.7,0.8,0.1,2-0.8,2.6
				c-1.1,0.7-1.5-0.8-2.5-0.9c-0.2,0-0.4-0.1-0.6-0.1c-2.9-0.4-3-0.3-3,2.5c0,2.7,0,5.5,0.1,8.2c-1-0.6-0.4-1.6-0.6-2.5
				c-0.1-0.3,0-0.7-0.4-0.7c-0.3,0-0.4,0.3-0.5,0.5c-0.2,0.7-0.8,1.1-1.4,1.1C171.3,25.5,170.7,26.1,170.2,26.7z"/>
			
				<linearGradient id="SVGID_00000118389712666903721530000005141154258999218097_" gradientUnits="userSpaceOnUse" x1="62.5411" y1="29.1445" x2="85.6591" y2="29.1445">
				<stop  offset="0" style="stop-color:#FFFFFF"/>
				<stop  offset="1" style="stop-color:#A8A8A8"/>
			</linearGradient>
			<path style="fill:url(#SVGID_00000118389712666903721530000005141154258999218097_);" d="M82,24.8c1.3,3,1.8,6.2,3.4,9.1
				c0.5,0.8-0.1,1.2-0.8,1.2c-2.1,0-4.2,0-6.3,0c-0.8,0-0.8-0.5-0.5-1c1.3-2.6-0.4-4.8-0.8-7.2c-0.1-0.4-0.4-0.4-0.8-0.4
				c-1.6,0-3.3,0.1-4.9,0.2c-0.7,0-1,0.5-1.1,1.1c-0.6,2.2-1.4,4.3-0.2,6.5c0.2,0.5,0.1,0.8-0.5,0.8c-2.3,0-4.6,0-6.9-0.2
				c1.9-1.7,2.4-4.1,3.4-6.2c0.7-0.2,0.8-1,1.2-1.4c1.3-1.5,2.5-3.1,4.8-3.4c1.5-0.2,3.1-0.1,4.6-0.3C78.5,23.2,80.6,22.6,82,24.8z"
				/>
			
				<linearGradient id="SVGID_00000023982874365080754600000001188964619189991325_" gradientUnits="userSpaceOnUse" x1="128.2122" y1="21.4047" x2="147.653" y2="21.4047">
				<stop  offset="0" style="stop-color:#FFFFFF"/>
				<stop  offset="1" style="stop-color:#A8A8A8"/>
			</linearGradient>
			<path style="fill:url(#SVGID_00000023982874365080754600000001188964619189991325_);" d="M139.9,25.3c0,0.3,0,0.6-0.1,0.8
				c-0.5-0.1-0.4-0.7-0.8-0.9c-0.5,0.9-1.7,1.8-2.3,1.5c-1.7-0.8-1.1,0.5-1.1,1c-0.1,1.2,0,2.4,0,3.6c-0.3-1.6-0.3-3.1-0.3-4.7
				c0-0.6,0.2-1.3-0.6-1.6c0-0.1,0-0.2,0.1-0.4c0.3-0.5,0.2-0.8-0.3-0.9c-1.1-3-2.9-5.7-4.6-8.4c-0.5-0.9-0.9-1.9-1.5-2.9
				c-0.3-0.5,0-0.8,0.5-0.7c2.2,0.4,4.4,0.2,7.1-0.1c-2.3,2.2-0.8,3.9,0,5.6c0.6,1.3,1.4,2.6,2.3,4.1c0.8-3.3,4.1-5.7,2.2-9.6
				c2.5,0.3,4.8,0.6,7.2-0.1c-2.3,3.1-3.8,6.4-5.9,9.5c-0.2,0.1-0.3,0.3-0.4,0.5l-0.1-0.1c0,0,0.1,0.1,0.1,0.1
				c-0.8,0.2-0.9,0.9-1.1,1.5c0.1,0.6-0.1,1.2-0.4,1.7C139.9,25,139.9,25.1,139.9,25.3z"/>
			
				<linearGradient id="SVGID_00000111160629410123497260000005601152222754597540_" gradientUnits="userSpaceOnUse" x1="49.6254" y1="18.9258" x2="65.734" y2="18.9258">
				<stop  offset="0" style="stop-color:#FFFFFF"/>
				<stop  offset="1" style="stop-color:#A8A8A8"/>
			</linearGradient>
			<path style="fill:url(#SVGID_00000111160629410123497260000005601152222754597540_);" d="M64.9,23c-1.8,0-3.6,0-5.2,0.8
				c-1.6,0.8-3.2,1-4.8,0.8c-2-0.3-4-0.7-5.1,1.6c0-4.5-0.1-9-0.1-13.6c0-0.9,0.2-0.9,1.1-0.8c1.2,0.2,2.4,0.4,3.6,0.3
				c3.3-0.2,6.8-0.3,9.5,2.6C65.9,16.9,66.4,20.4,64.9,23z M54.7,19.9C54.8,19.9,54.8,19.9,54.7,19.9c0,0.4,0,0.7,0,1.1
				c0,3,0.2,3.1,3.2,2.4c1.4-0.3,2.5-1.1,2.9-2.6c0.4-1.5-0.2-2.8-1.3-3.8c-1.3-1.1-3-1.3-4.5-0.8c-1,0.3-0.2,1.8-0.3,2.7
				C54.7,19.2,54.7,19.5,54.7,19.9z M59.4,14.7c0-0.1,0-0.3,0.1-0.4c-2.7-1.4-5.6-0.5-8.4-0.7c-0.3,0-0.5,0.2-0.5,0.5
				c0.1,0.5,0.5,0.7,0.9,0.6c0.9-0.2,1.8,0,2.6,0C55.9,14.8,57.7,14.7,59.4,14.7z"/>
			
				<linearGradient id="SVGID_00000079478291346223883650000000280176396738200219_" gradientUnits="userSpaceOnUse" x1="203.6837" y1="28.9397" x2="225.9943" y2="28.9397">
				<stop  offset="0" style="stop-color:#FFFFFF"/>
				<stop  offset="1" style="stop-color:#A8A8A8"/>
			</linearGradient>
			<path style="fill:url(#SVGID_00000079478291346223883650000000280176396738200219_);" d="M221.1,22.7c0.5,0.3,0.7,0.8,0.8,1.3
				c1.2,3.6,2.2,7.3,4.1,11c-2.6,0.2-5.1,0.3-7.5,0.1c-0.8,0-0.6-0.6-0.3-1c1.7-2.6,0.4-5.2-0.8-7.2c-0.9-1.4-3.4-0.3-5.2-0.3
				c-0.9,0-0.9,0.7-1.2,1.4c-1.1,2.4-1.2,4.7,0.5,7.1c-2.5,0.2-4.7,0.2-6.9,0c-1-0.1-1.1-0.4-0.4-1.1c0.3-0.3,0.5-0.8,0.8-1.1
				c0.9,0.1,0.9-0.7,1-1.1c0.5-1.4,1.3-2.6,2.5-3.5c0.8-0.6,1.4-1.4,1-2.6c-0.2-0.7,0.3-1.2,0.9-1.5c0.9-0.4,1.8-0.8,2.8-0.8
				c2.6,0.1,5.2,0,7.8,0c0,0,0.1,0.1,0.1,0.1l-0.1-0.1C221.1,23.1,221.1,22.9,221.1,22.7z"/>
			
				<linearGradient id="SVGID_00000152986610462945148170000008338407034008972162_" gradientUnits="userSpaceOnUse" x1="107.4838" y1="29.0644" x2="129.522" y2="29.0644">
				<stop  offset="0" style="stop-color:#FFFFFF"/>
				<stop  offset="1" style="stop-color:#A8A8A8"/>
			</linearGradient>
			<path style="fill:url(#SVGID_00000152986610462945148170000008338407034008972162_);" d="M110.2,28.7c1.9,0.1,2.1-1.5,2.7-2.7
				c0.2-0.5,0.3-1,0.5-1.5c0.3-0.9,0.8-1.2,1.8-1c2.2,0.4,4.3,0.6,6.5-0.2c1.9-0.7,3.2,0.2,3.8,2.2c0.2,0.6,0.4,1.3,0.6,2
				c0.1,0.3,0.3,0.6,0.6,0.1c1,2.2,1.6,4.5,2.8,6.6c0.4,0.8-0.1,0.9-0.7,0.9c-2.2,0.1-4.4,0.1-6.6,0.1c-0.7,0-1-0.3-0.4-0.9
				c1-1,0.9-2.2,0.7-3.4c-0.2-1.3-1-2.4-1.1-3.7c0-0.7-0.6-0.7-1.2-0.7c-1.1,0-2.2,0.1-3.3,0c-1.7-0.2-2.4,0.7-2.7,2.1
				c-0.4,1.8-0.9,3.6,0,5.4c0.4,0.7,0.2,1.2-0.8,1.2c-1.6-0.1-3.2-0.1-4.7-0.1c-0.8,0-1.2-0.2-0.7-1.1
				C108.8,32.3,109.3,30.4,110.2,28.7z"/>
			
				<linearGradient id="SVGID_00000146465670181785077630000002796457754552441765_" gradientUnits="userSpaceOnUse" x1="144.3645" y1="22.6499" x2="161.694" y2="22.6499">
				<stop  offset="0" style="stop-color:#FFFFFF"/>
				<stop  offset="1" style="stop-color:#A8A8A8"/>
			</linearGradient>
			<path style="fill:url(#SVGID_00000146465670181785077630000002796457754552441765_);" d="M144.4,33.8c2.4-4.4,3.5-9.4,5.4-14
				c0.2-0.6,0.4-1.1,0.7-1.7c0.9-2.2,1-4.3-0.7-6.3c3.5,0.2,6.8,0.3,10.2-0.2c0.1,0.5-0.1,0.8-0.4,1.1c-0.7,0.8-0.8,1.6-0.4,2.6
				c0.9,2.6,1.7,5.2,2.6,7.8c-0.8,0.5-1.7,0.7-2.7,0.6c-2-0.1-4.1-0.1-6.1,0c-2.4,0.1-2.8,0.5-3.5,2.8c-0.2,0.8-0.4,1.7-1.2,2.1
				c-0.8,0.3-1,0.9-1.3,1.6C146.3,31.5,146,33.2,144.4,33.8z M156.3,22.8c-0.9-1.9-0.9-3.8-1.9-5.6c-0.7,1.8-1.3,3.4-2,4.9
				c-0.3,0.6-0.1,0.8,0.5,0.7C154,22.7,155.1,22.8,156.3,22.8z"/>
			
				<linearGradient id="SVGID_00000099650817489749323430000007723953256258816959_" gradientUnits="userSpaceOnUse" x1="144.1756" y1="29.0463" x2="165.9605" y2="29.0463">
				<stop  offset="0" style="stop-color:#FFFFFF"/>
				<stop  offset="1" style="stop-color:#A8A8A8"/>
			</linearGradient>
			<path style="fill:url(#SVGID_00000099650817489749323430000007723953256258816959_);" d="M144.4,33.8c1.7-0.6,1.9-2.2,2.5-3.6
				c0.3-0.7,0.5-1.3,1.3-1.6c0.8-0.3,1-1.3,1.2-2.1c0.7-2.3,1.1-2.7,3.5-2.8c2-0.1,4.1-0.1,6.1,0c1,0,1.9-0.2,2.7-0.6
				c1.3,2.5,1.7,5.3,2.8,7.8c0.4,1,0.9,2,1.3,3c0.3,0.7,0.1,1.1-0.7,1.1c-1.9,0-3.8,0-5.7,0.1c-0.7,0-0.9-0.1-0.6-0.9
				c1.1-2.6-0.1-4.9-1.1-7.2c-0.4-1-6.2-0.7-6.6,0.4c-1,2.4-1.9,4.9,0.2,7.5c-2.3,0.4-4.4,0.3-6.6,0.2
				C143.9,34.9,144.2,34.3,144.4,33.8z"/>
			
				<linearGradient id="SVGID_00000097483518447626047800000012484539017369229967_" gradientUnits="userSpaceOnUse" x1="65.9345" y1="20.1583" x2="82.038" y2="20.1583">
				<stop  offset="0" style="stop-color:#FFFFFF"/>
				<stop  offset="1" style="stop-color:#A8A8A8"/>
			</linearGradient>
			<path style="fill:url(#SVGID_00000097483518447626047800000012484539017369229967_);" d="M82,24.8c-1.5-2.2-3.5-1.6-5.6-1.3
				c-1.5,0.2-3,0.1-4.6,0.3c-2.3,0.3-3.5,1.9-4.8,3.4c-0.4,0.5-0.4,1.2-1.2,1.4c1.1-3.5,2.5-6.8,3.5-10.3c0.7-2.4,1-4.6-1-6.6
				c3.9,0,7.6,0.4,11.7-0.2c-2.8,2.9-0.7,5.4,0.1,8C80.7,21.4,81.4,23.1,82,24.8z M73.7,17.3c-0.8,1.5-1.4,2.9-1.8,4.5
				c-0.2,0.7-0.4,1.4,0.7,1.2c1.2-0.2,2.6,0.8,3.4-0.8c0,0,0-0.1,0-0.2C74.7,20.7,74.9,18.8,73.7,17.3z"/>
			
				<linearGradient id="SVGID_00000116218292406154314330000008020881596265478565_" gradientUnits="userSpaceOnUse" x1="204.9522" y1="22.3574" x2="221.1126" y2="22.3574">
				<stop  offset="0" style="stop-color:#FFFFFF"/>
				<stop  offset="1" style="stop-color:#A8A8A8"/>
			</linearGradient>
			<path style="fill:url(#SVGID_00000116218292406154314330000008020881596265478565_);" d="M221.1,23.3c-2.6,0-5.2,0.1-7.8,0
				c-1.1,0-1.9,0.4-2.8,0.8c-0.6,0.3-1.1,0.8-0.9,1.5c0.4,1.2-0.2,1.9-1,2.6c-1.2,0.9-2,2.1-2.5,3.5c-0.2,0.4-0.2,1.2-1,1.1
				c1.8-4.7,3.7-9.4,5.2-14.3c0.3-1,0.5-2,0.8-3c0.3-1.5-0.5-2.6-1.2-3.6c3,0,6,0,8.9,0c0.6,0,0.8,0.2,0.6,0.8
				c-0.8,1.9,0.1,3.6,0.6,5.3c0.5,1.5,1.2,3,1.3,4.7C221.1,22.9,221.1,23.1,221.1,23.3L221.1,23.3z M215.9,22.7
				c-0.3-1.8-1-3.4-1.7-5.4c-1,1.8-1.5,3.6-1.9,5.4C213.5,22.7,214.7,22.7,215.9,22.7z"/>
			
				<linearGradient id="SVGID_00000098922321987510004570000018380688592457817008_" gradientUnits="userSpaceOnUse" x1="86.6104" y1="29.8662" x2="105.5824" y2="29.8662">
				<stop  offset="0" style="stop-color:#FFFFFF"/>
				<stop  offset="1" style="stop-color:#A8A8A8"/>
			</linearGradient>
			<path style="fill:url(#SVGID_00000098922321987510004570000018380688592457817008_);" d="M94.1,31.3c0,1,0.8,0.9,1.4,0.8
				c2.6-0.3,4.9-1.1,6.5-3.3c0.7-1.1,2.1-1.6,2.8-3c0.3,1,0.6,1.8,0.8,2.6c0,0,0,0,0,0c-0.1,0.1-0.2,0.2-0.3,0.4
				c-1.6,3.8-4.7,5.4-8.5,6c-3,0.5-6.1,0.4-9.2,0.3c-1,0-1.3-0.3-0.6-1.2c0.9-1.2,1.2-2.5,1.5-3.9c0.3,0.3,0.6,0.3,0.5-0.2
				c-0.2-2,0.6-3.2,2.7-3.5c0.8-0.1,0.2-1.1,0.8-1.7c0.7,1,0.3,2.2,1,3.1C94,28.9,93.1,30.3,94.1,31.3z"/>
			
				<linearGradient id="SVGID_00000015340127368431013210000011667286563272096954_" gradientUnits="userSpaceOnUse" x1="168.1853" y1="29.4881" x2="176.7927" y2="29.4881">
				<stop  offset="0" style="stop-color:#FFFFFF"/>
				<stop  offset="1" style="stop-color:#A8A8A8"/>
			</linearGradient>
			<path style="fill:url(#SVGID_00000015340127368431013210000011667286563272096954_);" d="M170.2,26.7c0.5-0.7,1-1.3,2-1.3
				c0.6,0,1.2-0.4,1.4-1.1c0.1-0.2,0.2-0.6,0.5-0.5c0.4,0,0.4,0.4,0.4,0.7c0.2,0.8-0.4,1.8,0.6,2.5c0.1,1.5,0.3,3,0.4,4.5
				c0,0.8,0.2,1.5,0.8,2.1c0.8,0.8,0.6,1.3-0.6,1.3c-2.4,0-4.8,0.2-7.6-0.1C170.1,32.4,170.2,29.6,170.2,26.7z"/>
			
				<linearGradient id="SVGID_00000058586274658896106410000016510131926073834680_" gradientUnits="userSpaceOnUse" x1="133.3365" y1="30.0341" x2="141.4293" y2="30.0341">
				<stop  offset="0" style="stop-color:#FFFFFF"/>
				<stop  offset="1" style="stop-color:#A8A8A8"/>
			</linearGradient>
			<path style="fill:url(#SVGID_00000058586274658896106410000016510131926073834680_);" d="M134.7,24.9c0.8,0.3,0.6,1.1,0.6,1.6
				c0,1.6,0,3.1,0.3,4.7c0-1.2-0.1-2.4,0-3.6c0-0.5-0.5-1.9,1.1-1c0.6,0.3,1.7-0.6,2.3-1.5c0.5,0.2,0.3,0.8,0.8,0.9
				c0.2,2.8-0.3,5.7,1.5,8.3c0.3,0.5-0.1,0.6-0.5,0.6c-2.3,0.2-4.5,0.1-6.8,0c-0.4,0-0.9-0.2-0.6-0.6
				C135.6,31.5,135.1,28.2,134.7,24.9z"/>
			
				<linearGradient id="SVGID_00000005971092000348701890000008038732577186415799_" gradientUnits="userSpaceOnUse" x1="230.7043" y1="22.0828" x2="230.7043" y2="22.0828">
				<stop  offset="0" style="stop-color:#FFFFFF"/>
				<stop  offset="1" style="stop-color:#A8A8A8"/>
			</linearGradient>
			<path style="fill:url(#SVGID_00000005971092000348701890000008038732577186415799_);" d="M230.7,22.1"/>
			
				<linearGradient id="SVGID_00000007402567573483967440000016938607214004637851_" gradientUnits="userSpaceOnUse" x1="88.4743" y1="23.3266" x2="88.7636" y2="23.3266">
				<stop  offset="0" style="stop-color:#FFFFFF"/>
				<stop  offset="1" style="stop-color:#A8A8A8"/>
			</linearGradient>
			<path style="fill:url(#SVGID_00000007402567573483967440000016938607214004637851_);" d="M88.5,18c0.4,3.6,0.4,7.2,0,10.8
				C88.5,25.1,88.5,21.5,88.5,18z"/>
			
				<linearGradient id="SVGID_00000130609867409840883840000005437064368016685748_" gradientUnits="userSpaceOnUse" x1="211.5809" y1="37.1223" x2="214.0731" y2="37.1223">
				<stop  offset="0" style="stop-color:#FFFFFF"/>
				<stop  offset="1" style="stop-color:#A8A8A8"/>
			</linearGradient>
			<path style="fill:url(#SVGID_00000130609867409840883840000005437064368016685748_);" d="M214.1,37.6c-0.7-0.6-1.3,0-1.9,0.3
				c-0.8-0.1-0.6-1.1-0.4-1c0.7,0.1,1.4-1.1,2.1-0.1C214,37,214,37.3,214.1,37.6z"/>
			
				<linearGradient id="SVGID_00000010285045687494929740000007776082128384718509_" gradientUnits="userSpaceOnUse" x1="222.8862" y1="39.9793" x2="222.8862" y2="39.9793">
				<stop  offset="0" style="stop-color:#FFFFFF"/>
				<stop  offset="1" style="stop-color:#A8A8A8"/>
			</linearGradient>
			<path style="fill:url(#SVGID_00000010285045687494929740000007776082128384718509_);" d="M222.9,40"/>
			
				<linearGradient id="SVGID_00000011025077150285757550000013686979541127435707_" gradientUnits="userSpaceOnUse" x1="137.318" y1="22.3395" x2="138.4183" y2="22.3395">
				<stop  offset="0" style="stop-color:#FFFFFF"/>
				<stop  offset="1" style="stop-color:#A8A8A8"/>
			</linearGradient>
			<path style="fill:url(#SVGID_00000011025077150285757550000013686979541127435707_);" d="M137.3,23.1c0.2-0.7,0.3-1.4,1.1-1.5
				C138.2,22.2,138,22.9,137.3,23.1z"/>
			
				<linearGradient id="SVGID_00000015353131574626124580000002446855737950069162_" gradientUnits="userSpaceOnUse" x1="199.2733" y1="29.3545" x2="200.0448" y2="29.3545">
				<stop  offset="0" style="stop-color:#FFFFFF"/>
				<stop  offset="1" style="stop-color:#A8A8A8"/>
			</linearGradient>
			<path style="fill:url(#SVGID_00000015353131574626124580000002446855737950069162_);" d="M200,29.6c-0.3,0-0.7,0.1-0.8-0.3
				c-0.1-0.3,0.3-0.3,0.6-0.3C199.9,29.3,200,29.4,200,29.6z"/>
			
				<linearGradient id="SVGID_00000123408148537023275000000018245253111954151579_" gradientUnits="userSpaceOnUse" x1="131.355" y1="24.1094" x2="131.8998" y2="24.1094">
				<stop  offset="0" style="stop-color:#FFFFFF"/>
				<stop  offset="1" style="stop-color:#A8A8A8"/>
			</linearGradient>
			<path style="fill:url(#SVGID_00000123408148537023275000000018245253111954151579_);" d="M131.4,23.6c0.5,0.2,0.7,0.5,0.3,0.9
				C131.7,24.2,131.2,24.1,131.4,23.6z"/>
			
				<linearGradient id="SVGID_00000111193165897335754190000012687581793234842253_" gradientUnits="userSpaceOnUse" x1="198.9362" y1="28.0441" x2="199.5417" y2="28.0441">
				<stop  offset="0" style="stop-color:#FFFFFF"/>
				<stop  offset="1" style="stop-color:#A8A8A8"/>
			</linearGradient>
			<path style="fill:url(#SVGID_00000111193165897335754190000012687581793234842253_);" d="M199.5,28.3c-0.3-0.1-0.5-0.2-0.6-0.6
				c0.1,0,0.3,0,0.4,0C199.4,28,199.5,28.2,199.5,28.3z"/>
			
				<linearGradient id="SVGID_00000075164618677976134530000011569588603203582342_" gradientUnits="userSpaceOnUse" x1="198.5844" y1="26.6846" x2="199.0194" y2="26.6846">
				<stop  offset="0" style="stop-color:#FFFFFF"/>
				<stop  offset="1" style="stop-color:#A8A8A8"/>
			</linearGradient>
			<path style="fill:url(#SVGID_00000075164618677976134530000011569588603203582342_);" d="M198.6,27.1c0-0.3,0-0.6,0-0.9
				c0.3,0.2,0.4,0.5,0.4,0.9C198.9,27.1,198.8,27.1,198.6,27.1L198.6,27.1z"/>
			
				<linearGradient id="SVGID_00000019679480816422928160000002691873396565816232_" gradientUnits="userSpaceOnUse" x1="198.9362" y1="27.4971" x2="199.3473" y2="27.4971">
				<stop  offset="0" style="stop-color:#FFFFFF"/>
				<stop  offset="1" style="stop-color:#A8A8A8"/>
			</linearGradient>
			<path style="fill:url(#SVGID_00000019679480816422928160000002691873396565816232_);" d="M199.3,27.8c-0.1,0-0.3,0-0.4,0
				c0,0,0,0,0,0c0-0.2,0.1-0.4,0.1-0.6C199.3,27.3,199.4,27.5,199.3,27.8z"/>
			
				<linearGradient id="SVGID_00000145044559362577490400000000690558227680816305_" gradientUnits="userSpaceOnUse" x1="138.4098" y1="21.3145" x2="138.7838" y2="21.3145">
				<stop  offset="0" style="stop-color:#FFFFFF"/>
				<stop  offset="1" style="stop-color:#A8A8A8"/>
			</linearGradient>
			<path style="fill:url(#SVGID_00000145044559362577490400000000690558227680816305_);" d="M138.4,21.6c0-0.2,0.1-0.4,0.4-0.5
				C138.7,21.2,138.5,21.4,138.4,21.6z"/>
			
				<linearGradient id="SVGID_00000031178647304898967470000014773849287534546585_" gradientUnits="userSpaceOnUse" x1="198.6159" y1="27.4383" x2="199.0529" y2="27.4383">
				<stop  offset="0" style="stop-color:#FFFFFF"/>
				<stop  offset="1" style="stop-color:#A8A8A8"/>
			</linearGradient>
			<path style="fill:url(#SVGID_00000031178647304898967470000014773849287534546585_);" d="M199.1,27.2c0,0.2-0.1,0.4-0.1,0.6
				c-0.1-0.2-0.2-0.4-0.3-0.6C198.8,27.1,198.9,27.1,199.1,27.2C199,27.1,199.1,27.2,199.1,27.2z"/>
			
				<linearGradient id="SVGID_00000029033269663248765790000014597765306519827342_" gradientUnits="userSpaceOnUse" x1="105.2779" y1="28.5864" x2="105.5533" y2="28.5864">
				<stop  offset="0" style="stop-color:#FFFFFF"/>
				<stop  offset="1" style="stop-color:#A8A8A8"/>
			</linearGradient>
			<path style="fill:url(#SVGID_00000029033269663248765790000014597765306519827342_);" d="M105.3,28.8c0.1-0.1,0.2-0.2,0.3-0.4
				C105.6,28.6,105.5,28.7,105.3,28.8z"/>
			
				<linearGradient id="SVGID_00000032618000350466152490000003056740715753687936_" gradientUnits="userSpaceOnUse" x1="136.9017" y1="25.0565" x2="136.9568" y2="25.0565">
				<stop  offset="0" style="stop-color:#FFFFFF"/>
				<stop  offset="1" style="stop-color:#A8A8A8"/>
			</linearGradient>
			<path style="fill:url(#SVGID_00000032618000350466152490000003056740715753687936_);" d="M136.9,25.3c0-0.1,0-0.3,0.1-0.4
				C136.9,25,136.9,25.1,136.9,25.3z"/>
			
				<linearGradient id="SVGID_00000083076448935863808930000005345527913171988400_" gradientUnits="userSpaceOnUse" x1="188.567" y1="14.4074" x2="195.6811" y2="14.4074">
				<stop  offset="0" style="stop-color:#FFFFFF"/>
				<stop  offset="1" style="stop-color:#A8A8A8"/>
			</linearGradient>
			<path style="fill:url(#SVGID_00000083076448935863808930000005345527913171988400_);" d="M188.6,14.2c2.4,0.2,4.7-0.1,7.1,0.3
				C193.3,15,190.9,14.2,188.6,14.2z"/>
			
				<linearGradient id="SVGID_00000081610884622106386200000014474698407423914407_" gradientUnits="userSpaceOnUse" x1="50.6012" y1="14.1203" x2="59.4968" y2="14.1203">
				<stop  offset="0" style="stop-color:#FFFFFF"/>
				<stop  offset="1" style="stop-color:#A8A8A8"/>
			</linearGradient>
			<path style="fill:url(#SVGID_00000081610884622106386200000014474698407423914407_);" d="M59.4,14.7c-1.8,0-3.5,0.1-5.3,0
				c-0.9,0-1.7-0.3-2.6,0c-0.4,0.1-0.8-0.1-0.9-0.6c0-0.3,0.2-0.5,0.5-0.5c2.8,0.2,5.7-0.7,8.4,0.7C59.5,14.4,59.5,14.6,59.4,14.7z"
				/>
			
				<linearGradient id="SVGID_00000098217724615949997880000016709944982390573739_" gradientUnits="userSpaceOnUse" x1="221.1053" y1="23.356" x2="221.1696" y2="23.356">
				<stop  offset="0" style="stop-color:#FFFFFF"/>
				<stop  offset="1" style="stop-color:#A8A8A8"/>
			</linearGradient>
			<polygon style="fill:url(#SVGID_00000098217724615949997880000016709944982390573739_);" points="221.1,23.3 221.2,23.4 
				221.1,23.3 			"/>
		</g>
	</g>
</g>
</svg>
