<svg id="Layer_1" data-name="Layer 1" xmlns="http://www.w3.org/2000/svg" xmlns:xlink="http://www.w3.org/1999/xlink" viewBox="0 0 3043.37 540.62"><defs><style>.cls-1{fill:url(#linear-gradient);}.cls-2{fill:url(#linear-gradient-2);}.cls-3{fill:url(#linear-gradient-3);}.cls-4{fill:url(#linear-gradient-4);}.cls-5{fill:url(#linear-gradient-5);}.cls-6{fill:url(#linear-gradient-6);}.cls-7{fill:url(#linear-gradient-7);}.cls-8{fill:url(#linear-gradient-8);}.cls-9{fill:url(#linear-gradient-9);}.cls-10{fill:url(#linear-gradient-10);}.cls-11{fill:url(#linear-gradient-11);}.cls-12{fill:url(#linear-gradient-12);}.cls-13{fill:url(#linear-gradient-13);}.cls-14{fill:url(#linear-gradient-14);}.cls-15{fill:url(#linear-gradient-15);}.cls-16{fill:url(#linear-gradient-16);}.cls-17{fill:url(#linear-gradient-17);}.cls-18{fill:url(#linear-gradient-18);}.cls-19{fill:url(#linear-gradient-19);}.cls-20{fill:url(#linear-gradient-20);}.cls-21{fill:url(#linear-gradient-21);}.cls-22{fill:url(#linear-gradient-22);}.cls-23{fill:url(#linear-gradient-23);}.cls-24{fill:url(#linear-gradient-24);}.cls-25{fill:url(#linear-gradient-25);}.cls-26{fill:url(#linear-gradient-26);}.cls-27{fill:url(#linear-gradient-27);}.cls-28{fill:url(#linear-gradient-28);}.cls-29{fill:url(#linear-gradient-29);}.cls-30{fill:url(#linear-gradient-30);}.cls-31{fill:url(#linear-gradient-31);}.cls-32{fill:url(#linear-gradient-32);}.cls-33{fill:url(#linear-gradient-33);}.cls-34{fill:url(#linear-gradient-34);}.cls-35{fill:url(#linear-gradient-35);}.cls-36{fill:url(#linear-gradient-36);}.cls-37{fill:url(#linear-gradient-37);}.cls-38{fill:url(#linear-gradient-38);}.cls-39{fill:url(#linear-gradient-39);}.cls-40{fill:url(#linear-gradient-40);}.cls-41{fill:url(#linear-gradient-41);}.cls-42{fill:url(#linear-gradient-42);}.cls-43{fill:url(#linear-gradient-43);}.cls-44{fill:url(#linear-gradient-44);}.cls-45{fill:url(#linear-gradient-45);}.cls-46{fill:url(#linear-gradient-46);}.cls-47{fill:url(#linear-gradient-47);}.cls-48{fill:url(#linear-gradient-48);}.cls-49{fill:url(#linear-gradient-49);}.cls-50{fill:url(#linear-gradient-50);}.cls-51{fill:url(#linear-gradient-51);}.cls-52{fill:url(#linear-gradient-52);}.cls-53{fill:url(#linear-gradient-53);}.cls-54{fill:url(#linear-gradient-54);}.cls-55{fill:url(#linear-gradient-55);}.cls-56{fill:url(#linear-gradient-56);}.cls-57{fill:url(#linear-gradient-57);}.cls-58{fill:url(#linear-gradient-58);}.cls-59{fill:url(#linear-gradient-59);}.cls-60{fill:url(#linear-gradient-60);}.cls-61{fill:url(#linear-gradient-61);}.cls-62{fill:url(#linear-gradient-62);}.cls-63{fill:url(#linear-gradient-63);}.cls-64{fill:url(#linear-gradient-64);}.cls-65{fill:url(#linear-gradient-65);}.cls-66{fill:url(#linear-gradient-66);}</style><linearGradient id="linear-gradient" x1="2341.76" y1="378.98" x2="2827.65" y2="378.98" gradientUnits="userSpaceOnUse"><stop offset="0" stop-color="#bf4a00"/><stop offset="1" stop-color="#bf892a"/></linearGradient><linearGradient id="linear-gradient-2" x1="48.39" y1="375.94" x2="362.15" y2="375.94" xlink:href="#linear-gradient"/><linearGradient id="linear-gradient-3" x1="709.34" y1="213.46" x2="1054.77" y2="213.46" xlink:href="#linear-gradient"/><linearGradient id="linear-gradient-4" x1="2348.68" y1="173.52" x2="2624.35" y2="173.52" xlink:href="#linear-gradient"/><linearGradient id="linear-gradient-5" x1="1110.16" y1="182.98" x2="1380.04" y2="182.98" xlink:href="#linear-gradient"/><linearGradient id="linear-gradient-6" x1="1970.74" y1="167.92" x2="2308.12" y2="167.92" xlink:href="#linear-gradient"/><linearGradient id="linear-gradient-7" x1="323.33" y1="331.43" x2="705.03" y2="331.43" xlink:href="#linear-gradient"/><linearGradient id="linear-gradient-8" x1="1407.61" y1="203.64" x2="1728.59" y2="203.64" xlink:href="#linear-gradient"/><linearGradient id="linear-gradient-9" x1="110.09" y1="162.71" x2="376.05" y2="162.71" xlink:href="#linear-gradient"/><linearGradient id="linear-gradient-10" x1="2653.7" y1="328.05" x2="3022.06" y2="328.05" xlink:href="#linear-gradient"/><linearGradient id="linear-gradient-11" x1="1065.37" y1="330.11" x2="1429.24" y2="330.11" xlink:href="#linear-gradient"/><linearGradient id="linear-gradient-12" x1="1674.3" y1="224.2" x2="1960.42" y2="224.2" xlink:href="#linear-gradient"/><linearGradient id="linear-gradient-13" x1="1671.18" y1="329.81" x2="2030.86" y2="329.81" xlink:href="#linear-gradient"/><linearGradient id="linear-gradient-14" x1="379.36" y1="183.06" x2="645.24" y2="183.06" xlink:href="#linear-gradient"/><linearGradient id="linear-gradient-15" x1="2674.64" y1="219.37" x2="2941.46" y2="219.37" xlink:href="#linear-gradient"/><linearGradient id="linear-gradient-16" x1="720.74" y1="343.35" x2="1033.98" y2="343.35" xlink:href="#linear-gradient"/><linearGradient id="linear-gradient-17" x1="2067.6" y1="337.1" x2="2209.71" y2="337.1" xlink:href="#linear-gradient"/><linearGradient id="linear-gradient-18" x1="1492.22" y1="346.12" x2="1625.83" y2="346.12" xlink:href="#linear-gradient"/><linearGradient id="linear-gradient-19" x1="751.51" y1="235.37" x2="756.29" y2="235.37" xlink:href="#linear-gradient"/><linearGradient id="linear-gradient-20" x1="2784.09" y1="463.15" x2="2825.23" y2="463.15" xlink:href="#linear-gradient"/><linearGradient id="linear-gradient-21" x1="1557.95" y1="219.08" x2="1576.12" y2="219.08" xlink:href="#linear-gradient"/><linearGradient id="linear-gradient-22" x1="2580.88" y1="334.9" x2="2593.62" y2="334.9" xlink:href="#linear-gradient"/><linearGradient id="linear-gradient-23" x1="1459.5" y1="248.3" x2="1468.5" y2="248.3" xlink:href="#linear-gradient"/><linearGradient id="linear-gradient-24" x1="2575.31" y1="313.26" x2="2585.31" y2="313.26" xlink:href="#linear-gradient"/><linearGradient id="linear-gradient-25" x1="2569.5" y1="290.82" x2="2576.69" y2="290.82" xlink:href="#linear-gradient"/><linearGradient id="linear-gradient-26" x1="2575.31" y1="304.23" x2="2582.1" y2="304.23" xlink:href="#linear-gradient"/><linearGradient id="linear-gradient-27" x1="1575.98" y1="202.15" x2="1582.15" y2="202.15" xlink:href="#linear-gradient"/><linearGradient id="linear-gradient-28" x1="2570.03" y1="303.26" x2="2577.24" y2="303.26" xlink:href="#linear-gradient"/><linearGradient id="linear-gradient-29" x1="1028.95" y1="322.22" x2="1033.5" y2="322.22" xlink:href="#linear-gradient"/><linearGradient id="linear-gradient-30" x1="1551.08" y1="263.93" x2="1551.99" y2="263.93" xlink:href="#linear-gradient"/><linearGradient id="linear-gradient-31" x1="2404.11" y1="88.11" x2="2521.57" y2="88.11" xlink:href="#linear-gradient"/><linearGradient id="linear-gradient-32" x1="126.2" y1="83.37" x2="273.07" y2="83.37" xlink:href="#linear-gradient"/><linearGradient id="linear-gradient-33" x1="2941.34" y1="235.86" x2="2942.4" y2="235.86" xlink:href="#linear-gradient"/><linearGradient id="linear-gradient-34" x1="2314.05" y1="361.88" x2="2799.93" y2="361.88" gradientUnits="userSpaceOnUse"><stop offset="0" stop-color="#ff6200"/><stop offset="1" stop-color="#ffb638"/></linearGradient><linearGradient id="linear-gradient-35" x1="20.67" y1="358.85" x2="334.43" y2="358.85" xlink:href="#linear-gradient-34"/><linearGradient id="linear-gradient-36" x1="681.62" y1="196.37" x2="1027.05" y2="196.37" xlink:href="#linear-gradient-34"/><linearGradient id="linear-gradient-37" x1="2320.96" y1="156.42" x2="2596.64" y2="156.42" xlink:href="#linear-gradient-34"/><linearGradient id="linear-gradient-38" x1="1082.44" y1="165.89" x2="1352.32" y2="165.89" xlink:href="#linear-gradient-34"/><linearGradient id="linear-gradient-39" x1="1943.02" y1="150.82" x2="2280.4" y2="150.82" xlink:href="#linear-gradient-34"/><linearGradient id="linear-gradient-40" x1="295.62" y1="314.34" x2="677.31" y2="314.34" xlink:href="#linear-gradient-34"/><linearGradient id="linear-gradient-41" x1="1379.89" y1="186.55" x2="1700.88" y2="186.55" xlink:href="#linear-gradient-34"/><linearGradient id="linear-gradient-42" x1="82.37" y1="145.62" x2="348.34" y2="145.62" xlink:href="#linear-gradient-34"/><linearGradient id="linear-gradient-43" x1="2625.98" y1="310.95" x2="2994.35" y2="310.95" xlink:href="#linear-gradient-34"/><linearGradient id="linear-gradient-44" x1="1037.65" y1="313.01" x2="1401.52" y2="313.01" xlink:href="#linear-gradient-34"/><linearGradient id="linear-gradient-45" x1="1646.58" y1="207.1" x2="1932.7" y2="207.1" xlink:href="#linear-gradient-34"/><linearGradient id="linear-gradient-46" x1="1643.46" y1="312.71" x2="2003.15" y2="312.71" xlink:href="#linear-gradient-34"/><linearGradient id="linear-gradient-47" x1="351.64" y1="165.97" x2="617.53" y2="165.97" xlink:href="#linear-gradient-34"/><linearGradient id="linear-gradient-48" x1="2646.93" y1="202.28" x2="2913.74" y2="202.28" xlink:href="#linear-gradient-34"/><linearGradient id="linear-gradient-49" x1="693.02" y1="326.25" x2="1006.26" y2="326.25" xlink:href="#linear-gradient-34"/><linearGradient id="linear-gradient-50" x1="2039.88" y1="320.01" x2="2181.99" y2="320.01" xlink:href="#linear-gradient-34"/><linearGradient id="linear-gradient-51" x1="1464.5" y1="329.02" x2="1598.12" y2="329.02" xlink:href="#linear-gradient-34"/><linearGradient id="linear-gradient-52" x1="723.79" y1="218.28" x2="728.57" y2="218.28" xlink:href="#linear-gradient-34"/><linearGradient id="linear-gradient-53" x1="2756.37" y1="446.05" x2="2797.52" y2="446.05" xlink:href="#linear-gradient-34"/><linearGradient id="linear-gradient-54" x1="1530.24" y1="201.98" x2="1548.4" y2="201.98" xlink:href="#linear-gradient-34"/><linearGradient id="linear-gradient-55" x1="2553.16" y1="317.8" x2="2565.9" y2="317.8" xlink:href="#linear-gradient-34"/><linearGradient id="linear-gradient-56" x1="1431.78" y1="231.2" x2="1440.78" y2="231.2" xlink:href="#linear-gradient-34"/><linearGradient id="linear-gradient-57" x1="2547.6" y1="296.17" x2="2557.59" y2="296.17" xlink:href="#linear-gradient-34"/><linearGradient id="linear-gradient-58" x1="2541.79" y1="273.72" x2="2548.97" y2="273.72" xlink:href="#linear-gradient-34"/><linearGradient id="linear-gradient-59" x1="2547.6" y1="287.13" x2="2554.38" y2="287.13" xlink:href="#linear-gradient-34"/><linearGradient id="linear-gradient-60" x1="1548.26" y1="185.06" x2="1554.44" y2="185.06" xlink:href="#linear-gradient-34"/><linearGradient id="linear-gradient-61" x1="2542.31" y1="286.16" x2="2549.52" y2="286.16" xlink:href="#linear-gradient-34"/><linearGradient id="linear-gradient-62" x1="1001.23" y1="305.12" x2="1005.78" y2="305.12" xlink:href="#linear-gradient-34"/><linearGradient id="linear-gradient-63" x1="1523.36" y1="246.84" x2="1524.27" y2="246.84" xlink:href="#linear-gradient-34"/><linearGradient id="linear-gradient-64" x1="2376.39" y1="71.02" x2="2493.85" y2="71.02" xlink:href="#linear-gradient-34"/><linearGradient id="linear-gradient-65" x1="98.48" y1="66.28" x2="245.35" y2="66.28" xlink:href="#linear-gradient-34"/><linearGradient id="linear-gradient-66" x1="2913.62" y1="218.76" x2="2914.69" y2="218.76" xlink:href="#linear-gradient-34"/></defs><path class="cls-1" d="M2825.23,471.09c6.88,19-2.42,35.06-9.33,51.56H2638.11c-60.66-46.62-95.74-110-120-180.87-4.91-14.37-8.7-32.24-30.3-33-37.25-1.26-41.89,3.16-39.57,40.76,1.26,20.54,2.07,41.18,14.22,59.3,9.2,13.7,1.66,18.77-11.53,19.17-31.29.94-62.59,1.7-93.89,2-4.85,0-11.63-1.48-14.13-4.81-3.52-4.7,1.76-9.31,5.44-12.94,19-18.74,21.24-43,21.77-67.53.78-36.47,1-72.94,1.48-109.42,7.81,11.65,2,25.68,5.59,36,43.48-7.76,86.39-6.27,129-1.1,11.22,1.36,22.45,8.74,24.55,23.68,1.55,11.08,8.79,13.53,19.31,9.08,6.26-2.65,13.39-3.27,20.13-4.8l-.19-.18,5.37,10.64-.09-.14c1,5.62,4.4,8.78,10,9.64,3.82,3.22,6,7.09,4.89,12.26-3.8.37-10.11-.78-9.24,4.63,1,6.23,8.05,3.75,12.66,4.48,20.13,49.31,40.14,99.05,81.73,135,27.9,24.09,61,36.59,98.47,28.86,12.85-2.65,29.43-6.79,19.93-27.52C2803.85,471.49,2813,460.63,2825.23,471.09Z"/><path class="cls-2" d="M174.36,522.65C154.05,492.36,124,490,91.72,493.79c-3.44.41-6.77,2-10.18,2.14-11.22.43-26.87,8.73-32.24-3.64-5.16-11.9,13-12.74,20-19.36,23-21.85,34.26-49.35,37.21-79.58,3.61-37,4-74.36,5.75-111.56,18.86-38.76,50.9-32.07,84.66-26.83,27.13,4.21,53.32-.11,80-12.85,25.48-12.16,56.13-12.49,85.21-12.88C344.29,269,305,278.94,269.87,293.32c-18.1,7.41-38.88,9-58.67,11.36-15.17,1.81-20.61,8.52-20.49,23.47.41,48.59-1.37,97.24.46,145.76.61,16.41,9.47,32.51,14.56,48.74Z"/><path class="cls-3" d="M751.51,146.6c-5.8-48.39-11-61.47-42.17-101,72,5.26,141.51-8.2,209,10.43,105.24,29.06,152.65,127.62,131.5,232-2.47,12.2-10.12,21.43-15.85,31.8l-13.66-43.35c-11.24,23.69-33.31,31.79-45.57,49.6-25.64,37.26-64.52,50.16-107,54.69-9.78,1.05-22.16,2.49-22.8-13.59,34.34-5.45,69.43-8.59,94.68-37.45C981,282.43,977.08,220,943.27,162.58c-19.17-32.54-46.78-45.52-83.43-47.23-22.67-1-27.31,6.79-26.69,27.93,1.62,54.75.68,109.57.76,164.36-11.26-14.84-5.71-35.75-16.63-51.78-9.08,8.93.75,26.18-12.6,27.81-35.72,4.38-47.53,24.75-44.92,57.88.68,8.64-3.59,8.54-8.86,3.15q.55-10.27,1.12-20.56C757.71,264.94,757.88,205.76,751.51,146.6Z"/><path class="cls-4" d="M2570.22,298.12c-6.74,1.53-13.87,2.15-20.13,4.8-10.52,4.45-17.76,2-19.31-9.08-2.1-14.94-13.33-22.32-24.55-23.68-42.64-5.17-85.55-6.66-129,1.1-3.61-10.28,2.22-24.31-5.59-36-.26-31.26-.74-62.53-.71-93.8,0-26.79-.64-53.17-17-76.42-3.89-5.51-7.4-13.71-3.45-19.56,4.69-7,12.28-1.58,19-.41,28.49,5,57.26.8,85.91,1.67,46.2,1.39,90.62,4.86,128,39,55.29,50.49,55.49,117.87-3.66,164-12.9,10.06-19.28,18.5-10.1,33.51Zm-93.3-182.19c-25.91-.34-26.92-.35-27.1,15.57-.38,32.9.41,65.81.77,98.72.06,5.18.15,9.93,6.51,12.5,21,8.47,71.51-11.19,82.9-31.94C2568.77,158.4,2529.36,112.11,2476.92,115.93ZM2404.11,84c39.29,1.2,78.12,14,117.46,4.91C2482.53,81.63,2443,86.53,2404.11,84Z"/><path class="cls-5" d="M1110.16,323.29l12.46-42.91c14.16-54.81,41.33-105.41,52.67-161,5.69-27.93,5.38-55.14-26.85-76,66.17-3.3,126.4,8.4,189.18-.76-36,26.84-26,59.35-15.4,91.26C1341,190.54,1360.72,247,1380,303.47c-4.48,8.94-7.91,4.37-9.8-1.28-3.57-10.63-6.09-21.62-9.41-32.35-9.88-32-31.1-47.35-62.17-36-36.39,13.28-71.45,9.49-107.07,3.41-16.12-2.76-24.59,2.15-29.44,16.28-2.79,8.11-3.92,16.93-7.56,24.59-9.49,20-12.58,46.92-44.43,45.17m121.62-187.66c-11.36,28.57-21.24,52.44-27.51,77.71-2.29,9.22-2.08,15.91,9.06,16.4,13,.57,26,.42,39.05.06,6.79-.19,13-4.6,10.39-11.16C1252.19,192.64,1251.31,163,1231.78,135.63Z"/><path class="cls-6" d="M2101.34,291.67c-.71-50.41-1.52-100.83-2.08-151.25-.14-12.62-2-20.85-18.57-20.26-31.89,1.14-63.23,13.82-85.75,39.86-5.58-38.92-7.64-76.22-23.08-110.61-3.69-8.24,2.17-13.83,11.45-8.28,14.51,8.69,30.29,6.33,45.82,6.33,78.36,0,156.73-.89,235,.73,15.08.31,33.67-15,42.72-.94,5.08,7.89-7.05,26.83-11.35,40.82-.5,1.64.09,4-.88,5.07-11,12.41,2.39,32.86-12.5,42.67-18,11.86-25.58-13.7-40.89-14.08-3.43-.08-6.82-1.28-10.26-1.8-47.9-7.29-49.78-5.55-49.16,41.41.59,45.19.76,90.39,1.11,135.59-16.5-10.44-6-27.08-9.24-40.58-1.19-5-.6-11.24-7.3-12-5.38-.63-6.79,4.55-8.11,8.63-3.72,11.44-12.76,17.81-23.46,17.77C2118.41,270.68,2109.86,280.51,2101.34,291.67Z"/><path class="cls-7" d="M645.24,259.87c21.21,49,30.21,102.59,56.84,149.61,7.85,13.87-1.09,19.29-13.73,19.5-34.76.55-69.53.58-104.3.72-13.94.05-13.35-7.83-8.61-17,22-42.57-6-79.42-13.52-118.59-1.22-6.42-7.23-7.21-12.43-7.09q-40.36.94-80.72,2.51c-11.39.44-16,7.88-18.85,18.13-9.86,35.79-22.84,71.23-3.81,108.12,3.9,7.56,1.86,13.8-8.23,13.82-37.78.09-75.56,0-114.55-3.22,32-28.51,39.58-67.76,56-102.19,12-3.21,12.6-15.7,19.19-23.19,21.95-24.93,41.92-51.62,79.34-56.92,25.16-3.56,50.48-1.08,75.19-5.16C587.14,233.26,621.28,223,645.24,259.87Z"/><path class="cls-8" d="M1600.48,267.32q-.57,6.9-1.13,13.8c-8.38-1-6.27-11.9-13.75-14.54-8.54,14.85-27.81,29.32-37.43,24.46-27.72-14-18.19,8-18.83,16.61-1.44,19.63-.45,39.44-.45,59.17-4.92-25.93-4.6-51.81-5.09-77.68-.18-9.87,3-21.61-9.8-27.21.3-1.95.61-3.9.91-5.85,5.58-7.65,3-12.58-5.24-15.56-18.64-49.82-47.47-93.87-75.25-138.84-8.94-14.48-15.35-31.95-24.65-47.31-5.1-8.41-.75-14,8.68-12.24,36.17,6.59,72.39,4.06,117.2-1.67-37.71,36.07-13.72,64,.24,92.24,10.66,21.56,23.31,42.13,37.3,67.13,12.69-54.81,67-94.1,36.37-158.16,41.15,4.82,79.86,10.37,119-1.12-37.19,50.51-63.15,106.34-97,157.31-3.93,1.52-5.74,4.56-6.17,8.58l-1.41-1.77,1.55,1.65c-13.66,3.1-15.38,14.68-18.17,25.51,1,10.19-1.65,19.62-6,28.72Q1600.92,263.94,1600.48,267.32Z"/><path class="cls-9" d="M362.15,229.23c-29.08.39-59.73.72-85.21,12.88-26.7,12.74-52.89,17.06-80,12.85-33.76-5.24-65.8-11.93-84.66,26.83-.66-74.62-1.11-149.24-2.16-223.86-.21-14.59,3.18-15.49,18-13.53,19.6,2.6,39.12,6.19,60.21,5.21,55.27-2.56,113-4.45,156.18,42.6C378.15,128.86,386.26,187.13,362.15,229.23ZM194.63,178h.42c0,6.07,0,12.13,0,18.2.26,49.53,2.64,51.31,53.1,40,23.74-5.34,41.32-17.92,47.63-42.38,6.57-25.49-3.29-46.47-22.06-62.63-21.51-18.52-50-20.82-73.91-13.12-16.33,5.27-2.78,29.08-5.06,44.38C194,167.48,194.63,172.78,194.63,178Zm77.54-84.38.9-7.23c-44.29-23.12-92.44-9.06-138.81-12-4.37-.29-8.72,2.49-8,8,1.17,8.53,7.66,12.34,15,10.4,14.81-3.94,29-.38,43.54.42C213.84,94.71,243,93.59,272.17,93.59Z"/><path class="cls-10" d="M2941.27,225.09c8.34,4.58,10.8,12.79,13.56,21.06,20,59.88,35.88,121.25,67.23,181.48-43.42,2.85-83.58,4.6-123.86,2.35-13.59-.76-9.6-9.47-5.22-16.39,27.36-43.26,7-86.48-13.76-119.36-14.59-23.05-56.35-4.49-85.93-5.51-15.38-.53-15.64,12.34-20.38,22.51-18.29,39.27-19.52,77.46,8.4,116.77a718.72,718.72,0,0,1-113.43.46c-16.12-1.18-18.7-6.59-6.7-18.47,5.4-5.36,9-12.51,13.46-18.85,14.19,2.13,14.34-11,17-18.16,8.7-23.35,22.2-42.4,41.52-58,13.16-10.64,23-22.53,16.91-42.33-3.31-10.8,5.28-20.32,15.06-24.7,14.78-6.63,29.39-13.25,46.91-12.78,43.07,1.16,86.2.31,129.3.27l1.06,1-.94-1.1C2941.4,231.9,2941.33,228.5,2941.27,225.09Z"/><path class="cls-11" d="M1110.16,323.29c31.85,1.75,34.94-25.13,44.43-45.17,3.64-7.66,4.77-16.48,7.56-24.59,4.85-14.13,13.32-19,29.44-16.28,35.62,6.08,70.68,9.87,107.07-3.41,31.07-11.35,52.29,4,62.17,36,3.32,10.73,5.84,21.72,9.41,32.35,1.89,5.65,5.32,10.22,9.8,1.28,16.47,35.84,26.33,74.47,46.58,108.76,7.36,12.47-2.18,15.39-11.71,15.68-36.48,1.08-73,2-109.48,2.18-11.59.07-17-4.26-6-14.89,16.37-15.85,14.48-35.52,10.95-55.58-3.72-21.12-17.3-39-18.92-61-.81-11.09-10.71-12.26-19.87-12.16-18.27.19-36.74,2.27-54.78.36-27.33-2.9-39.78,11-44.93,34.76-6.42,29.66-14.41,59.33.16,89.21,5.91,12.13,2.89,19.59-12.68,19.07-26.09-.86-52.22-1-78.33-1.17-14-.07-20.6-3.93-11.35-18.25C1087.22,383.31,1095,351.6,1110.16,323.29Z"/><path class="cls-12" d="M1674.3,408.07c39.88-73.14,58.42-154.49,89.09-231.17,3.78-9.43,7.26-19,10.94-28.43,14.08-36.16,16-71.17-12-104.43,57.8,3.5,113.09,4.71,169.12-3.71,1.24,8.75-2.44,13.71-7,18.59-11.76,12.65-12.43,26.4-6.74,42.6,15,42.55,28.56,85.57,42.71,128.4a77.91,77.91,0,0,1-44.31,10.63c-33.72-1.58-67.63-1.1-101.38.33-39.06,1.66-46.41,8.6-57.19,46.64-3.78,13.35-6.6,28.77-20.6,34.31-13.49,5.35-16.58,15.39-21.42,26.77C1706,371.06,1701.73,397.8,1674.3,408.07ZM1872,225.92c-14.85-31.16-14.47-63.3-31.93-93.19-12.06,30-21.9,55.65-32.83,80.88-4.16,9.62-2,12.46,7.78,12.36C1833.19,225.79,1851.35,225.92,1872,225.92Z"/><path class="cls-13" d="M1674.3,408.07c27.43-10.27,31.67-37,41.22-59.47,4.84-11.38,7.93-21.42,21.42-26.77,14-5.54,16.82-21,20.6-34.31,10.78-38,18.13-45,57.19-46.64,33.75-1.43,67.66-1.91,101.38-.33a77.91,77.91,0,0,0,44.31-10.63c20.89,41.28,28.56,87.32,46.72,129.59,7.18,16.73,14.1,33.58,21.37,50.29,5.22,12,1.92,18.27-11.54,18.42-31.29.35-62.58.62-93.87,1.13-11.59.19-15.55-2.43-10.27-15.13,17.84-42.94-1.1-81.69-17.65-119.48-7.21-16.49-101.57-10.86-108.29,6.07-16,40.28-30.93,81.46,3.64,124.5-38.17,6.56-73.43,4.28-108.58,2.59C1666.33,427.15,1671.48,416.78,1674.3,408.07Z"/><path class="cls-14" d="M645.24,259.87c-24-36.91-58.1-26.61-92.16-21-24.71,4.08-50,1.6-75.19,5.16-37.42,5.3-57.39,32-79.34,56.92-6.59,7.49-7.21,20-19.19,23.19,17.86-57.07,41.65-112.07,58-169.75C448.44,115.09,453.18,78,420.66,44.73,484.65,45.27,545.4,51,613.3,42c-46.72,48.33-11.61,89.84,1.4,132.31C623.57,203.2,635,231.37,645.24,259.87ZM506.77,135.32c-13,25.05-23.73,48.57-29.7,74.36-2.53,10.93-5.84,22.69,10.86,19.84,19.07-3.25,43.45,13.69,56.76-13.47.34-.71.54-2.08.13-2.49C524.09,192.54,527.07,159.94,506.77,135.32Z"/><path class="cls-15" d="M2941.34,235.43c-43.1,0-86.23.89-129.3-.27-17.52-.47-32.13,6.15-46.91,12.78-9.78,4.38-18.37,13.9-15.06,24.7,6,19.8-3.75,31.69-16.91,42.33-19.32,15.61-32.82,34.66-41.52,58-2.66,7.12-2.81,20.29-17,18.16,29.85-78.08,61-155.7,86.24-235.44,5.15-16.24,9-32.92,12.67-49.58,5.23-24-8.31-42.54-20-58.66,49.52,0,98.49.1,147.46-.09,9.65,0,13.14,4.05,9.5,12.71-13.13,31.23.83,59.47,9.72,88.06,7.91,25.43,19.27,49.86,21,77,.06,3.41.13,6.81.19,10.22Zm-86-11c-4.65-30.46-16.91-56.94-28.57-89.52-17.05,30.27-24.82,58.73-31.68,89.52Z"/><path class="cls-16" d="M844.9,367.17c.64,16.08,13,14.64,22.8,13.59,42.53-4.53,81.41-17.43,107-54.69,12.26-17.81,34.33-25.91,45.57-49.6L1034,319.82l-.48-.64q-2.26,3.06-4.55,6.07c-26.17,62.5-78.18,89.31-140.85,99.35-50,8-100.65,6.54-151.16,5.09-16.06-.46-21.29-5.5-10.64-19.79,14.43-19.37,20.54-41.9,24.6-65.19,5.27,5.38,9.54,5.48,8.86-3.16-2.61-33.13,9.2-53.5,44.92-57.88,13.35-1.63,3.52-18.88,12.6-27.81,10.92,16,5.37,36.94,16.63,51.79C842.24,326.64,828.17,349.74,844.9,367.17Z"/><path class="cls-17" d="M2101.34,291.67c8.52-11.16,17.07-21,33.52-20.93,10.7,0,19.74-6.33,23.46-17.77,1.32-4.08,2.73-9.26,8.11-8.63,6.7.77,6.11,7,7.3,12,3.24,13.5-7.26,30.14,9.24,40.58,2.15,25,4.86,49.93,6.22,75,.73,13.45,3.94,25.06,13.13,35.22,12.47,13.79,9.1,21.34-9.65,21.62-39.87.6-79.76,3-125.07-1.33C2098.82,385.6,2101.39,338.91,2101.34,291.67Z"/><path class="cls-18" d="M1514,261.93c12.79,5.6,9.62,17.34,9.8,27.21.49,25.87.17,51.75,5.09,77.68,0-19.73-1-39.54.45-59.17.64-8.63-8.89-30.61,18.83-16.61,9.62,4.86,28.89-9.61,37.43-24.46,7.48,2.64,5.37,13.52,13.75,14.54,3.15,46.36-4.16,94.51,24.47,136.49,5.6,8.21-1.54,10.15-8.32,10.72-37.4,3.13-74.83,1.88-112.26.77-6.91-.21-14.36-3.81-9.42-10.67C1529,369.67,1520.91,315.82,1514,261.93Z"/><path class="cls-19" d="M751.51,146.6c6.37,59.16,6.2,118.34.51,177.54Z"/><path class="cls-20" d="M2825.23,471.09c-12.27-10.46-21.38.4-31.48,4.66-14-1.88-9.44-17.42-6.73-17,11.95,1.93,22.78-17.87,34-2C2823.76,460.61,2823.9,466.27,2825.23,471.09Z"/><path class="cls-21" d="M1558,231.83c2.79-10.83,4.51-22.41,18.17-25.51C1571.82,216.07,1570,227.59,1558,231.83Z"/><path class="cls-22" d="M2593.62,339.45C2589,338.72,2582,341.2,2581,335c-.87-5.41,5.44-4.26,9.24-4.63Q2591.91,334.92,2593.62,339.45Z"/><path class="cls-23" d="M1460.27,240.52c8.3,3,10.82,7.91,5.24,15.56C1465.46,250.32,1456.94,247.41,1460.27,240.52Z"/><path class="cls-24" d="M2585.31,318.08c-5.6-.86-9-4-10-9.64l6.73.8Z"/><path class="cls-25" d="M2570.22,298.12l-.72-14.83c4.38,4.07,7.1,8.94,7.19,15.06l-6.67-.41Z"/><path class="cls-26" d="M2582,309.24l-6.73-.8.09.14c.61-3.12,1.23-6.24,1.84-9.36A10.2,10.2,0,0,1,2582,309.24Z"/><path class="cls-27" d="M1576,206.44c.43-4,2.24-7.06,6.17-8.58Z"/><path class="cls-28" d="M2577.24,299.22c-.61,3.12-1.23,6.24-1.84,9.36L2570,297.94l6.66.41Z"/><path class="cls-29" d="M1029,325.25q2.28-3,4.55-6.07C1033.47,322.3,1032.48,324.72,1029,325.25Z"/><path class="cls-30" d="M1551.08,267.32c.3-2.25.61-4.51.91-6.77C1551.69,262.8,1551.38,265.06,1551.08,267.32Z"/><path class="cls-31" d="M2404.11,84c38.9,2.49,78.42-2.41,117.46,4.91C2482.23,98,2443.4,85.24,2404.11,84Z"/><path class="cls-32" d="M272.17,93.59c-29.13,0-58.33,1.12-87.38-.47-14.58-.8-28.73-4.36-43.54-.42-7.31,1.94-13.8-1.87-15-10.4-.74-5.48,3.61-8.26,8-8,46.37,3,94.52-11.09,138.81,12Z"/><polygon class="cls-33" points="2941.46 235.31 2942.4 236.41 2941.34 235.43 2941.46 235.31"/><path class="cls-34" d="M2797.52,454c6.87,19-2.43,35.07-9.34,51.57H2610.39c-60.66-46.62-95.74-110-120-180.87-4.91-14.37-8.69-32.25-30.29-33-37.25-1.26-41.89,3.15-39.58,40.75,1.26,20.54,2.07,41.18,14.22,59.3,9.2,13.71,1.66,18.78-11.53,19.17-31.29.94-62.59,1.7-93.89,2-4.85.05-11.63-1.47-14.12-4.81-3.53-4.7,1.76-9.31,5.43-12.94,19-18.74,21.24-43,21.77-67.53.78-36.46,1-72.94,1.48-109.41,7.81,11.65,2,25.67,5.6,35.95,43.48-7.76,86.38-6.27,129-1.09,11.22,1.36,22.45,8.73,24.55,23.67,1.55,11.09,8.8,13.54,19.32,9.08,6.26-2.65,13.38-3.26,20.12-4.8l-.19-.18,5.37,10.64-.08-.13c1,5.62,4.39,8.78,10,9.63,3.82,3.23,6,7.1,4.9,12.27-3.81.36-10.12-.78-9.25,4.62,1,6.24,8.05,3.76,12.66,4.49,20.13,49.31,40.14,99,81.73,135,27.9,24.09,61,36.58,98.47,28.86,12.85-2.65,29.43-6.8,19.93-27.53C2776.13,454.39,2785.24,443.53,2797.52,454Z"/><path class="cls-35" d="M146.64,505.56c-20.3-30.3-50.41-32.7-82.64-28.87-3.43.41-6.76,2-10.18,2.14-11.22.43-26.87,8.74-32.24-3.64-5.16-11.89,13-12.73,20-19.35,23-21.86,34.27-49.36,37.21-79.59,3.61-37,4-74.36,5.76-111.55,18.86-38.76,50.89-32.07,84.65-26.83,27.13,4.21,53.33-.12,80-12.86,25.47-12.15,56.13-12.49,85.2-12.87-17.86,39.75-57.19,49.7-92.28,64.08-18.1,7.42-38.88,9-58.67,11.37-15.17,1.81-20.61,8.51-20.48,23.46.4,48.6-1.38,97.24.45,145.77.62,16.4,9.48,32.5,14.57,48.74Z"/><path class="cls-36" d="M723.79,129.51c-5.79-48.4-11-61.47-42.17-101,72,5.26,141.51-8.21,209,10.42,105.25,29.06,152.66,127.63,131.5,232-2.47,12.2-10.12,21.43-15.85,31.8-4.28-13.58-8.56-27.16-13.65-43.35-11.25,23.7-33.32,31.8-45.57,49.61-25.65,37.26-64.53,50.15-107,54.69-9.79,1-22.17,2.49-22.81-13.6,34.34-5.45,69.43-8.58,94.68-37.44,41.4-47.3,37.5-109.75,3.69-167.15-19.16-32.54-46.78-45.52-83.42-47.22-22.68-1.06-27.32,6.79-26.69,27.92,1.61,54.75.67,109.57.75,164.36-11.26-14.84-5.71-35.75-16.63-51.77-9.07,8.93.75,26.17-12.59,27.8C741.24,271,729.43,291.32,732,324.45c.68,8.65-3.58,8.54-8.85,3.16l1.11-20.56C730,247.85,730.16,188.67,723.79,129.51Z"/><path class="cls-37" d="M2542.5,281c-6.74,1.54-13.86,2.15-20.12,4.8-10.52,4.46-17.77,2-19.32-9.08-2.1-14.94-13.33-22.31-24.55-23.67-42.64-5.18-85.54-6.67-129,1.09-3.62-10.28,2.21-24.3-5.6-35.95-.25-31.27-.73-62.54-.7-93.8,0-26.8-.65-53.18-17.05-76.42-3.89-5.52-7.39-13.71-3.45-19.57,4.7-7,12.28-1.57,19-.4,28.48,5,57.26.8,85.9,1.66,46.2,1.39,90.63,4.86,128,39,55.29,50.49,55.49,117.88-3.65,164-12.9,10.07-19.29,18.5-10.1,33.51Q2542.15,273.62,2542.5,281ZM2449.21,98.83c-25.92-.34-26.93-.35-27.11,15.57-.38,32.9.41,65.82.77,98.73.06,5.17.16,9.93,6.51,12.49,21,8.47,71.51-11.19,82.91-31.94C2541.05,141.31,2501.65,95,2449.21,98.83ZM2376.39,67c39.29,1.19,78.12,14,117.46,4.9C2454.81,64.53,2415.29,69.43,2376.39,67Z"/><path class="cls-38" d="M1082.44,306.19l12.47-42.91c14.15-54.81,41.32-105.41,52.67-161,5.69-27.92,5.37-55.13-26.86-76,66.18-3.3,126.4,8.4,189.18-.75-36,26.83-26,59.34-15.4,91.25,18.81,56.7,38.5,113.1,57.82,169.63-4.48,8.94-7.91,4.36-9.8-1.28-3.57-10.64-6.09-21.63-9.4-32.35-9.89-32-31.11-47.35-62.18-36-36.39,13.29-71.45,9.49-107.06,3.41-16.13-2.75-24.6,2.15-29.45,16.28-2.79,8.12-3.92,16.93-7.55,24.6-9.5,20-12.58,46.92-44.44,45.16m121.62-187.66c-11.36,28.57-21.23,52.44-27.5,77.71-2.29,9.23-2.09,15.91,9,16.4,13,.58,26,.42,39.05.06,6.8-.18,13.06-4.6,10.39-11.16C1224.47,175.55,1223.59,145.86,1204.06,118.53Z"/><path class="cls-39" d="M2073.63,274.57c-.72-50.41-1.53-100.83-2.08-151.24-.14-12.63-2-20.85-18.58-20.26-31.88,1.13-63.23,13.81-85.75,39.85-5.58-38.91-7.64-76.21-23.07-110.61-3.7-8.23,2.17-13.82,11.44-8.27,14.52,8.68,30.3,6.32,45.83,6.33,78.35,0,156.72-.9,235,.72,15.09.31,33.67-15,42.72-.93,5.09,7.89-7,26.83-11.35,40.81-.5,1.64.09,4-.88,5.07-11,12.42,2.39,32.86-12.5,42.67-18,11.86-25.58-13.7-40.89-14.07-3.43-.09-6.82-1.29-10.26-1.81-47.89-7.29-49.78-5.55-49.16,41.42.59,45.19.76,90.38,1.11,135.58-16.49-10.44-6-27.08-9.23-40.57-1.19-5-.6-11.25-7.3-12-5.38-.62-6.8,4.56-8.12,8.64-3.71,11.44-12.76,17.81-23.46,17.77C2090.69,253.58,2082.14,263.41,2073.63,274.57Z"/><path class="cls-40" d="M617.53,242.78c21.2,49,30.2,102.58,56.83,149.6,7.86,13.87-1.08,19.3-13.73,19.5-34.76.56-69.53.59-104.29.72-13.94.06-13.36-7.83-8.62-17,22-42.57-6-79.42-13.51-118.59-1.23-6.41-7.24-7.21-12.44-7.08q-40.36.94-80.72,2.5c-11.38.44-16,7.89-18.85,18.14-9.86,35.78-22.84,71.22-3.81,108.11,3.91,7.57,1.87,13.8-8.23,13.83-37.78.09-75.55,0-114.54-3.23,32-28.51,39.58-67.76,56-102.19,12-3.2,12.6-15.69,19.19-23.18C392.78,259,412.75,232.27,450.18,227c25.16-3.56,50.47-1.08,75.19-5.17C559.43,216.17,593.57,205.86,617.53,242.78Z"/><path class="cls-41" d="M1572.76,250.23q-.55,6.89-1.12,13.8c-8.39-1-6.27-11.9-13.75-14.54-8.55,14.85-27.81,29.32-37.44,24.46-27.72-14-18.19,8-18.82,16.6-1.45,19.63-.46,39.44-.46,59.18-4.92-25.93-4.59-51.82-5.08-77.69-.19-9.86,3-21.6-9.81-27.21.3-2,.61-3.9.91-5.85,5.58-7.65,3.06-12.57-5.24-15.56-18.63-49.82-47.46-93.86-75.25-138.84-8.94-14.48-15.34-31.95-24.65-47.3-5.09-8.41-.75-14,8.68-12.25,36.18,6.59,72.39,4.07,117.2-1.66-37.71,36.06-13.72,64,.25,92.24,10.65,21.55,23.3,42.12,37.3,67.12,12.69-54.81,67-94.09,36.36-158.16,41.15,4.82,79.87,10.38,119-1.12-37.2,50.51-63.16,106.34-97,157.32-3.94,1.51-5.75,4.55-6.18,8.57l-1.41-1.77s1.56,1.65,1.55,1.66c-13.66,3.1-15.38,14.68-18.16,25.5,1,10.19-1.65,19.62-6,28.72C1573.37,245.72,1573.06,248,1572.76,250.23Z"/><path class="cls-42" d="M334.43,212.14c-29.07.38-59.73.72-85.2,12.87-26.7,12.74-52.9,17.07-80,12.86-33.76-5.24-65.79-11.93-84.65,26.83-.66-74.63-1.11-149.25-2.17-223.86-.21-14.6,3.19-15.49,18-13.53,19.61,2.59,39.12,6.18,60.21,5.2,55.28-2.56,113-4.45,156.18,42.6C350.43,111.77,358.54,170,334.43,212.14ZM166.92,160.88h.41c0,6.06,0,12.13,0,18.19.26,49.53,2.64,51.31,53.1,40,23.75-5.33,41.33-17.92,47.63-42.38,6.57-25.49-3.29-46.47-22.05-62.63-21.52-18.52-50-20.81-73.92-13.11-16.33,5.26-2.77,29.08-5.06,44.37C166.28,150.39,166.92,155.68,166.92,160.88Zm77.53-84.39.9-7.22c-44.28-23.13-92.44-9.07-138.8-12-4.38-.28-8.73,2.49-8,8,1.16,8.54,7.66,12.34,15,10.4,14.81-3.94,29-.38,43.54.42C186.12,77.62,215.32,76.49,244.45,76.49Z"/><path class="cls-43" d="M2913.55,208c8.34,4.58,10.8,12.79,13.57,21.07,20,59.87,35.87,121.25,67.23,181.47-43.43,2.85-83.59,4.61-123.86,2.36-13.6-.76-9.61-9.48-5.23-16.4,27.36-43.26,7-86.47-13.76-119.35-14.58-23.06-56.35-4.49-85.92-5.52-15.39-.53-15.64,12.34-20.38,22.51-18.3,39.27-19.53,77.46,8.4,116.78a718.8,718.8,0,0,1-113.44.45c-16.12-1.18-18.69-6.59-6.7-18.47,5.41-5.35,9-12.51,13.47-18.84,14.18,2.12,14.33-11,17-18.17a131.75,131.75,0,0,1,41.52-58c13.16-10.64,23-22.52,16.91-42.32-3.3-10.81,5.29-20.32,15.06-24.71,14.78-6.62,29.39-13.25,46.91-12.77,43.07,1.16,86.2.31,129.3.26l1.07,1-1-1.1Q2913.65,213.11,2913.55,208Z"/><path class="cls-44" d="M1082.44,306.19c31.86,1.76,34.94-25.12,44.44-45.16,3.63-7.67,4.76-16.48,7.55-24.6,4.85-14.13,13.32-19,29.45-16.28,35.61,6.08,70.67,9.88,107.06-3.41,31.07-11.34,52.29,4,62.18,36,3.31,10.72,5.83,21.71,9.4,32.35,1.89,5.64,5.32,10.22,9.8,1.28,16.48,35.84,26.33,74.47,46.58,108.75,7.37,12.48-2.17,15.4-11.7,15.68-36.49,1.08-73,2-109.49,2.19-11.59.06-17-4.26-6-14.9,16.37-15.85,14.47-35.52,10.94-55.57-3.72-21.12-17.3-39-18.91-61-.82-11.09-10.71-12.27-19.87-12.17-18.28.2-36.74,2.27-54.79.36-27.33-2.89-39.78,11-44.92,34.77-6.42,29.65-14.42,59.33.15,89.2,5.92,12.13,2.9,19.59-12.68,19.07-26.09-.86-52.21-1-78.32-1.17-14-.07-20.61-3.92-11.36-18.24C1059.5,366.21,1067.32,334.51,1082.44,306.19Z"/><path class="cls-45" d="M1646.58,391c39.88-73.14,58.42-154.49,89.1-231.17,3.77-9.43,7.25-19,10.93-28.44,14.08-36.15,16-71.17-12-104.43,57.79,3.5,113.08,4.71,169.12-3.71,1.24,8.75-2.44,13.72-7,18.59C1885,54.47,1884.3,68.23,1890,84.43c15,42.54,28.57,85.56,42.71,128.39a77.89,77.89,0,0,1-44.3,10.63c-33.73-1.58-67.64-1.09-101.39.34-39,1.65-46.41,8.59-57.19,46.63-3.78,13.35-6.6,28.77-20.6,34.32-13.49,5.34-16.57,15.38-21.41,26.77C1678.26,354,1674,380.7,1646.58,391ZM1844.3,208.82c-14.84-31.15-14.47-63.3-31.92-93.19-12.07,30-21.91,55.66-32.83,80.88-4.17,9.62-2,12.46,7.77,12.36C1805.48,208.69,1823.64,208.82,1844.3,208.82Z"/><path class="cls-46" d="M1646.58,391c27.44-10.28,31.68-37,41.23-59.47,4.84-11.39,7.92-21.43,21.41-26.77,14-5.55,16.82-21,20.6-34.32,10.78-38,18.14-45,57.19-46.63,33.75-1.43,67.66-1.92,101.39-.34a77.89,77.89,0,0,0,44.3-10.63c20.89,41.28,28.56,87.32,46.72,129.59,7.19,16.74,14.11,33.59,21.37,50.29,5.22,12,1.92,18.27-11.54,18.42-31.29.35-62.58.62-93.87,1.14-11.59.19-15.55-2.43-10.27-15.14,17.84-42.94-1.1-81.68-17.64-119.48-7.22-16.48-101.58-10.86-108.3,6.07-16,40.29-30.92,81.46,3.65,124.5-38.17,6.57-73.44,4.29-108.59,2.59C1638.61,410.05,1643.77,399.69,1646.58,391Z"/><path class="cls-47" d="M617.53,242.78c-24-36.92-58.1-26.61-92.16-21-24.72,4.09-50,1.61-75.19,5.17-37.43,5.3-57.4,32-79.35,56.92-6.59,7.49-7.21,20-19.19,23.18C369.51,250,393.29,195,409.6,137.32,420.72,98,425.47,61,392.94,27.63c64,.54,124.74,6.26,192.64-2.77C538.87,73.19,574,114.7,587,157.17,595.86,186.11,607.26,214.27,617.53,242.78ZM479.05,118.22c-13,25.05-23.73,48.58-29.69,74.36-2.53,10.93-5.85,22.7,10.85,19.85,19.08-3.26,43.45,13.68,56.76-13.47.35-.71.54-2.09.14-2.5C496.38,175.44,499.35,142.84,479.05,118.22Z"/><path class="cls-48" d="M2913.62,218.33c-43.1,0-86.23.9-129.3-.26-17.52-.48-32.13,6.15-46.91,12.77-9.77,4.39-18.36,13.9-15.06,24.71,6.05,19.8-3.75,31.68-16.91,42.32a131.75,131.75,0,0,0-41.52,58c-2.66,7.13-2.81,20.29-17,18.17,29.84-78.09,61-155.71,86.24-235.45,5.14-16.23,9-32.91,12.67-49.57,5.22-24-8.31-42.54-20-58.67,49.51,0,98.48.11,147.46-.09,9.64,0,13.14,4.06,9.5,12.71-13.14,31.23.82,59.47,9.71,88.07,7.91,25.42,19.27,49.85,21,76.95.07,3.4.13,6.81.19,10.21Zm-86-11c-4.65-30.46-16.92-56.94-28.57-89.52-17.06,30.27-24.83,58.74-31.68,89.52Z"/><path class="cls-49" d="M817.18,350.07c.64,16.09,13,14.64,22.81,13.6,42.52-4.54,81.4-17.43,107-54.69,12.25-17.81,34.32-25.91,45.57-49.61,5.09,16.19,9.37,29.77,13.65,43.35l-.48-.63c-1.5,2-3,4.05-4.55,6.07-26.17,62.5-78.17,89.3-140.85,99.34-50,8-100.64,6.54-151.15,5.09-16.06-.46-21.3-5.49-10.65-19.79,14.43-19.36,20.55-41.89,24.61-65.19,5.27,5.38,9.53,5.49,8.85-3.16-2.61-33.13,9.2-53.5,44.93-57.88,13.34-1.63,3.52-18.87,12.59-27.8,10.92,16,5.37,36.93,16.63,51.78C814.52,309.54,800.46,332.64,817.18,350.07Z"/><path class="cls-50" d="M2073.63,274.57c8.51-11.16,17.06-21,33.51-20.92,10.7,0,19.75-6.33,23.46-17.77,1.32-4.08,2.74-9.26,8.12-8.64,6.7.77,6.11,7,7.3,12,3.24,13.49-7.26,30.13,9.23,40.57,2.15,25,4.86,49.94,6.22,75,.73,13.44,3.94,25.05,13.13,35.22,12.47,13.79,9.1,21.33-9.64,21.62-39.88.6-79.77,3-125.08-1.33C2071.11,368.51,2073.68,321.81,2073.63,274.57Z"/><path class="cls-51" d="M1486.28,244.83c12.79,5.61,9.62,17.35,9.81,27.21.49,25.87.16,51.76,5.08,77.69,0-19.74-1-39.55.46-59.18.63-8.63-8.9-30.6,18.82-16.6,9.63,4.86,28.89-9.61,37.44-24.46,7.48,2.64,5.36,13.51,13.75,14.54,3.15,46.36-4.17,94.5,24.46,136.48,5.6,8.21-1.54,10.16-8.32,10.72-37.4,3.14-74.83,1.89-112.26.77-6.91-.2-14.36-3.81-9.42-10.66C1501.25,352.58,1493.19,298.72,1486.28,244.83Z"/><path class="cls-52" d="M723.79,129.51c6.37,59.16,6.2,118.34.51,177.54Z"/><path class="cls-53" d="M2797.52,454c-12.28-10.46-21.39.4-31.49,4.66-14-1.88-9.43-17.42-6.73-17,11.95,1.92,22.78-17.88,34-2C2796,443.51,2796.19,449.17,2797.52,454Z"/><path class="cls-54" d="M1530.24,214.73c2.78-10.82,4.5-22.4,18.16-25.5C1544.11,199,1542.29,210.49,1530.24,214.73Z"/><path class="cls-55" d="M2565.9,322.36c-4.61-.73-11.65,1.75-12.66-4.49-.87-5.4,5.44-4.26,9.25-4.62Z"/><path class="cls-56" d="M1432.55,223.42c8.3,3,10.83,7.91,5.24,15.56C1437.75,233.22,1429.23,230.31,1432.55,223.42Z"/><path class="cls-57" d="M2557.59,301c-5.6-.85-9-4-10-9.63l6.72.8Z"/><path class="cls-58" d="M2542.5,281q-.36-7.41-.71-14.83c4.37,4.08,7.09,8.95,7.18,15.06l-6.66-.41Z"/><path class="cls-59" d="M2554.32,292.15l-6.72-.8.08.13q.93-4.68,1.84-9.36A10.2,10.2,0,0,1,2554.32,292.15Z"/><path class="cls-60" d="M1548.26,189.34c.43-4,2.24-7.06,6.18-8.57Z"/><path class="cls-61" d="M2549.52,282.12q-.92,4.68-1.84,9.36l-5.37-10.64,6.66.41Z"/><path class="cls-62" d="M1001.23,308.16c1.52-2,3-4,4.55-6.07C1005.76,305.21,1004.76,307.62,1001.23,308.16Z"/><path class="cls-63" d="M1523.36,250.23c.31-2.26.61-4.51.91-6.78Q1523.82,246.83,1523.36,250.23Z"/><path class="cls-64" d="M2376.39,67c38.9,2.48,78.42-2.42,117.46,4.9C2454.51,80.93,2415.68,68.14,2376.39,67Z"/><path class="cls-65" d="M244.45,76.49c-29.13,0-58.33,1.13-87.37-.47-14.59-.8-28.73-4.36-43.54-.42-7.31,1.94-13.81-1.86-15-10.4-.75-5.48,3.6-8.25,8-8,46.36,3,94.52-11.09,138.8,12Z"/><polygon class="cls-66" points="2913.74 218.21 2914.69 219.31 2913.62 218.33 2913.74 218.21"/></svg>