<svg id="Layer_1" data-name="Layer 1" xmlns="http://www.w3.org/2000/svg" xmlns:xlink="http://www.w3.org/1999/xlink" viewBox="0 0 620.91 540.62"><defs><style>.cls-1{fill:url(#linear-gradient);}.cls-2{fill:url(#linear-gradient-2);}.cls-3{fill:url(#linear-gradient-3);}.cls-4{fill:url(#linear-gradient-4);}.cls-5{fill:url(#linear-gradient-5);}.cls-6{fill:url(#linear-gradient-6);}.cls-7{fill:url(#linear-gradient-7);}.cls-8{fill:url(#linear-gradient-8);}.cls-9{fill:url(#linear-gradient-9);}.cls-10{fill:url(#linear-gradient-10);}.cls-11{fill:url(#linear-gradient-11);}.cls-12{fill:url(#linear-gradient-12);}</style><linearGradient id="linear-gradient" x1="28.83" y1="267.97" x2="573.33" y2="267.97" gradientUnits="userSpaceOnUse"><stop offset="0" stop-color="#ff6200"/><stop offset="1" stop-color="#ffb638"/></linearGradient><linearGradient id="linear-gradient-2" x1="119.12" y1="237.51" x2="247" y2="237.51" xlink:href="#linear-gradient"/><linearGradient id="linear-gradient-3" x1="178.46" y1="373.12" x2="504.65" y2="373.12" gradientUnits="userSpaceOnUse"><stop offset="0" stop-color="#cf580e"/><stop offset="1" stop-color="#c28a2b"/></linearGradient><linearGradient id="linear-gradient-4" x1="46.43" y1="398.62" x2="280.82" y2="398.62" xlink:href="#linear-gradient-3"/><linearGradient id="linear-gradient-5" x1="133.82" y1="148.63" x2="256.56" y2="148.63" xlink:href="#linear-gradient-3"/><linearGradient id="linear-gradient-6" x1="469.13" y1="128.04" x2="577.45" y2="128.04" xlink:href="#linear-gradient-3"/><linearGradient id="linear-gradient-7" x1="98.51" y1="185.26" x2="169.68" y2="185.26" xlink:href="#linear-gradient-3"/><linearGradient id="linear-gradient-8" x1="278.86" y1="71.64" x2="333.46" y2="71.64" xlink:href="#linear-gradient-3"/><linearGradient id="linear-gradient-9" x1="84.69" y1="300.34" x2="292.93" y2="300.34" xlink:href="#linear-gradient-3"/><linearGradient id="linear-gradient-10" x1="296.37" y1="186.34" x2="457.68" y2="186.34" xlink:href="#linear-gradient-3"/><linearGradient id="linear-gradient-11" x1="200.29" y1="299.61" x2="259.21" y2="299.61" xlink:href="#linear-gradient"/><linearGradient id="linear-gradient-12" x1="201.79" y1="318.9" x2="258.78" y2="318.9" xlink:href="#linear-gradient"/></defs><path class="cls-1" d="M247,237.19c4.43-.66,3-3.87,3-6.19,0-28.13-.2-56.27-.31-84.4,0-2,.09-4.09.14-6.14,3.12-8.16,1.73-12.22-4.62-12.23-30.3,0-60.64-.94-90.89.87-19.7,1.18-28.87,16.8-24.62,30,1.58,13.72,8.22,20,23.77,22.5,2.14.35,4.55-.21,6.31,1.49.52,3.59-2.41,4.3-5.15,5.16-18,5.62-42.43-2.29-54.2-17.64-2.46-3.2-4.69-6.55-7-9.83-9.41-30.67,11.95-54.52,45.33-59.69a216.91,216.91,0,0,1,48.41-1.6c3.68.26,7.39.13,11.08.13l111.45-.18,18.65,1.39a26.12,26.12,0,0,0-8.5-6.39,150.11,150.11,0,0,1-20.58-12.18c-16.41-11.75-25.88-26.3-22.75-46.07a24.17,24.17,0,0,0,0-3.9c.83-6.38,5.14-10.8,10.34-16.45,1.22,6.83,2.77,12.08,5.44,17C298,43.39,306.57,51.11,317.13,57.8,346.91,76.66,379,90.66,414.39,97.93c6.72,1.38,13.82,1.55,20.76,1.59,28.28.17,56.57.13,84.86,0a74.06,74.06,0,0,0,22.29-3.49c8.43-2.69,15.34-7.19,19-14.86,1.87-3.87,3.55-2.79,5.24-.2,5.13,7.85,8.74,16,5.56,25.42-4.55,4.93-7.3,11.12-13.54,14.91-9.43,5.73-19.83,7.83-30.88,7.73-19-.17-38.08.55-57.07-1-2.56-.21-5.14,0-6.27,2.51-1.3,2.82,1.32,4,3.28,5.24,1.5.95,3.19,1.64,4.79,2.45,12.78,13.38,23.18,27.95,26.46,45.85,1.37,7.45,3,15,.58,22.56-1,3.4-1.7,6.86-2.89,10.19-10.18,28.49-42.87,49.83-77.85,50.31-26.85.38-53.72.14-80.58.16-7.3,0-8.7,1.24-8.67,7.76q.13,32,.25,64a274.47,274.47,0,0,1-3.2,44.16,243,243,0,0,1-19.81,64.54c-9.49,20.41-22,38.86-41.72,51.74-27.8,18.11-57.71,28.78-91.65,12.87-12.66-11.94-6.66-29.49,3.55-34.64,4.62-2.33,9.6-4,14.66-3.2,24.77,3.93,42.74-5.84,57.35-22.88a93.9,93.9,0,0,0,19.65-36.34c4-7.43,5.6-15.43,7.14-24.77-3.39,2.47-5.74,4.17-8.08,5.89C260.92,401.36,254,406,246,409c-37.46,14-75.73,14.4-114.36,5-35.74-8.73-65.86-25.25-86.83-53.92-.89-1.23-1.76-2.55-3.43-3.09-31.42-51.33-.25-108.07,56-118,7.26-1.28,14.62-.21,21.75-1.91,1.37,1.19,3.1.74,4.67.74q59.22,0,118.44,0A35.45,35.45,0,0,0,247,237.19Zm205-51.14c.89-1.61.51-3.24.23-4.93-3.71-22.36-36.1-56.05-72.18-53.25-26.38,2.06-52.86,1.4-79.31.34-7.69-.31-9.37,1.36-9.37,8.49q0,46.37,0,92.73c0,1.79-.72,3.77,1,5.33.7,2.36,2.76,2.45,4.89,2.44,33-.15,66.07-.17,99.11-.5A71.14,71.14,0,0,0,427,229.35C446.18,220.06,453.47,205.18,452,186.05ZM286.67,302c1.62-1.11,1-2.73,1-4.15.06-8.05-.2-16.12.11-24.16.19-4.91-1.74-6.45-7.15-6.43-45.36.17-90.73.05-136.09.14-7.16,0-14.35.35-21.48,1-30.46,2.73-50,28.72-41.49,54.81C85,340,94.53,353.6,109.87,363.08c39.79,24.6,82.74,28.69,127.58,13.77,23.9-8,38.81-24.14,45.64-46.58C285.92,321,286.54,311.54,286.67,302Z"/><path class="cls-2" d="M247,237.19a35.45,35.45,0,0,1-4.77.64q-59.22.06-118.44,0c-1.57,0-3.3.45-4.67-.74Z"/><path class="cls-3" d="M178.46,517.47c33.94,15.91,63.86,5.24,91.66-12.88,19.76-12.87,32.22-31.33,41.71-51.74a242.18,242.18,0,0,0,19.81-64.54,273.34,273.34,0,0,0,3.21-44.16q-.14-32-.25-64c0-6.51,1.36-7.75,8.67-7.76,26.86,0,53.72.22,80.58-.15,35-.49,67.67-21.83,77.84-50.32,1.19-3.33,1.94-6.79,2.89-10.19,1.12,26.06-11.2,45.36-35.5,58.57-17.49,9.5-36.75,12.22-56.72,12.15-15.79-.05-31.57.65-47.36-.76-6.45-.58-13.09.4-19.63.86-4.74.34-5.78,3.27-5.77,7.13,0,19.85.42,39.72-.26,59.56-1.22,35.15-2.9,70.25-16.8,103.8-12.3,29.68-31.52,54.25-61.78,70.39a90.75,90.75,0,0,1-65.26,8.44C187.27,529.9,180.37,526,178.46,517.47Z"/><path class="cls-4" d="M46.43,362.1c1.67.54,2.54,1.86,3.44,3.09,21,28.68,51.09,45.2,86.83,53.92,38.63,9.43,76.9,9,114.36-5,8-3,15-7.67,21.68-12.61,2.33-1.72,4.69-3.42,8.08-5.89-1.54,9.34-3.11,17.33-7.14,24.76-1.13-4-3.68-3-6.48-1.6-23.46,12.16-49,16.35-75.62,16.34-44.16,0-84-11.28-117.83-37.94C61.56,387.58,51.42,376.47,46.43,362.1Z"/><path class="cls-5" d="M134.84,164.17c-4.25-13.16,4.91-28.79,24.62-30,30.25-1.81,60.59-.92,90.89-.87,6.34,0,7.73,4.07,4.61,12.22-1-2.86-3.55-2.65-6-2.65-27,0-54-.38-81,.15-14.29.29-26.49,4.91-31.23,19C136.47,162.88,135.49,163.48,134.84,164.17Z"/><path class="cls-6" d="M477.55,143.32a51.31,51.31,0,0,1-4.79-2.45c-2-1.24-4.58-2.42-3.29-5.23,1.13-2.47,3.71-2.73,6.27-2.51,19,1.6,38,.87,57.08,1,11,.1,21.45-2,30.88-7.73,6.23-3.79,9-10,13.54-14.91,1.7,15.48-6.62,26.12-24,30.34-16.31,4-32.89,2.6-49.43,1.72C495.08,143.12,486.33,141.66,477.55,143.32Z"/><path class="cls-7" d="M98.54,165.86c2.33,3.28,4.57,6.62,7,9.82,11.78,15.35,36.19,23.27,54.2,17.64,2.74-.85,5.68-1.57,5.15-5.15,7,5,6.23,10.54-2,13.86-15.08,6.11-37.06,1.35-50.42-11.64C105.48,183.54,98,176.49,98.54,165.86Z"/><path class="cls-8" d="M281.64,37.36a25.51,25.51,0,0,1,0,3.91C278.5,61,288,75.59,304.38,87.33A149,149,0,0,0,325,99.51a26.09,26.09,0,0,1,8.51,6.4l-18.65-1.4c1.15-3.77-2.39-4.79-4.69-6.36-15.21-10.42-26.41-23.38-30.05-40.78C278.69,50.72,277.71,43.81,281.64,37.36Z"/><path class="cls-9" d="M222.62,283.77c-6.83-2.86-14.15-1.7-21.25-1.93-20.89-.67-41.84-1.44-62.68.18-33.62,2.63-48.28,16.05-52,46.29-8.56-26.1,11-52.08,41.5-54.82,7.12-.64,14.31-1,21.47-1,45.37-.09,90.73,0,136.09-.15,5.41,0,7.34,1.53,7.16,6.44-.31,8-.06,16.1-.11,24.16,0,1.41.59,3-1,4.15,0-6.32-.18-12.64-.14-18.95,0-3.21-1.16-5.86-4.87-5.93-12.8-.23-25.62-.38-38.39.68-.54,0-1,.58-1.54.88C238.77,282.56,230.69,282.06,222.62,283.77Z"/><path class="cls-10" d="M457.12,191.16c-7.2-19.09-19.84-34.19-38.93-44.69a28.66,28.66,0,0,0-15.73-3.64c-32.59,1.52-65.18.84-97.77,0-5.15-.13-6.8,1.32-6.78,6,.1,28.08-.07,56.17-.16,84.25,0,2.25-.15,4.49-.23,6.73-1.72-1.55-1-3.54-1-5.33q-.06-46.36,0-92.72c0-7.13,1.69-8.8,9.37-8.49,26.45,1.06,52.93,1.71,79.31-.34,36.08-2.81,68.48,30.88,72.18,53.25C457.63,187.92,458,189.54,457.12,191.16Z"/><path class="cls-11" d="M217.51,278.66c8.08-1.7,16.15-1.2,24.22,0,4.19,3.69,9.89,5.8,13,10.66,3.69,5.79,6,11.69,3.29,18.4a16.28,16.28,0,0,0-2.67,2.23c-7.7,9.94-18.59,12.53-31.15,11.45-9.68-.84-16.32-6.2-22.4-12.42C198,294.56,200.68,289.41,217.51,278.66Z"/><path class="cls-12" d="M201.79,309c6.08,6.22,12.72,11.58,22.4,12.42,12.56,1.08,23.45-1.51,31.15-11.45a16.28,16.28,0,0,1,2.67-2.23c2.05,5.82-.14,10.64-4.53,14.73-11.82,11-36.2,9.78-46.7-2.28A19.9,19.9,0,0,1,201.79,309Z"/></svg>