<svg id="Layer_1" data-name="Layer 1" xmlns="http://www.w3.org/2000/svg" xmlns:xlink="http://www.w3.org/1999/xlink" viewBox="0 0 3096.48 540.62"><defs><style>.cls-1{fill:url(#linear-gradient);}.cls-2{fill:url(#linear-gradient-2);}.cls-3{fill:url(#linear-gradient-3);}.cls-4{fill:url(#linear-gradient-4);}.cls-5{fill:url(#linear-gradient-5);}.cls-6{fill:url(#linear-gradient-6);}.cls-7{fill:url(#linear-gradient-7);}.cls-8{fill:url(#linear-gradient-8);}.cls-9{fill:url(#linear-gradient-9);}.cls-10{fill:url(#linear-gradient-10);}.cls-11{fill:url(#linear-gradient-11);}.cls-12{fill:url(#linear-gradient-12);}.cls-13{fill:url(#linear-gradient-13);}.cls-14{fill:url(#linear-gradient-14);}.cls-15{fill:url(#linear-gradient-15);}.cls-16{fill:url(#linear-gradient-16);}.cls-17{fill:url(#linear-gradient-17);}.cls-18{fill:url(#linear-gradient-18);}.cls-19{fill:url(#linear-gradient-19);}.cls-20{fill:url(#linear-gradient-20);}.cls-21{fill:url(#linear-gradient-21);}.cls-22{fill:url(#linear-gradient-22);}.cls-23{fill:url(#linear-gradient-23);}.cls-24{fill:url(#linear-gradient-24);}.cls-25{fill:url(#linear-gradient-25);}.cls-26{fill:url(#linear-gradient-26);}.cls-27{fill:url(#linear-gradient-27);}.cls-28{fill:url(#linear-gradient-28);}.cls-29{fill:url(#linear-gradient-29);}.cls-30{fill:url(#linear-gradient-30);}.cls-31{fill:url(#linear-gradient-31);}.cls-32{fill:url(#linear-gradient-32);}.cls-33{fill:url(#linear-gradient-33);}.cls-34{fill:url(#linear-gradient-34);}.cls-35{fill:url(#linear-gradient-35);}.cls-36{fill:url(#linear-gradient-36);}.cls-37{fill:url(#linear-gradient-37);}.cls-38{fill:url(#linear-gradient-38);}.cls-39{fill:url(#linear-gradient-39);}.cls-40{fill:url(#linear-gradient-40);}.cls-41{fill:url(#linear-gradient-41);}.cls-42{fill:url(#linear-gradient-42);}.cls-43{fill:url(#linear-gradient-43);}.cls-44{fill:url(#linear-gradient-44);}.cls-45{fill:url(#linear-gradient-45);}.cls-46{fill:url(#linear-gradient-46);}.cls-47{fill:url(#linear-gradient-47);}.cls-48{fill:url(#linear-gradient-48);}.cls-49{fill:url(#linear-gradient-49);}.cls-50{fill:url(#linear-gradient-50);}.cls-51{fill:url(#linear-gradient-51);}.cls-52{fill:url(#linear-gradient-52);}.cls-53{fill:url(#linear-gradient-53);}.cls-54{fill:url(#linear-gradient-54);}.cls-55{fill:url(#linear-gradient-55);}.cls-56{fill:url(#linear-gradient-56);}.cls-57{fill:url(#linear-gradient-57);}.cls-58{fill:url(#linear-gradient-58);}.cls-59{fill:url(#linear-gradient-59);}.cls-60{fill:url(#linear-gradient-60);}.cls-61{fill:url(#linear-gradient-61);}.cls-62{fill:url(#linear-gradient-62);}.cls-63{fill:url(#linear-gradient-63);}.cls-64{fill:url(#linear-gradient-64);}.cls-65{fill:url(#linear-gradient-65);}.cls-66{fill:url(#linear-gradient-66);}.cls-67{fill:url(#linear-gradient-67);}.cls-68{fill:url(#linear-gradient-68);}.cls-69{fill:url(#linear-gradient-69);}.cls-70{fill:url(#linear-gradient-70);}.cls-71{fill:url(#linear-gradient-71);}.cls-72{fill:url(#linear-gradient-72);}.cls-73{fill:url(#linear-gradient-73);}.cls-74{fill:url(#linear-gradient-74);}.cls-75{fill:url(#linear-gradient-75);}.cls-76{fill:url(#linear-gradient-76);}.cls-77{fill:url(#linear-gradient-77);}.cls-78{fill:url(#linear-gradient-78);}</style><linearGradient id="linear-gradient" x1="28.83" y1="267.97" x2="573.33" y2="267.97" gradientUnits="userSpaceOnUse"><stop offset="0" stop-color="#ff6200"/><stop offset="1" stop-color="#ffb638"/></linearGradient><linearGradient id="linear-gradient-2" x1="119.12" y1="237.51" x2="247" y2="237.51" xlink:href="#linear-gradient"/><linearGradient id="linear-gradient-3" x1="178.46" y1="373.12" x2="504.65" y2="373.12" gradientUnits="userSpaceOnUse"><stop offset="0" stop-color="#cf580e"/><stop offset="1" stop-color="#c28a2b"/></linearGradient><linearGradient id="linear-gradient-4" x1="46.43" y1="398.62" x2="280.82" y2="398.62" xlink:href="#linear-gradient-3"/><linearGradient id="linear-gradient-5" x1="133.82" y1="148.63" x2="256.56" y2="148.63" xlink:href="#linear-gradient-3"/><linearGradient id="linear-gradient-6" x1="469.13" y1="128.04" x2="577.45" y2="128.04" xlink:href="#linear-gradient-3"/><linearGradient id="linear-gradient-7" x1="98.51" y1="185.26" x2="169.68" y2="185.26" xlink:href="#linear-gradient-3"/><linearGradient id="linear-gradient-8" x1="278.86" y1="71.64" x2="333.46" y2="71.64" xlink:href="#linear-gradient-3"/><linearGradient id="linear-gradient-9" x1="84.69" y1="300.34" x2="292.93" y2="300.34" xlink:href="#linear-gradient-3"/><linearGradient id="linear-gradient-10" x1="296.37" y1="186.34" x2="457.68" y2="186.34" xlink:href="#linear-gradient-3"/><linearGradient id="linear-gradient-11" x1="200.29" y1="299.61" x2="259.21" y2="299.61" xlink:href="#linear-gradient"/><linearGradient id="linear-gradient-12" x1="201.79" y1="318.9" x2="258.78" y2="318.9" xlink:href="#linear-gradient"/><linearGradient id="linear-gradient-13" x1="2518.96" y1="392.31" x2="2917.06" y2="392.31" gradientUnits="userSpaceOnUse"><stop offset="0" stop-color="#bf4a00"/><stop offset="1" stop-color="#bf892a"/></linearGradient><linearGradient id="linear-gradient-14" x1="639.93" y1="389.82" x2="897.01" y2="389.82" xlink:href="#linear-gradient-13"/><linearGradient id="linear-gradient-15" x1="1181.47" y1="256.7" x2="1464.49" y2="256.7" xlink:href="#linear-gradient-13"/><linearGradient id="linear-gradient-16" x1="2524.63" y1="223.97" x2="2750.49" y2="223.97" xlink:href="#linear-gradient-13"/><linearGradient id="linear-gradient-17" x1="1509.87" y1="231.72" x2="1730.99" y2="231.72" xlink:href="#linear-gradient-13"/><linearGradient id="linear-gradient-18" x1="2214.97" y1="219.38" x2="2491.4" y2="219.38" xlink:href="#linear-gradient-13"/><linearGradient id="linear-gradient-19" x1="865.2" y1="353.35" x2="1177.94" y2="353.35" xlink:href="#linear-gradient-13"/><linearGradient id="linear-gradient-20" x1="1753.58" y1="248.65" x2="2016.57" y2="248.65" xlink:href="#linear-gradient-13"/><linearGradient id="linear-gradient-21" x1="690.48" y1="215.12" x2="908.4" y2="215.12" xlink:href="#linear-gradient-13"/><linearGradient id="linear-gradient-22" x1="2774.54" y1="350.58" x2="3076.35" y2="350.58" xlink:href="#linear-gradient-13"/><linearGradient id="linear-gradient-23" x1="1473.18" y1="352.27" x2="1771.3" y2="352.27" xlink:href="#linear-gradient-13"/><linearGradient id="linear-gradient-24" x1="1972.09" y1="265.5" x2="2206.51" y2="265.5" xlink:href="#linear-gradient-13"/><linearGradient id="linear-gradient-25" x1="1969.53" y1="352.03" x2="2264.23" y2="352.03" xlink:href="#linear-gradient-13"/><linearGradient id="linear-gradient-26" x1="911.11" y1="231.79" x2="1128.95" y2="231.79" xlink:href="#linear-gradient-13"/><linearGradient id="linear-gradient-27" x1="2791.7" y1="261.54" x2="3010.31" y2="261.54" xlink:href="#linear-gradient-13"/><linearGradient id="linear-gradient-28" x1="1190.81" y1="363.12" x2="1447.45" y2="363.12" xlink:href="#linear-gradient-13"/><linearGradient id="linear-gradient-29" x1="2294.33" y1="358" x2="2410.76" y2="358" xlink:href="#linear-gradient-13"/><linearGradient id="linear-gradient-30" x1="1822.9" y1="365.39" x2="1932.38" y2="365.39" xlink:href="#linear-gradient-13"/><linearGradient id="linear-gradient-31" x1="1216.02" y1="274.65" x2="1219.93" y2="274.65" xlink:href="#linear-gradient-13"/><linearGradient id="linear-gradient-32" x1="2881.37" y1="461.28" x2="2915.08" y2="461.28" xlink:href="#linear-gradient-13"/><linearGradient id="linear-gradient-33" x1="1876.76" y1="261.3" x2="1891.65" y2="261.3" xlink:href="#linear-gradient-13"/><linearGradient id="linear-gradient-34" x1="2714.88" y1="356.19" x2="2725.31" y2="356.19" xlink:href="#linear-gradient-13"/><linearGradient id="linear-gradient-35" x1="1796.1" y1="285.24" x2="1803.47" y2="285.24" xlink:href="#linear-gradient-13"/><linearGradient id="linear-gradient-36" x1="2710.32" y1="338.47" x2="2718.51" y2="338.47" xlink:href="#linear-gradient-13"/><linearGradient id="linear-gradient-37" x1="2705.56" y1="320.08" x2="2711.44" y2="320.08" xlink:href="#linear-gradient-13"/><linearGradient id="linear-gradient-38" x1="2710.32" y1="331.07" x2="2715.88" y2="331.07" xlink:href="#linear-gradient-13"/><linearGradient id="linear-gradient-39" x1="1891.53" y1="247.43" x2="1896.59" y2="247.43" xlink:href="#linear-gradient-13"/><linearGradient id="linear-gradient-40" x1="2705.98" y1="330.27" x2="2711.89" y2="330.27" xlink:href="#linear-gradient-13"/><linearGradient id="linear-gradient-41" x1="1443.33" y1="345.8" x2="1447.06" y2="345.8" xlink:href="#linear-gradient-13"/><linearGradient id="linear-gradient-42" x1="1871.13" y1="298.05" x2="1871.88" y2="298.05" xlink:href="#linear-gradient-13"/><linearGradient id="linear-gradient-43" x1="2570.04" y1="153.99" x2="2666.28" y2="153.99" xlink:href="#linear-gradient-13"/><linearGradient id="linear-gradient-44" x1="703.69" y1="150.11" x2="824.02" y2="150.11" xlink:href="#linear-gradient-13"/><linearGradient id="linear-gradient-45" x1="3010.21" y1="275.05" x2="3011.08" y2="275.05" xlink:href="#linear-gradient-13"/><linearGradient id="linear-gradient-46" x1="2496.25" y1="378.3" x2="2894.35" y2="378.3" xlink:href="#linear-gradient"/><linearGradient id="linear-gradient-47" x1="617.22" y1="375.82" x2="874.3" y2="375.82" xlink:href="#linear-gradient"/><linearGradient id="linear-gradient-48" x1="1158.76" y1="242.69" x2="1441.78" y2="242.69" xlink:href="#linear-gradient"/><linearGradient id="linear-gradient-49" x1="2501.92" y1="209.97" x2="2727.79" y2="209.97" xlink:href="#linear-gradient"/><linearGradient id="linear-gradient-50" x1="1487.16" y1="217.72" x2="1708.28" y2="217.72" xlink:href="#linear-gradient"/><linearGradient id="linear-gradient-51" x1="2192.26" y1="205.37" x2="2468.69" y2="205.37" xlink:href="#linear-gradient"/><linearGradient id="linear-gradient-52" x1="842.49" y1="339.35" x2="1155.23" y2="339.35" xlink:href="#linear-gradient"/><linearGradient id="linear-gradient-53" x1="1730.87" y1="234.65" x2="1993.86" y2="234.65" xlink:href="#linear-gradient"/><linearGradient id="linear-gradient-54" x1="667.78" y1="201.11" x2="885.69" y2="201.11" xlink:href="#linear-gradient"/><linearGradient id="linear-gradient-55" x1="2751.83" y1="336.58" x2="3053.64" y2="336.58" xlink:href="#linear-gradient"/><linearGradient id="linear-gradient-56" x1="1450.47" y1="338.26" x2="1748.59" y2="338.26" xlink:href="#linear-gradient"/><linearGradient id="linear-gradient-57" x1="1949.38" y1="251.49" x2="2183.8" y2="251.49" xlink:href="#linear-gradient"/><linearGradient id="linear-gradient-58" x1="1946.82" y1="338.02" x2="2241.52" y2="338.02" xlink:href="#linear-gradient"/><linearGradient id="linear-gradient-59" x1="888.4" y1="217.78" x2="1106.24" y2="217.78" xlink:href="#linear-gradient"/><linearGradient id="linear-gradient-60" x1="2768.99" y1="247.53" x2="2987.6" y2="247.53" xlink:href="#linear-gradient"/><linearGradient id="linear-gradient-61" x1="1168.1" y1="349.11" x2="1424.74" y2="349.11" xlink:href="#linear-gradient"/><linearGradient id="linear-gradient-62" x1="2271.62" y1="343.99" x2="2388.06" y2="343.99" xlink:href="#linear-gradient"/><linearGradient id="linear-gradient-63" x1="1800.19" y1="351.38" x2="1909.67" y2="351.38" xlink:href="#linear-gradient"/><linearGradient id="linear-gradient-64" x1="1193.31" y1="260.64" x2="1197.23" y2="260.64" xlink:href="#linear-gradient"/><linearGradient id="linear-gradient-65" x1="2858.66" y1="447.27" x2="2892.37" y2="447.27" xlink:href="#linear-gradient"/><linearGradient id="linear-gradient-66" x1="1854.05" y1="247.29" x2="1868.94" y2="247.29" xlink:href="#linear-gradient"/><linearGradient id="linear-gradient-67" x1="2692.17" y1="342.19" x2="2702.6" y2="342.19" xlink:href="#linear-gradient"/><linearGradient id="linear-gradient-68" x1="1773.39" y1="271.23" x2="1780.76" y2="271.23" xlink:href="#linear-gradient"/><linearGradient id="linear-gradient-69" x1="2687.61" y1="324.46" x2="2695.8" y2="324.46" xlink:href="#linear-gradient"/><linearGradient id="linear-gradient-70" x1="2682.85" y1="306.07" x2="2688.73" y2="306.07" xlink:href="#linear-gradient"/><linearGradient id="linear-gradient-71" x1="2687.61" y1="317.06" x2="2693.17" y2="317.06" xlink:href="#linear-gradient"/><linearGradient id="linear-gradient-72" x1="1868.82" y1="233.42" x2="1873.88" y2="233.42" xlink:href="#linear-gradient"/><linearGradient id="linear-gradient-73" x1="2683.27" y1="316.26" x2="2689.19" y2="316.26" xlink:href="#linear-gradient"/><linearGradient id="linear-gradient-74" x1="1420.63" y1="331.8" x2="1424.35" y2="331.8" xlink:href="#linear-gradient"/><linearGradient id="linear-gradient-75" x1="1848.42" y1="284.04" x2="1849.17" y2="284.04" xlink:href="#linear-gradient"/><linearGradient id="linear-gradient-76" x1="2547.33" y1="139.99" x2="2643.57" y2="139.99" xlink:href="#linear-gradient"/><linearGradient id="linear-gradient-77" x1="680.98" y1="136.1" x2="801.31" y2="136.1" xlink:href="#linear-gradient"/><linearGradient id="linear-gradient-78" x1="2987.5" y1="261.04" x2="2988.37" y2="261.04" xlink:href="#linear-gradient"/></defs><path class="cls-1" d="M247,237.19c4.43-.66,3-3.87,3-6.19,0-28.13-.2-56.27-.31-84.4,0-2,.09-4.09.14-6.14,3.12-8.16,1.73-12.22-4.62-12.23-30.3,0-60.64-.94-90.89.87-19.7,1.18-28.87,16.8-24.62,30,1.58,13.72,8.22,20,23.77,22.5,2.14.35,4.55-.21,6.31,1.49.52,3.59-2.41,4.3-5.15,5.16-18,5.62-42.43-2.29-54.2-17.64-2.46-3.2-4.69-6.55-7-9.83-9.41-30.67,11.95-54.52,45.33-59.69a216.91,216.91,0,0,1,48.41-1.6c3.68.26,7.39.13,11.08.13l111.45-.18,18.65,1.39a26.12,26.12,0,0,0-8.5-6.39,150.11,150.11,0,0,1-20.58-12.18c-16.41-11.75-25.88-26.3-22.75-46.07a24.17,24.17,0,0,0,0-3.9c.83-6.38,5.14-10.8,10.34-16.45,1.22,6.83,2.77,12.08,5.44,17C298,43.39,306.57,51.11,317.13,57.8,346.91,76.66,379,90.66,414.39,97.93c6.72,1.38,13.82,1.55,20.76,1.59,28.28.17,56.57.13,84.86,0a74.06,74.06,0,0,0,22.29-3.49c8.43-2.69,15.34-7.19,19-14.86,1.87-3.87,3.55-2.79,5.24-.2,5.13,7.85,8.74,16,5.56,25.42-4.55,4.93-7.3,11.12-13.54,14.91-9.43,5.73-19.83,7.83-30.88,7.73-19-.17-38.08.55-57.07-1-2.56-.21-5.14,0-6.27,2.51-1.3,2.82,1.32,4,3.28,5.24,1.5.95,3.19,1.64,4.79,2.45,12.78,13.38,23.18,27.95,26.46,45.85,1.37,7.45,3,15,.58,22.56-1,3.4-1.7,6.86-2.89,10.19-10.18,28.49-42.87,49.83-77.85,50.31-26.85.38-53.72.14-80.58.16-7.3,0-8.7,1.24-8.67,7.76q.13,32,.25,64a274.47,274.47,0,0,1-3.2,44.16,243,243,0,0,1-19.81,64.54c-9.49,20.41-22,38.86-41.72,51.74-27.8,18.11-57.71,28.78-91.65,12.87-12.66-11.94-6.66-29.49,3.55-34.64,4.62-2.33,9.6-4,14.66-3.2,24.77,3.93,42.74-5.84,57.35-22.88a93.9,93.9,0,0,0,19.65-36.34c4-7.43,5.6-15.43,7.14-24.77-3.39,2.47-5.74,4.17-8.08,5.89C260.92,401.36,254,406,246,409c-37.46,14-75.73,14.4-114.36,5-35.74-8.73-65.86-25.25-86.83-53.92-.89-1.23-1.76-2.55-3.43-3.09-31.42-51.33-.25-108.07,56-118,7.26-1.28,14.62-.21,21.75-1.91,1.37,1.19,3.1.74,4.67.74q59.22,0,118.44,0A35.45,35.45,0,0,0,247,237.19Zm205-51.14c.89-1.61.51-3.24.23-4.93-3.71-22.36-36.1-56.05-72.18-53.25-26.38,2.06-52.86,1.4-79.31.34-7.69-.31-9.37,1.36-9.37,8.49q0,46.37,0,92.73c0,1.79-.72,3.77,1,5.33.7,2.36,2.76,2.45,4.89,2.44,33-.15,66.07-.17,99.11-.5A71.14,71.14,0,0,0,427,229.35C446.18,220.06,453.47,205.18,452,186.05ZM286.67,302c1.62-1.11,1-2.73,1-4.15.06-8.05-.2-16.12.11-24.16.19-4.91-1.74-6.45-7.15-6.43-45.36.17-90.73.05-136.09.14-7.16,0-14.35.35-21.48,1-30.46,2.73-50,28.72-41.49,54.81C85,340,94.53,353.6,109.87,363.08c39.79,24.6,82.74,28.69,127.58,13.77,23.9-8,38.81-24.14,45.64-46.58C285.92,321,286.54,311.54,286.67,302Z"/><path class="cls-2" d="M247,237.19a35.45,35.45,0,0,1-4.77.64q-59.22.06-118.44,0c-1.57,0-3.3.45-4.67-.74Z"/><path class="cls-3" d="M178.46,517.47c33.94,15.91,63.86,5.24,91.66-12.88,19.76-12.87,32.22-31.33,41.71-51.74a242.18,242.18,0,0,0,19.81-64.54,273.34,273.34,0,0,0,3.21-44.16q-.14-32-.25-64c0-6.51,1.36-7.75,8.67-7.76,26.86,0,53.72.22,80.58-.15,35-.49,67.67-21.83,77.84-50.32,1.19-3.33,1.94-6.79,2.89-10.19,1.12,26.06-11.2,45.36-35.5,58.57-17.49,9.5-36.75,12.22-56.72,12.15-15.79-.05-31.57.65-47.36-.76-6.45-.58-13.09.4-19.63.86-4.74.34-5.78,3.27-5.77,7.13,0,19.85.42,39.72-.26,59.56-1.22,35.15-2.9,70.25-16.8,103.8-12.3,29.68-31.52,54.25-61.78,70.39a90.75,90.75,0,0,1-65.26,8.44C187.27,529.9,180.37,526,178.46,517.47Z"/><path class="cls-4" d="M46.43,362.1c1.67.54,2.54,1.86,3.44,3.09,21,28.68,51.09,45.2,86.83,53.92,38.63,9.43,76.9,9,114.36-5,8-3,15-7.67,21.68-12.61,2.33-1.72,4.69-3.42,8.08-5.89-1.54,9.34-3.11,17.33-7.14,24.76-1.13-4-3.68-3-6.48-1.6-23.46,12.16-49,16.35-75.62,16.34-44.16,0-84-11.28-117.83-37.94C61.56,387.58,51.42,376.47,46.43,362.1Z"/><path class="cls-5" d="M134.84,164.17c-4.25-13.16,4.91-28.79,24.62-30,30.25-1.81,60.59-.92,90.89-.87,6.34,0,7.73,4.07,4.61,12.22-1-2.86-3.55-2.65-6-2.65-27,0-54-.38-81,.15-14.29.29-26.49,4.91-31.23,19C136.47,162.88,135.49,163.48,134.84,164.17Z"/><path class="cls-6" d="M477.55,143.32a51.31,51.31,0,0,1-4.79-2.45c-2-1.24-4.58-2.42-3.29-5.23,1.13-2.47,3.71-2.73,6.27-2.51,19,1.6,38,.87,57.08,1,11,.1,21.45-2,30.88-7.73,6.23-3.79,9-10,13.54-14.91,1.7,15.48-6.62,26.12-24,30.34-16.31,4-32.89,2.6-49.43,1.72C495.08,143.12,486.33,141.66,477.55,143.32Z"/><path class="cls-7" d="M98.54,165.86c2.33,3.28,4.57,6.62,7,9.82,11.78,15.35,36.19,23.27,54.2,17.64,2.74-.85,5.68-1.57,5.15-5.15,7,5,6.23,10.54-2,13.86-15.08,6.11-37.06,1.35-50.42-11.64C105.48,183.54,98,176.49,98.54,165.86Z"/><path class="cls-8" d="M281.64,37.36a25.51,25.51,0,0,1,0,3.91C278.5,61,288,75.59,304.38,87.33A149,149,0,0,0,325,99.51a26.09,26.09,0,0,1,8.51,6.4l-18.65-1.4c1.15-3.77-2.39-4.79-4.69-6.36-15.21-10.42-26.41-23.38-30.05-40.78C278.69,50.72,277.71,43.81,281.64,37.36Z"/><path class="cls-9" d="M222.62,283.77c-6.83-2.86-14.15-1.7-21.25-1.93-20.89-.67-41.84-1.44-62.68.18-33.62,2.63-48.28,16.05-52,46.29-8.56-26.1,11-52.08,41.5-54.82,7.12-.64,14.31-1,21.47-1,45.37-.09,90.73,0,136.09-.15,5.41,0,7.34,1.53,7.16,6.44-.31,8-.06,16.1-.11,24.16,0,1.41.59,3-1,4.15,0-6.32-.18-12.64-.14-18.95,0-3.21-1.16-5.86-4.87-5.93-12.8-.23-25.62-.38-38.39.68-.54,0-1,.58-1.54.88C238.77,282.56,230.69,282.06,222.62,283.77Z"/><path class="cls-10" d="M457.12,191.16c-7.2-19.09-19.84-34.19-38.93-44.69a28.66,28.66,0,0,0-15.73-3.64c-32.59,1.52-65.18.84-97.77,0-5.15-.13-6.8,1.32-6.78,6,.1,28.08-.07,56.17-.16,84.25,0,2.25-.15,4.49-.23,6.73-1.72-1.55-1-3.54-1-5.33q-.06-46.36,0-92.72c0-7.13,1.69-8.8,9.37-8.49,26.45,1.06,52.93,1.71,79.31-.34,36.08-2.81,68.48,30.88,72.18,53.25C457.63,187.92,458,189.54,457.12,191.16Z"/><path class="cls-11" d="M217.51,278.66c8.08-1.7,16.15-1.2,24.22,0,4.19,3.69,9.89,5.8,13,10.66,3.69,5.79,6,11.69,3.29,18.4a16.28,16.28,0,0,0-2.67,2.23c-7.7,9.94-18.59,12.53-31.15,11.45-9.68-.84-16.32-6.2-22.4-12.42C198,294.56,200.68,289.41,217.51,278.66Z"/><path class="cls-12" d="M201.79,309c6.08,6.22,12.72,11.58,22.4,12.42,12.56,1.08,23.45-1.51,31.15-11.45a16.28,16.28,0,0,1,2.67-2.23c2.05,5.82-.14,10.64-4.53,14.73-11.82,11-36.2,9.78-46.7-2.28A19.9,19.9,0,0,1,201.79,309Z"/><path class="cls-13" d="M2915.08,467.78c5.64,15.56-2,28.73-7.65,42.25H2761.77c-49.71-38.2-78.45-90.11-98.31-148.2-4-11.77-7.13-26.42-24.83-27-30.52-1-34.32,2.59-32.42,33.4,1,16.83,1.69,33.74,11.65,48.58,7.53,11.23,1.36,15.38-9.45,15.71-25.64.77-51.28,1.39-76.93,1.61-4,0-9.52-1.21-11.57-3.94-2.89-3.85,1.44-7.63,4.46-10.6,15.55-15.36,17.4-35.21,17.83-55.33.64-29.88.83-59.76,1.22-89.65,6.39,9.55,1.62,21,4.58,29.46,35.62-6.35,70.78-5.14,105.71-.89,9.19,1.11,18.4,7.15,20.11,19.39,1.28,9.08,7.21,11.09,15.83,7.44,5.13-2.17,11-2.67,16.49-3.93l-.16-.15,4.41,8.72-.08-.11c.83,4.6,3.6,7.19,8.2,7.9,3.12,2.63,4.91,5.8,4,10-3.11.3-8.28-.64-7.57,3.79.83,5.11,6.59,3.08,10.37,3.68,16.49,40.4,32.89,81.15,67,110.57,22.86,19.74,50,30,80.67,23.65,10.53-2.17,24.12-5.57,16.34-22.55C2897.56,468.1,2905,459.21,2915.08,467.78Z"/><path class="cls-14" d="M743.15,510c-16.64-24.83-41.31-26.79-67.72-23.65-2.81.33-5.54,1.64-8.34,1.75-9.19.35-22,7.16-26.41-3-4.23-9.75,10.67-10.43,16.39-15.86,18.88-17.91,28.07-40.44,30.48-65.21,3-30.33,3.27-60.92,4.72-91.4,15.45-31.75,41.7-26.27,69.36-22,22.22,3.45,43.69-.09,65.56-10.53,20.88-10,46-10.23,69.82-10.55-14.64,32.57-46.86,40.73-75.61,52.51-14.83,6.07-31.86,7.37-48.07,9.31-12.43,1.48-16.89,7-16.79,19.23.34,39.81-1.12,79.67.37,119.42.51,13.45,7.77,26.63,11.94,39.94Z"/><path class="cls-15" d="M1216,201.92c-4.75-39.65-9-50.37-34.55-82.77,59,4.31,115.94-6.72,171.23,8.54,86.23,23.81,125.07,104.57,107.74,190.1-2,10-8.29,17.55-13,26-3.5-11.13-7-22.26-11.18-35.52-9.22,19.41-27.3,26.05-37.34,40.64-21,30.53-52.87,41.1-87.71,44.81-8,.86-18.16,2-18.68-11.13,28.13-4.47,56.88-7,77.57-30.68,33.92-38.76,30.73-89.93,3-136.95-15.71-26.66-38.33-37.3-68.36-38.69-18.58-.87-22.38,5.56-21.87,22.88,1.33,44.85.56,89.77.62,134.66-9.22-12.16-4.67-29.29-13.62-42.42-7.44,7.31.61,21.44-10.32,22.78-29.27,3.59-38.95,20.28-36.81,47.42.56,7.08-2.94,7-7.26,2.59q.46-8.43.92-16.85A715.71,715.71,0,0,0,1216,201.92Z"/><path class="cls-16" d="M2706.14,326.06c-5.52,1.26-11.36,1.76-16.49,3.93-8.62,3.65-14.55,1.64-15.83-7.44-1.71-12.24-10.92-18.28-20.11-19.39-34.93-4.25-70.09-5.46-105.71.89-3-8.42,1.81-19.91-4.58-29.46-.22-25.61-.61-51.23-.58-76.85,0-22-.53-43.57-14-62.61-3.19-4.52-6.06-11.24-2.83-16,3.85-5.71,10.06-1.29,15.56-.34,23.34,4.07,46.91.66,70.38,1.37,37.86,1.14,74.25,4,104.84,31.92,45.3,41.37,45.47,96.58-3,134.4-10.57,8.25-15.8,15.16-8.27,27.46Q2705.85,320,2706.14,326.06ZM2629.7,176.79c-21.23-.28-22.06-.29-22.21,12.75-.31,27,.34,53.93.64,80.89,0,4.24.12,8.14,5.33,10.24,17.22,6.94,58.59-9.17,67.93-26.17C2705,211.59,2672.67,173.66,2629.7,176.79ZM2570,150.66c32.19,1,64,11.45,96.24,4C2634.29,148.69,2601.91,152.7,2570,150.66Z"/><path class="cls-17" d="M1509.87,346.68l10.22-35.16c11.59-44.9,33.86-86.36,43.15-131.95,4.66-22.88,4.4-45.17-22-62.25,54.21-2.71,103.56,6.88,155-.62-29.47,22-21.29,48.62-12.62,74.77,15.41,46.45,31.54,92.67,47.37,139-3.67,7.32-6.48,3.57-8-1.05-2.92-8.72-5-17.72-7.7-26.51-8.1-26.19-25.49-38.79-50.94-29.5-29.82,10.89-58.55,7.78-87.73,2.8-13.21-2.26-20.15,1.76-24.12,13.34-2.29,6.65-3.22,13.87-6.19,20.15-7.78,16.42-10.31,38.44-36.41,37m99.65-153.75c-9.31,23.4-17.4,43-22.54,63.67-1.87,7.56-1.7,13,7.42,13.43,10.65.47,21.34.35,32,.05,5.56-.15,10.69-3.77,8.51-9.14C1626.24,239.64,1625.52,215.32,1609.52,192.93Z"/><path class="cls-18" d="M2322,320.78c-.59-41.31-1.25-82.62-1.71-123.93-.11-10.34-1.62-17.08-15.22-16.59-26.12.93-51.8,11.31-70.25,32.65-4.57-31.89-6.26-62.45-18.91-90.62-3-6.75,1.78-11.33,9.38-6.79,11.89,7.12,24.82,5.18,37.54,5.19,64.2,0,128.41-.73,192.58.59,12.36.26,27.59-12.26,35-.76,4.17,6.46-5.77,22-9.29,33.44-.42,1.34.07,3.26-.72,4.15-9.05,10.17,1.95,26.93-10.25,35-14.75,9.72-21-11.22-33.5-11.53-2.81-.07-5.59-1-8.4-1.48-39.25-6-40.79-4.54-40.29,33.94.49,37,.63,74.05.92,111.08-13.52-8.55-4.92-22.18-7.57-33.24-1-4.07-.49-9.21-6-9.85-4.41-.5-5.57,3.74-6.65,7.08-3,9.38-10.46,14.59-19.22,14.56C2336,303.58,2329,311.63,2322,320.78Z"/><path class="cls-19" d="M1129,294.72c17.38,40.15,24.75,84.06,46.57,122.58,6.44,11.37-.89,15.81-11.25,16-28.48.45-57,.48-85.45.59-11.42,0-10.94-6.42-7.06-13.95,18-34.88-4.93-65.07-11.07-97.16-1-5.26-5.93-5.91-10.19-5.81q-33.07.78-66.14,2.05c-9.33.37-13.13,6.46-15.44,14.86-8.08,29.32-18.72,58.36-3.12,88.59,3.2,6.19,1.53,11.3-6.75,11.32-30.95.08-61.9,0-93.85-2.64,26.24-23.36,32.43-55.52,45.91-83.73,9.81-2.62,10.32-12.86,15.72-19,18-20.43,34.35-42.3,65-46.64,20.61-2.92,41.35-.88,61.6-4.23C1081.35,272.92,1109.32,264.48,1129,294.72Z"/><path class="cls-20" d="M1911.61,300.83l-.93,11.31c-6.87-.85-5.13-9.75-11.26-11.92-7,12.17-22.79,24-30.67,20-22.72-11.47-14.91,6.54-15.43,13.61-1.18,16.08-.37,32.31-.37,48.48-4-21.24-3.76-42.45-4.17-63.65-.15-8.08,2.45-17.7-8-22.29l.75-4.8c4.57-6.26,2.5-10.3-4.3-12.74-15.27-40.82-38.89-76.91-61.65-113.76-7.33-11.86-12.57-26.18-20.2-38.76-4.17-6.89-.62-11.44,7.11-10,29.64,5.4,59.31,3.33,96-1.37-30.9,29.55-11.24,52.43.2,75.58,8.73,17.66,19.09,34.51,30.56,55,10.4-44.91,54.9-77.1,29.8-129.59,33.71,4,65.43,8.5,97.52-.91-30.47,41.38-51.74,87.12-79.5,128.89-3.23,1.24-4.71,3.73-5.06,7l-1.16-1.46,1.27,1.36c-11.19,2.54-12.6,12-14.88,20.9.82,8.34-1.35,16.07-4.89,23.53Q1912,298.06,1911.61,300.83Z"/><path class="cls-21" d="M897,269.62c-23.83.32-48.94.59-69.82,10.55-21.87,10.44-43.34,14-65.56,10.53-27.66-4.29-53.91-9.77-69.36,22-.54-61.14-.91-122.28-1.78-183.41-.17-12,2.61-12.69,14.74-11.09,16.07,2.13,32.06,5.07,49.34,4.27,45.28-2.1,92.55-3.65,128,34.9C910.12,187.38,916.76,235.13,897,269.62Zm-137.25-42h.33c0,5,0,9.94,0,14.91.21,40.58,2.16,42,43.5,32.75,19.46-4.37,33.86-14.68,39-34.72,5.38-20.88-2.7-38.07-18.07-51.31-17.63-15.18-41-17.06-60.56-10.75-13.39,4.31-2.28,23.83-4.15,36.36C759.23,219,759.76,223.36,759.76,227.62Zm63.52-69.14q.38-3,.74-5.92c-36.29-18.94-75.74-7.42-113.73-9.86-3.58-.23-7.15,2-6.54,6.53,1,7,6.28,10.11,12.27,8.52,12.13-3.23,23.73-.31,35.67.35C775.49,159.4,799.41,158.48,823.28,158.48Z"/><path class="cls-22" d="M3010.15,266.23c6.84,3.74,8.85,10.47,11.12,17.25,16.4,49.06,29.39,99.35,55.08,148.69-35.58,2.33-68.49,3.77-101.48,1.93-11.14-.62-7.87-7.76-4.29-13.43,22.42-35.44,5.77-70.86-11.27-97.8-11.95-18.88-46.16-3.67-70.4-4.51-12.6-.44-12.81,10.11-16.69,18.44-15,32.18-16,63.47,6.88,95.68a588.62,588.62,0,0,1-92.94.37c-13.21-1-15.32-5.4-5.5-15.13,4.44-4.39,7.41-10.25,11-15.44,11.62,1.74,11.74-9,13.92-14.89a107.92,107.92,0,0,1,34-47.52c10.79-8.72,18.81-18.46,13.85-34.68-2.7-8.86,4.34-16.65,12.34-20.24,12.12-5.43,24.09-10.86,38.44-10.47,35.29.95,70.62.25,105.94.22l.87.8-.77-.9Q3010.24,270.41,3010.15,266.23Z"/><path class="cls-23" d="M1509.87,346.68c26.1,1.44,28.63-20.58,36.41-37,3-6.28,3.9-13.5,6.19-20.15,4-11.58,10.91-15.6,24.12-13.34,29.18,5,57.91,8.09,87.73-2.8,25.45-9.29,42.84,3.31,50.94,29.5,2.71,8.79,4.78,17.79,7.7,26.51,1.55,4.62,4.36,8.37,8,1.05,13.5,29.36,21.58,61,38.17,89.11,6,10.21-1.79,12.61-9.59,12.84-29.9.88-59.8,1.62-89.71,1.79-9.49.05-13.92-3.49-4.93-12.2,13.41-13,11.87-29.1,9-45.54-3.05-17.3-14.18-32-15.5-49.94-.67-9.09-8.77-10.05-16.28-10-15,.16-30.1,1.86-44.88.29-22.4-2.37-32.59,9-36.81,28.49-5.26,24.3-11.81,48.61.13,73.09,4.84,9.93,2.37,16-10.39,15.62-21.38-.71-42.78-.85-64.18-1-11.48-.06-16.88-3.22-9.3-14.95C1491.08,395.86,1497.48,369.88,1509.87,346.68Z"/><path class="cls-24" d="M1972.09,416.15c32.67-59.93,47.86-126.58,73-189.41,3.09-7.72,5.94-15.54,9-23.29,11.53-29.63,13.07-58.32-9.86-85.57,47.35,2.87,92.65,3.86,138.57-3,1,7.17-2,11.24-5.72,15.24-9.63,10.36-10.18,21.63-5.52,34.9,12.25,34.86,23.4,70.11,35,105.2a63.76,63.76,0,0,1-36.3,8.71c-27.63-1.29-55.41-.9-83.07.28-32,1.35-38,7-46.85,38.21-3.1,10.93-5.41,23.57-16.88,28.11-11.05,4.38-13.58,12.61-17.54,21.93C1998,385.82,1994.57,407.73,1972.09,416.15Zm162-149.25c-12.17-25.52-11.86-51.86-26.16-76.35-9.89,24.55-17.95,45.6-26.9,66.27-3.41,7.88-1.62,10.2,6.37,10.13C2102.27,266.8,2117.15,266.9,2134.09,266.9Z"/><path class="cls-25" d="M1972.09,416.15c22.48-8.42,26-30.33,33.78-48.73,4-9.32,6.49-17.55,17.54-21.93,11.47-4.54,13.78-17.18,16.88-28.11,8.83-31.17,14.86-36.86,46.85-38.21,27.66-1.18,55.44-1.57,83.07-.28a63.76,63.76,0,0,0,36.3-8.71c17.12,33.82,23.41,71.54,38.28,106.18,5.89,13.71,11.56,27.52,17.51,41.2,4.28,9.83,1.58,15-9.46,15.09-25.63.29-51.27.51-76.9.93-9.5.16-12.74-2-8.42-12.4,14.62-35.18-.9-66.92-14.46-97.89-5.91-13.51-83.22-8.9-88.72,5-13.1,33-25.34,66.74,3,102-31.27,5.38-60.16,3.51-89,2.12C1965.56,431.78,1969.78,423.28,1972.09,416.15Z"/><path class="cls-26" d="M1129,294.72c-19.63-30.24-47.6-21.8-75.51-17.18-20.25,3.35-41,1.31-61.6,4.23-30.66,4.34-47,26.21-65,46.64-5.4,6.13-5.91,16.37-15.72,19,14.63-46.75,34.12-91.82,47.48-139.08,9.12-32.22,13-62.57-13.64-89.87,52.43.44,102.2,5.13,157.83-2.27-38.27,39.6-9.51,73.61,1.15,108.4C1111.2,248.29,1120.54,271.37,1129,294.72ZM1015.5,192.67c-10.64,20.53-19.44,39.8-24.33,60.93-2.07,9-4.79,18.59,8.89,16.26,15.63-2.67,35.6,11.21,46.5-11,.29-.58.45-1.71.12-2C1029.69,239.55,1032.13,212.85,1015.5,192.67Z"/><path class="cls-27" d="M3010.21,274.7c-35.32,0-70.65.73-105.94-.22-14.35-.39-26.32,5-38.44,10.47-8,3.59-15,11.38-12.34,20.24,5,16.22-3.06,26-13.85,34.68a107.92,107.92,0,0,0-34,47.52c-2.18,5.84-2.3,16.63-13.92,14.89,24.45-64,50-127.57,70.66-192.91,4.21-13.3,7.41-27,10.38-40.62,4.28-19.69-6.81-34.85-16.35-48.06,40.57,0,80.7.08,120.82-.08,7.9,0,10.77,3.33,7.78,10.42-10.75,25.58.68,48.72,8,72.15,6.47,20.83,15.78,40.85,17.19,63.05q.09,4.18.16,8.37Zm-70.47-9c-3.82-25-13.87-46.65-23.41-73.35-14,24.8-20.34,48.12-26,73.35Z"/><path class="cls-28" d="M1292.54,382.64c.52,13.17,10.67,12,18.68,11.13,34.84-3.71,66.7-14.28,87.71-44.81,10-14.59,28.12-21.23,37.34-40.64,4.17,13.26,7.68,24.39,11.18,35.52,0,0-.4-.55-.39-.52-1.23,1.67-2.48,3.32-3.73,5-21.44,51.21-64,73.17-115.4,81.4-41,6.56-82.46,5.36-123.84,4.17-13.16-.38-17.45-4.5-8.73-16.22,11.83-15.86,16.84-34.32,20.16-53.41,4.32,4.41,7.82,4.49,7.26-2.59-2.14-27.14,7.54-43.83,36.81-47.42,10.93-1.34,2.88-15.47,10.32-22.78,8.95,13.13,4.4,30.26,13.62,42.43C1290.35,349.43,1278.83,368.35,1292.54,382.64Z"/><path class="cls-29" d="M2322,320.78c7-9.15,14-17.2,27.46-17.15,8.76,0,16.18-5.18,19.22-14.56,1.08-3.34,2.24-7.58,6.65-7.08,5.49.64,5,5.78,6,9.85,2.65,11.06-5.95,24.69,7.57,33.24,1.76,20.47,4,40.92,5.09,61.42.6,11,3.23,20.53,10.76,28.86,10.21,11.3,7.45,17.48-7.9,17.72-32.67.49-65.35,2.43-102.48-1.09C2319.91,397.74,2322,359.48,2322,320.78Z"/><path class="cls-30" d="M1840.75,296.41c10.48,4.59,7.88,14.21,8,22.29.41,21.2.14,42.41,4.17,63.65,0-16.17-.81-32.4.37-48.48.52-7.07-7.29-25.08,15.43-13.61,7.88,4,23.67-7.87,30.67-20,6.13,2.17,4.39,11.07,11.26,11.92,2.58,38-3.41,77.42,20,111.82,4.58,6.73-1.26,8.32-6.82,8.79-30.64,2.56-61.31,1.54-92,.63-5.67-.17-11.77-3.13-7.73-8.74C1853,384.69,1846.41,340.56,1840.75,296.41Z"/><path class="cls-31" d="M1216,201.92a715.71,715.71,0,0,1,.42,145.46Z"/><path class="cls-32" d="M2915.08,467.78c-10.06-8.57-17.52.32-25.79,3.82-11.49-1.55-7.74-14.28-5.52-13.92,9.79,1.58,18.66-14.65,27.87-1.63C2913.87,459.19,2914,463.83,2915.08,467.78Z"/><path class="cls-33" d="M1876.76,271.75c2.28-8.87,3.7-18.36,14.89-20.9C1888.13,258.83,1886.64,268.27,1876.76,271.75Z"/><path class="cls-34" d="M2725.31,359.93c-3.78-.6-9.54,1.43-10.37-3.68-.71-4.43,4.46-3.49,7.57-3.79Z"/><path class="cls-35" d="M1796.73,278.87c6.8,2.44,8.87,6.48,4.29,12.74C1801,286.9,1794,284.51,1796.73,278.87Z"/><path class="cls-36" d="M2718.51,342.42c-4.6-.71-7.37-3.3-8.19-7.9l5.5.65Z"/><path class="cls-37" d="M2706.14,326.06q-.3-6.07-.58-12.15c3.58,3.34,5.81,7.33,5.88,12.34l-5.46-.34Z"/><path class="cls-38" d="M2715.82,335.17l-5.5-.65.07.11,1.5-7.67A8.34,8.34,0,0,1,2715.82,335.17Z"/><path class="cls-39" d="M1891.53,251c.36-3.3,1.84-5.79,5.06-7Z"/><path class="cls-40" d="M2711.89,327l-1.5,7.67-4.41-8.72,5.46.34Z"/><path class="cls-41" d="M1443.33,348.29c1.25-1.65,2.5-3.3,3.73-5C1447,345.87,1446.23,347.85,1443.33,348.29Z"/><path class="cls-42" d="M1871.13,300.83l.75-5.55Z"/><path class="cls-43" d="M2570,150.66c31.87,2,64.25-2,96.24,4C2634.05,162.11,2602.23,151.64,2570,150.66Z"/><path class="cls-44" d="M823.28,158.48c-23.87,0-47.79.92-71.59-.38-11.94-.66-23.54-3.58-35.67-.35-6,1.59-11.31-1.53-12.27-8.52-.61-4.49,3-6.76,6.54-6.53,38,2.44,77.44-9.08,113.73,9.86Q823.66,155.53,823.28,158.48Z"/><polygon class="cls-45" points="3010.31 274.6 3011.08 275.5 3010.21 274.7 3010.31 274.6"/><path class="cls-46" d="M2892.37,453.77c5.64,15.56-2,28.73-7.65,42.25H2739.06c-49.71-38.2-78.45-90.1-98.31-148.19-4-11.78-7.13-26.42-24.83-27-30.52-1-34.32,2.58-32.42,33.39,1,16.83,1.69,33.74,11.65,48.58,7.53,11.23,1.36,15.39-9.45,15.71-25.64.77-51.28,1.4-76.93,1.62-4,0-9.52-1.21-11.57-3.94-2.88-3.86,1.45-7.63,4.46-10.61,15.55-15.35,17.4-35.2,17.83-55.33.64-29.87.83-59.76,1.22-89.64,6.39,9.54,1.62,21,4.58,29.45,35.62-6.35,70.78-5.13,105.71-.89,9.19,1.11,18.4,7.16,20.11,19.39,1.28,9.09,7.21,11.1,15.83,7.44,5.13-2.17,11-2.67,16.49-3.93l-.16-.14,4.41,8.71-.07-.11c.82,4.61,3.59,7.19,8.19,7.9,3.12,2.64,4.91,5.81,4,10-3.12.3-8.29-.63-7.58,3.8.83,5.1,6.59,3.07,10.37,3.67,16.5,40.4,32.89,81.15,67,110.58,22.86,19.73,50,30,80.68,23.64,10.52-2.17,24.11-5.57,16.33-22.55C2874.85,454.1,2882.32,445.2,2892.37,453.77Z"/><path class="cls-47" d="M720.44,496c-16.64-24.82-41.31-26.79-67.72-23.65-2.81.34-5.54,1.65-8.33,1.75-9.2.36-22,7.16-26.42-3-4.23-9.75,10.67-10.43,16.39-15.86,18.88-17.9,28.07-40.44,30.49-65.2,2.95-30.34,3.26-60.93,4.71-91.4,15.45-31.76,41.7-26.28,69.36-22,22.23,3.45,43.69-.09,65.57-10.53,20.87-10,46-10.23,69.81-10.55-14.63,32.57-46.86,40.73-75.61,52.51-14.83,6.07-31.86,7.38-48.07,9.31-12.43,1.48-16.89,7-16.78,19.23.33,39.81-1.13,79.67.37,119.43.5,13.44,7.76,26.63,11.93,39.93Z"/><path class="cls-48" d="M1193.31,187.91c-4.75-39.65-9-50.36-34.55-82.77,59,4.31,115.94-6.72,171.23,8.54,86.23,23.81,125.08,104.57,107.74,190.1-2,10-8.29,17.55-13,26.05-3.5-11.12-7-22.25-11.18-35.52-9.21,19.42-27.3,26.05-37.34,40.65-21,30.52-52.87,41.09-87.71,44.81-8,.85-18.16,2-18.68-11.14,28.13-4.47,56.88-7,77.57-30.68,33.92-38.76,30.73-89.92,3-136.95-15.71-26.66-38.33-37.3-68.36-38.69-18.58-.87-22.38,5.56-21.86,22.88,1.32,44.85.55,89.77.61,134.66-9.22-12.16-4.67-29.29-13.62-42.42-7.44,7.32.61,21.45-10.32,22.78-29.27,3.59-39,20.28-36.81,47.43.56,7.08-2.94,7-7.25,2.58q.45-8.42.91-16.84A715.8,715.8,0,0,0,1193.31,187.91Z"/><path class="cls-49" d="M2683.43,312.05c-5.52,1.26-11.36,1.76-16.49,3.93-8.62,3.66-14.55,1.65-15.83-7.44-1.71-12.23-10.92-18.28-20.11-19.39-34.93-4.24-70.09-5.46-105.71.89-3-8.42,1.81-19.91-4.58-29.45-.21-25.62-.61-51.24-.58-76.86,0-21.95-.53-43.57-14-62.61-3.18-4.52-6.06-11.23-2.83-16,3.85-5.7,10.06-1.29,15.56-.33,23.34,4.06,46.91.65,70.38,1.36,37.86,1.14,74.25,4,104.84,31.92,45.3,41.37,45.47,96.58-3,134.4-10.57,8.25-15.8,15.16-8.27,27.46Q2683.14,306,2683.43,312.05ZM2607,162.78c-21.23-.28-22.06-.29-22.21,12.76-.31,27,.34,53.92.64,80.88,0,4.24.12,8.14,5.33,10.24,17.22,6.94,58.59-9.17,67.93-26.17C2682.24,197.58,2650,159.65,2607,162.78Zm-59.66-26.13c32.19,1,64,11.46,96.24,4C2611.59,134.68,2579.2,138.69,2547.33,136.65Z"/><path class="cls-50" d="M1487.16,332.67l10.22-35.15c11.6-44.91,33.86-86.37,43.15-132,4.66-22.88,4.4-45.17-22-62.25,54.22-2.7,103.56,6.89,155-.62-29.47,22-21.29,48.63-12.62,74.77,15.41,46.45,31.54,92.67,47.37,139-3.67,7.33-6.48,3.58-8-1.05-2.92-8.71-5-17.71-7.7-26.5-8.1-26.19-25.49-38.8-50.94-29.51-29.82,10.89-58.55,7.78-87.73,2.8-13.21-2.26-20.15,1.76-24.12,13.34-2.28,6.65-3.21,13.87-6.19,20.15-7.78,16.42-10.31,38.44-36.41,37m99.65-153.75c-9.31,23.41-17.4,43-22.54,63.67-1.87,7.56-1.7,13,7.42,13.44,10.65.47,21.34.34,32,.05,5.56-.16,10.69-3.78,8.51-9.15C1603.53,225.63,1602.81,201.31,1586.81,178.92Z"/><path class="cls-51" d="M2299.27,306.77c-.59-41.31-1.25-82.61-1.71-123.92-.11-10.35-1.62-17.08-15.22-16.6-26.12.93-51.8,11.32-70.25,32.65-4.57-31.88-6.26-62.44-18.91-90.62-3-6.75,1.78-11.33,9.38-6.78,11.89,7.11,24.82,5.18,37.54,5.18,64.2,0,128.41-.73,192.58.6,12.36.25,27.59-12.27,35-.77,4.17,6.46-5.77,22-9.29,33.44-.42,1.35.07,3.26-.72,4.15-9.05,10.18,1.95,26.93-10.25,35-14.75,9.71-21-11.23-33.5-11.53-2.81-.07-5.59-1.06-8.4-1.48-39.25-6-40.79-4.55-40.29,33.93.49,37,.63,74.05.92,111.09-13.52-8.56-4.92-22.19-7.57-33.25-1-4.07-.49-9.21-6-9.84-4.41-.51-5.57,3.73-6.65,7.07-3,9.38-10.46,14.6-19.22,14.56C2313.25,289.57,2306.25,297.63,2299.27,306.77Z"/><path class="cls-52" d="M1106.24,280.72c17.38,40.14,24.75,84,46.57,122.57,6.44,11.37-.89,15.81-11.25,16-28.48.45-57,.48-85.45.59-11.42,0-10.94-6.42-7.06-13.95,18-34.88-4.93-65.07-11.07-97.16-1-5.26-5.93-5.91-10.19-5.81q-33.07.78-66.14,2.06c-9.33.36-13.13,6.46-15.44,14.86-8.08,29.32-18.72,58.35-3.12,88.58,3.2,6.19,1.53,11.31-6.75,11.33-31,.07-61.9,0-93.85-2.65,26.25-23.36,32.43-55.52,45.91-83.72,9.81-2.63,10.32-12.87,15.72-19,18-20.43,34.35-42.29,65-46.64,20.62-2.91,41.35-.88,61.6-4.23C1058.64,258.91,1086.61,250.47,1106.24,280.72Z"/><path class="cls-53" d="M1888.9,286.82c-.31,3.77-.62,7.53-.93,11.31-6.86-.84-5.13-9.75-11.26-11.92-7,12.17-22.79,24-30.67,20-22.72-11.47-14.91,6.54-15.43,13.61-1.18,16.08-.37,32.31-.37,48.48-4-21.24-3.76-42.45-4.17-63.65-.15-8.08,2.45-17.7-8-22.29l.75-4.79c4.57-6.27,2.5-10.3-4.3-12.75C1799.23,224,1775.6,188,1752.84,151.1c-7.33-11.86-12.57-26.17-20.2-38.76-4.17-6.89-.62-11.43,7.11-10,29.64,5.4,59.31,3.33,96-1.36-30.9,29.55-11.24,52.42.2,75.57,8.73,17.66,19.09,34.52,30.56,55,10.4-44.91,54.9-77.1,29.8-129.58,33.71,4,65.43,8.5,97.52-.92-30.47,41.38-51.74,87.13-79.5,128.89-3.23,1.24-4.71,3.73-5.06,7l-1.16-1.45s1.28,1.35,1.27,1.35c-11.19,2.54-12.6,12-14.88,20.9.82,8.35-1.35,16.07-4.89,23.53Q1889.27,284,1888.9,286.82Z"/><path class="cls-54" d="M874.3,255.61c-23.83.32-48.94.59-69.81,10.55-21.88,10.44-43.34,14-65.57,10.53-27.66-4.29-53.91-9.77-69.36,22-.54-61.15-.91-122.29-1.78-183.42-.17-12,2.61-12.69,14.74-11.08,16.07,2.12,32.06,5.06,49.34,4.26,45.28-2.1,92.55-3.64,128,34.9C887.41,173.38,894.05,221.12,874.3,255.61Zm-137.25-42h.34c0,5,0,9.94,0,14.91.21,40.58,2.16,42,43.51,32.76,19.45-4.37,33.85-14.68,39-34.72,5.38-20.89-2.7-38.08-18.07-51.32-17.63-15.17-41-17.06-60.56-10.74-13.39,4.31-2.28,23.82-4.15,36.35C736.52,205,737.05,209.36,737.05,213.61Zm63.52-69.13c.25-2,.5-3.95.74-5.93-36.28-18.94-75.74-7.42-113.73-9.86-3.58-.23-7.15,2.05-6.53,6.53,1,7,6.27,10.12,12.26,8.52,12.13-3.22,23.73-.3,35.67.35C752.78,145.4,776.7,144.48,800.57,144.48Z"/><path class="cls-55" d="M2987.45,252.22c6.83,3.75,8.84,10.48,11.11,17.26,16.41,49,29.39,99.34,55.08,148.68-35.58,2.34-68.49,3.78-101.48,1.93-11.14-.62-7.87-7.76-4.29-13.43,22.42-35.44,5.77-70.85-11.27-97.79-11.95-18.89-46.16-3.68-70.4-4.52-12.6-.43-12.81,10.11-16.69,18.44-15,32.18-16,63.47,6.88,95.68a588.62,588.62,0,0,1-92.94.37c-13.21-1-15.32-5.4-5.5-15.13,4.44-4.39,7.41-10.25,11-15.44,11.62,1.74,11.75-9,13.92-14.89a107.92,107.92,0,0,1,34-47.52c10.79-8.72,18.81-18.46,13.85-34.68-2.7-8.85,4.34-16.65,12.35-20.24,12.11-5.43,24.08-10.86,38.43-10.47,35.29.95,70.62.25,105.94.22l.87.8-.77-.9Z"/><path class="cls-56" d="M1487.16,332.67c26.1,1.44,28.63-20.58,36.41-37,3-6.28,3.91-13.5,6.19-20.15,4-11.58,10.91-15.6,24.12-13.34,29.18,5,57.91,8.09,87.73-2.8,25.45-9.29,42.84,3.32,50.94,29.51,2.72,8.79,4.78,17.79,7.7,26.5,1.55,4.63,4.36,8.38,8,1.05,13.5,29.36,21.58,61,38.17,89.11,6,10.22-1.78,12.61-9.59,12.84-29.9.89-59.8,1.62-89.71,1.79-9.49.06-13.92-3.49-4.93-12.2,13.42-13,11.87-29.1,9-45.53-3-17.31-14.17-32-15.5-49.95-.66-9.09-8.77-10.05-16.28-10-15,.16-30.1,1.86-44.88.3-22.4-2.38-32.59,9-36.81,28.48-5.26,24.3-11.81,48.61.13,73.09,4.84,9.93,2.37,16.05-10.39,15.62-21.38-.7-42.78-.85-64.18-1-11.48-.05-16.88-3.21-9.3-14.94C1468.37,381.85,1474.77,355.87,1487.16,332.67Z"/><path class="cls-57" d="M1949.38,402.14c32.67-59.92,47.86-126.58,73-189.4,3.09-7.73,5.94-15.55,9-23.3,11.53-29.62,13.07-58.31-9.86-85.57,47.35,2.88,92.65,3.86,138.57-3,1,7.17-2,11.23-5.72,15.23-9.63,10.36-10.18,21.63-5.52,34.91,12.25,34.86,23.4,70.1,35,105.2a63.83,63.83,0,0,1-36.3,8.7c-27.63-1.29-55.41-.89-83.07.28-32,1.35-38,7-46.85,38.21-3.1,10.93-5.41,23.57-16.88,28.11-11,4.38-13.58,12.61-17.54,21.94C1975.33,371.81,1971.86,393.72,1949.38,402.14Zm162-149.24c-12.17-25.53-11.86-51.87-26.16-76.36-9.89,24.55-17.95,45.6-26.9,66.27-3.41,7.88-1.62,10.21,6.37,10.13C2079.57,252.79,2094.45,252.9,2111.38,252.9Z"/><path class="cls-58" d="M1949.38,402.14c22.48-8.42,25.95-30.33,33.78-48.72,4-9.33,6.49-17.56,17.54-21.94,11.47-4.54,13.78-17.18,16.88-28.11,8.83-31.17,14.86-36.86,46.85-38.21,27.66-1.17,55.44-1.57,83.07-.28a63.83,63.83,0,0,0,36.3-8.7c17.12,33.81,23.41,71.54,38.28,106.17,5.89,13.71,11.56,27.52,17.51,41.2,4.28,9.83,1.58,15-9.45,15.09-25.64.29-51.28.51-76.91.94-9.5.15-12.74-2-8.42-12.41,14.62-35.18-.9-66.92-14.45-97.89-5.92-13.5-83.23-8.89-88.73,5-13.1,33-25.34,66.74,3,102-31.27,5.38-60.16,3.51-89,2.12C1942.85,417.77,1947.07,409.28,1949.38,402.14Z"/><path class="cls-59" d="M1106.24,280.72c-19.63-30.25-47.6-21.81-75.51-17.19-20.25,3.35-41,1.32-61.6,4.23-30.66,4.35-47,26.21-65,46.64-5.4,6.13-5.91,16.37-15.72,19,14.63-46.76,34.12-91.82,47.49-139.08,9.11-32.23,13-62.58-13.65-89.88,52.43.45,102.2,5.13,157.83-2.27-38.27,39.6-9.51,73.61,1.15,108.41C1088.49,234.29,1097.83,257.36,1106.24,280.72ZM992.79,178.67c-10.63,20.52-19.44,39.8-24.33,60.92-2.07,8.95-4.79,18.59,8.89,16.26,15.63-2.67,35.6,11.22,46.5-11,.29-.58.45-1.71.12-2C1007,225.55,1009.42,198.84,992.79,178.67Z"/><path class="cls-60" d="M2987.5,260.69c-35.32,0-70.65.73-105.94-.22-14.35-.39-26.32,5-38.43,10.47-8,3.59-15.05,11.39-12.35,20.24,5,16.22-3.06,26-13.85,34.68a107.92,107.92,0,0,0-34,47.52c-2.17,5.84-2.3,16.63-13.92,14.89,24.45-64,50-127.57,70.66-192.9,4.21-13.31,7.41-27,10.38-40.63,4.28-19.69-6.81-34.85-16.35-48.06,40.57,0,80.7.09,120.82-.07,7.9,0,10.77,3.32,7.79,10.41-10.76,25.59.67,48.72,8,72.15,6.48,20.84,15.79,40.85,17.2,63.05l.15,8.37Zm-70.47-9c-3.81-25-13.87-46.65-23.41-73.35-14,24.81-20.34,48.13-26,73.35Z"/><path class="cls-61" d="M1269.83,368.63c.52,13.17,10.67,12,18.68,11.14,34.84-3.72,66.7-14.29,87.71-44.81,10-14.6,28.13-21.23,37.34-40.65,4.17,13.27,7.68,24.4,11.18,35.52,0,0-.4-.54-.39-.52-1.23,1.67-2.48,3.32-3.72,5-21.44,51.21-64.06,73.17-115.41,81.4-41,6.56-82.46,5.36-123.84,4.17-13.16-.38-17.45-4.5-8.72-16.21,11.82-15.87,16.83-34.33,20.16-53.42,4.31,4.41,7.81,4.5,7.25-2.58-2.14-27.15,7.54-43.84,36.81-47.43,10.93-1.33,2.88-15.46,10.32-22.78,9,13.13,4.4,30.26,13.62,42.43C1267.65,335.42,1256.12,354.35,1269.83,368.63Z"/><path class="cls-62" d="M2299.27,306.77c7-9.14,14-17.2,27.46-17.15,8.76,0,16.18-5.18,19.22-14.56,1.08-3.34,2.24-7.58,6.65-7.07,5.49.63,5,5.77,6,9.84,2.65,11.06-5.95,24.69,7.57,33.25,1.76,20.46,4,40.91,5.09,61.42.6,11,3.23,20.53,10.76,28.85,10.22,11.3,7.46,17.49-7.9,17.72-32.67.49-65.35,2.43-102.48-1.09C2297.2,383.73,2299.31,345.47,2299.27,306.77Z"/><path class="cls-63" d="M1818,282.4c10.48,4.59,7.88,14.21,8,22.29.41,21.2.14,42.41,4.17,63.65,0-16.17-.81-32.4.37-48.48.52-7.07-7.29-25.08,15.43-13.61,7.88,4,23.67-7.87,30.67-20,6.13,2.17,4.4,11.08,11.26,11.92,2.59,38-3.41,77.43,20,111.83,4.58,6.72-1.26,8.31-6.82,8.78-30.64,2.57-61.31,1.54-92,.63-5.66-.17-11.77-3.13-7.73-8.74C1830.3,370.68,1823.7,326.55,1818,282.4Z"/><path class="cls-64" d="M1193.31,187.91a715.8,715.8,0,0,1,.42,145.47Z"/><path class="cls-65" d="M2892.37,453.77c-10-8.57-17.52.33-25.79,3.82-11.49-1.54-7.74-14.28-5.52-13.92,9.79,1.58,18.66-14.64,27.87-1.63C2891.16,445.19,2891.28,449.82,2892.37,453.77Z"/><path class="cls-66" d="M1854.05,257.74c2.28-8.87,3.7-18.36,14.89-20.9C1865.42,244.83,1863.93,254.26,1854.05,257.74Z"/><path class="cls-67" d="M2702.6,345.92c-3.78-.6-9.54,1.43-10.37-3.67-.71-4.43,4.46-3.5,7.58-3.8C2700.74,341,2701.67,343.43,2702.6,345.92Z"/><path class="cls-68" d="M1774,264.86c6.8,2.45,8.87,6.48,4.29,12.75C1778.27,272.89,1771.29,270.51,1774,264.86Z"/><path class="cls-69" d="M2695.8,328.41c-4.6-.71-7.37-3.29-8.19-7.9l5.5.66C2694,323.58,2694.9,326,2695.8,328.41Z"/><path class="cls-70" d="M2683.43,312.05q-.29-6.07-.58-12.15c3.58,3.34,5.81,7.33,5.88,12.34l-5.46-.33Z"/><path class="cls-71" d="M2693.11,321.17l-5.5-.66.07.11q.75-3.83,1.51-7.67A8.37,8.37,0,0,1,2693.11,321.17Z"/><path class="cls-72" d="M1868.82,236.94c.36-3.3,1.84-5.79,5.06-7Z"/><path class="cls-73" d="M2689.19,313q-.77,3.84-1.51,7.67l-4.41-8.71,5.46.33Z"/><path class="cls-74" d="M1420.63,334.28c1.24-1.65,2.49-3.3,3.72-5C1424.33,331.87,1423.52,333.85,1420.63,334.28Z"/><path class="cls-75" d="M1848.42,286.82l.75-5.55Z"/><path class="cls-76" d="M2547.33,136.65c31.87,2,64.26-2,96.24,4C2611.34,148.11,2579.52,137.63,2547.33,136.65Z"/><path class="cls-77" d="M800.57,144.48c-23.87,0-47.79.92-71.59-.39-11.94-.65-23.54-3.57-35.67-.35-6,1.6-11.31-1.52-12.26-8.52-.62-4.48,3-6.76,6.53-6.53,38,2.44,77.45-9.08,113.73,9.86C801.07,140.53,800.82,142.5,800.57,144.48Z"/><polygon class="cls-78" points="2987.6 260.59 2988.37 261.49 2987.5 260.69 2987.6 260.59"/></svg>